<?xml version="1.0" encoding="utf-8"?>
<!-- Generator: Adobe Illustrator 22.1.0, SVG Export Plug-In . SVG Version: 6.00 Build 0)  -->
<svg version="1.1" id="Capa_1" xmlns="http://www.w3.org/2000/svg" xmlns:xlink="http://www.w3.org/1999/xlink" x="0px" y="0px"
	 viewBox="0 0 209.7 68.1" style="enable-background:new 0 0 209.7 68.1;" xml:space="preserve">
<style type="text/css">
	.st0{fill:#5D5C60;}
	.st1{fill:#6AAB09;}
</style>
<g>
	<g>
		<g>
			<g>
				<g>
					<path class="st0" d="M88.3,32.7H77.6c-0.2,0.5-0.4,1.1-0.6,1.7c-0.2,0.6-0.4,1.2-0.6,1.8c-0.2,0.6-0.4,1.2-0.6,1.7
						c-0.2,0.5-0.3,0.9-0.4,1.3c-0.4,0.2-0.8,0.2-1.3,0.2c-0.4,0-0.8-0.1-1.1-0.3c-0.3-0.2-0.5-0.6-0.5-1.1c0-0.2,0-0.5,0.1-0.7
						c0.1-0.3,0.2-0.5,0.3-0.8c0.4-1.1,0.9-2.5,1.5-4.3c0.6-1.7,1.3-3.6,2-5.6c0.7-2,1.5-4,2.2-6c0.8-2,1.5-3.8,2.1-5.4
						c0.2-0.1,0.5-0.2,1-0.3c0.4-0.1,0.9-0.2,1.3-0.2c0.5,0,1,0.1,1.5,0.2c0.5,0.2,0.8,0.4,0.9,0.8c0.6,1.5,1.3,3.3,2,5.3
						c0.7,2,1.5,4,2.2,6.1c0.7,2.1,1.5,4.1,2.1,6.1c0.7,2,1.3,3.8,1.8,5.4c-0.2,0.2-0.5,0.4-0.8,0.6c-0.3,0.1-0.6,0.2-1,0.2
						c-0.5,0-0.9-0.1-1.2-0.3c-0.3-0.2-0.5-0.6-0.7-1.1L88.3,32.7z M82.9,17.4c-0.3,0.8-0.6,1.7-1,2.7c-0.4,1-0.8,2.1-1.2,3.2
						c-0.4,1.1-0.8,2.2-1.2,3.4c-0.4,1.1-0.8,2.2-1.1,3.3h8.9c-0.4-1.2-0.8-2.4-1.2-3.6c-0.4-1.2-0.8-2.4-1.2-3.5
						c-0.4-1.1-0.7-2.1-1.1-3.1c-0.3-0.9-0.6-1.7-0.8-2.4H82.9z"/>
					<path class="st0" d="M98.8,38.6c-0.3-0.3-0.5-0.7-0.5-1.3V15c0.1-0.1,0.3-0.1,0.6-0.2c0.3-0.1,0.6-0.1,0.9-0.1
						c1.2,0,1.7,0.5,1.7,1.5v20.1H113c0.3,0.3,0.4,0.7,0.4,1.3c0,0.5-0.1,0.8-0.4,1.1c-0.2,0.3-0.6,0.4-1,0.4h-12
						C99.6,39.1,99.2,38.9,98.8,38.6z"/>
					<path class="st0" d="M134.7,17.6c0,0.4-0.1,0.7-0.3,1c-0.2,0.3-0.5,0.5-0.8,0.6c-0.7-0.5-1.5-0.9-2.4-1.4
						c-0.9-0.4-2.1-0.6-3.6-0.6c-1.2,0-2.3,0.2-3.4,0.6c-1,0.4-1.9,1-2.7,1.9c-0.8,0.8-1.4,1.9-1.8,3.1c-0.4,1.2-0.7,2.7-0.7,4.3
						c0,1.6,0.2,3.1,0.6,4.3c0.4,1.2,1,2.2,1.8,3.1c0.8,0.8,1.7,1.4,2.7,1.8c1.1,0.4,2.2,0.6,3.5,0.6c1.4,0,2.6-0.2,3.6-0.6
						c1-0.4,1.9-0.8,2.6-1.4c0.3,0.1,0.5,0.3,0.8,0.6c0.2,0.3,0.4,0.6,0.4,1c0,0.6-0.3,1.1-1,1.5c-0.6,0.4-1.4,0.8-2.5,1.1
						c-1.1,0.3-2.4,0.5-4.1,0.5c-1.7,0-3.2-0.3-4.7-0.8c-1.4-0.5-2.7-1.3-3.7-2.4c-1-1-1.9-2.4-2.5-3.9c-0.6-1.6-0.9-3.4-0.9-5.5
						c0-2.1,0.3-3.9,0.9-5.5c0.6-1.6,1.5-2.9,2.5-4c1.1-1.1,2.3-1.9,3.7-2.4c1.4-0.5,2.9-0.8,4.5-0.8c1.1,0,2.1,0.1,3,0.3
						c0.9,0.2,1.7,0.4,2.3,0.7c0.6,0.3,1.2,0.6,1.5,1C134.5,16.8,134.7,17.2,134.7,17.6z"/>
					<path class="st0" d="M154.7,32.7H144c-0.2,0.5-0.4,1.1-0.6,1.7c-0.2,0.6-0.4,1.2-0.6,1.8c-0.2,0.6-0.4,1.2-0.6,1.7
						c-0.2,0.5-0.3,0.9-0.4,1.3c-0.4,0.2-0.8,0.2-1.3,0.2c-0.4,0-0.8-0.1-1.1-0.3c-0.3-0.2-0.5-0.6-0.5-1.1c0-0.2,0-0.5,0.1-0.7
						c0.1-0.3,0.2-0.5,0.3-0.8c0.4-1.1,0.9-2.5,1.5-4.3c0.6-1.7,1.3-3.6,2-5.6c0.7-2,1.5-4,2.2-6c0.8-2,1.5-3.8,2.1-5.4
						c0.2-0.1,0.5-0.2,1-0.3c0.4-0.1,0.9-0.2,1.3-0.2c0.5,0,1,0.1,1.5,0.2c0.5,0.2,0.8,0.4,0.9,0.8c0.6,1.5,1.3,3.3,2,5.3
						c0.7,2,1.5,4,2.2,6.1c0.7,2.1,1.5,4.1,2.1,6.1c0.7,2,1.3,3.8,1.8,5.4c-0.2,0.2-0.5,0.4-0.8,0.6c-0.3,0.1-0.6,0.2-1,0.2
						c-0.5,0-0.9-0.1-1.2-0.3c-0.3-0.2-0.5-0.6-0.7-1.1L154.7,32.7z M149.4,17.4c-0.3,0.8-0.6,1.7-1,2.7c-0.4,1-0.8,2.1-1.2,3.2
						c-0.4,1.1-0.8,2.2-1.2,3.4c-0.4,1.1-0.8,2.2-1.1,3.3h8.9c-0.4-1.2-0.8-2.4-1.2-3.6c-0.4-1.2-0.8-2.4-1.2-3.5
						c-0.4-1.1-0.7-2.1-1.1-3.1c-0.3-0.9-0.6-1.7-0.8-2.4H149.4z"/>
					<path class="st0" d="M179.4,32.7h-10.7c-0.2,0.5-0.4,1.1-0.6,1.7c-0.2,0.6-0.4,1.2-0.6,1.8c-0.2,0.6-0.4,1.2-0.6,1.7
						c-0.2,0.5-0.3,0.9-0.4,1.3c-0.4,0.2-0.8,0.2-1.3,0.2c-0.4,0-0.8-0.1-1.1-0.3c-0.3-0.2-0.5-0.6-0.5-1.1c0-0.2,0-0.5,0.1-0.7
						c0.1-0.3,0.2-0.5,0.3-0.8c0.4-1.1,0.9-2.5,1.5-4.3c0.6-1.7,1.3-3.6,2-5.6c0.7-2,1.5-4,2.2-6c0.8-2,1.5-3.8,2.1-5.4
						c0.2-0.1,0.5-0.2,1-0.3c0.4-0.1,0.9-0.2,1.3-0.2c0.5,0,1,0.1,1.5,0.2c0.5,0.2,0.8,0.4,0.9,0.8c0.6,1.5,1.3,3.3,2,5.3
						c0.7,2,1.5,4,2.2,6.1c0.7,2.1,1.5,4.1,2.1,6.1c0.7,2,1.3,3.8,1.8,5.4c-0.2,0.2-0.5,0.4-0.8,0.6c-0.3,0.1-0.6,0.2-1,0.2
						c-0.5,0-0.9-0.1-1.2-0.3c-0.3-0.2-0.5-0.6-0.7-1.1L179.4,32.7z M174.1,17.4c-0.3,0.8-0.6,1.7-1,2.7c-0.4,1-0.8,2.1-1.2,3.2
						c-0.4,1.1-0.8,2.2-1.2,3.4c-0.4,1.1-0.8,2.2-1.1,3.3h8.9c-0.4-1.2-0.8-2.4-1.2-3.6c-0.4-1.2-0.8-2.4-1.2-3.5
						c-0.4-1.1-0.7-2.1-1.1-3.1c-0.3-0.9-0.6-1.7-0.8-2.4H174.1z"/>
					<path class="st0" d="M190,38.6c-0.3-0.3-0.5-0.7-0.5-1.3V15c0.1-0.1,0.3-0.1,0.6-0.2c0.3-0.1,0.6-0.1,0.9-0.1
						c1.2,0,1.7,0.5,1.7,1.5v20.1h11.4c0.3,0.3,0.4,0.7,0.4,1.3c0,0.5-0.1,0.8-0.4,1.1c-0.2,0.3-0.6,0.4-1,0.4h-12
						C190.7,39.1,190.3,38.9,190,38.6z"/>
				</g>
			</g>
			<g>
				<path class="st1" d="M75.1,55.1c0,0.2-0.1,0.3-0.2,0.4c-0.1,0.1-0.3,0.2-0.5,0.2c-0.1,0-0.2,0-0.3-0.1c-0.1-0.1-0.2-0.2-0.2-0.3
					l-0.9-2h-4.8l-0.9,2c-0.1,0.1-0.1,0.2-0.2,0.3c-0.1,0.1-0.2,0.1-0.3,0.1c-0.2,0-0.3-0.1-0.5-0.2c-0.1-0.1-0.2-0.3-0.2-0.4
					c0-0.1,0-0.2,0.1-0.3l3.7-8.1c0.1-0.1,0.2-0.3,0.3-0.3s0.3-0.1,0.4-0.1c0.2,0,0.3,0,0.4,0.1c0.1,0.1,0.2,0.2,0.3,0.3l3.7,8.1
					C75.1,55,75.1,55,75.1,55.1z M68.7,52.3h3.9l-1.9-4.4L68.7,52.3z"/>
				<path class="st1" d="M85.2,50.9c0.1,0.1,0.2,0.2,0.2,0.4v3.1c0,0.3,0,0.5-0.1,0.6c-0.1,0.1-0.2,0.2-0.5,0.3
					c-0.4,0.1-0.8,0.3-1.3,0.3c-0.5,0.1-1,0.1-1.4,0.1c-0.9,0-1.8-0.2-2.4-0.6c-0.7-0.4-1.2-0.9-1.6-1.6S77.5,52,77.5,51
					c0-1,0.2-1.8,0.5-2.5c0.4-0.7,0.9-1.3,1.6-1.6c0.7-0.4,1.5-0.6,2.4-0.6c0.6,0,1.2,0.1,1.7,0.3c0.5,0.2,1,0.4,1.3,0.8
					c0.2,0.1,0.3,0.3,0.3,0.5c0,0.2,0,0.3-0.1,0.4c-0.1,0.1-0.2,0.2-0.3,0.2c-0.1,0-0.2,0-0.2,0c-0.1,0-0.1-0.1-0.2-0.1
					c-0.4-0.3-0.8-0.5-1.2-0.7c-0.4-0.1-0.8-0.2-1.2-0.2c-1,0-1.8,0.3-2.3,0.9c-0.5,0.6-0.8,1.5-0.8,2.7c0,1.2,0.3,2.1,0.8,2.7
					c0.5,0.6,1.3,0.9,2.4,0.9c0.7,0,1.4-0.1,2-0.3v-2.6h-1.7c-0.2,0-0.3,0-0.4-0.1c-0.1-0.1-0.2-0.2-0.2-0.4c0-0.2,0.1-0.3,0.2-0.4
					c0.1-0.1,0.2-0.1,0.4-0.1h2.4C85,50.7,85.1,50.8,85.2,50.9z"/>
				<path class="st1" d="M96.4,55.2c0,0.2-0.1,0.3-0.2,0.4c-0.1,0.1-0.3,0.2-0.4,0.2c-0.2,0-0.4-0.1-0.6-0.3l-1.8-2.7
					c-0.2-0.3-0.4-0.5-0.6-0.7s-0.5-0.2-0.9-0.2h-1.5V55c0,0.2-0.1,0.4-0.2,0.5c-0.1,0.1-0.3,0.2-0.5,0.2c-0.2,0-0.4-0.1-0.5-0.2
					C89.1,55.4,89,55.2,89,55v-8c0-0.2,0.1-0.4,0.2-0.5c0.1-0.1,0.3-0.2,0.5-0.2H93c1,0,1.8,0.2,2.4,0.7c0.5,0.5,0.8,1.1,0.8,2
					c0,0.7-0.2,1.3-0.6,1.8c-0.4,0.5-1,0.7-1.8,0.9c0.2,0.1,0.4,0.2,0.6,0.3c0.2,0.2,0.4,0.4,0.5,0.7l1.4,2.1
					C96.3,54.9,96.4,55,96.4,55.2z M92.8,50.7c0.7,0,1.2-0.1,1.5-0.4c0.3-0.3,0.5-0.7,0.5-1.2c0-0.6-0.2-1-0.5-1.2
					c-0.3-0.3-0.8-0.4-1.5-0.4h-2.5v3.3H92.8z"/>
				<path class="st1" d="M101.3,55.2c-0.6-0.4-1.1-0.9-1.5-1.7c-0.4-0.7-0.5-1.6-0.5-2.5c0-1,0.2-1.8,0.5-2.5
					c0.3-0.7,0.8-1.3,1.5-1.7c0.7-0.4,1.4-0.6,2.3-0.6c0.9,0,1.7,0.2,2.3,0.6c0.7,0.4,1.2,0.9,1.5,1.7c0.3,0.7,0.5,1.6,0.5,2.5
					c0,1-0.2,1.8-0.5,2.5c-0.3,0.7-0.8,1.3-1.5,1.7c-0.7,0.4-1.4,0.6-2.3,0.6C102.7,55.8,102,55.6,101.3,55.2z M105.8,53.7
					c0.5-0.6,0.8-1.5,0.8-2.7s-0.3-2.1-0.8-2.7c-0.5-0.6-1.2-0.9-2.2-0.9c-0.9,0-1.6,0.3-2.2,0.9c-0.5,0.6-0.8,1.5-0.8,2.7
					s0.3,2.1,0.8,2.7c0.5,0.6,1.2,1,2.2,1C104.6,54.6,105.3,54.3,105.8,53.7z"/>
				<path class="st1" d="M111.6,55.5c-0.1-0.1-0.2-0.3-0.2-0.5V47c0-0.2,0.1-0.4,0.2-0.5c0.1-0.1,0.3-0.2,0.5-0.2
					c0.2,0,0.4,0.1,0.5,0.2c0.1,0.1,0.2,0.3,0.2,0.5V55c0,0.2-0.1,0.4-0.2,0.5c-0.1,0.1-0.3,0.2-0.5,0.2
					C111.9,55.7,111.7,55.6,111.6,55.5z"/>
				<path class="st1" d="M124,46.5c0.1,0.1,0.2,0.3,0.2,0.5V55c0,0.2-0.1,0.4-0.2,0.5c-0.1,0.1-0.3,0.2-0.5,0.2
					c-0.2,0-0.4-0.1-0.5-0.3l-5.2-6.8V55c0,0.2-0.1,0.4-0.2,0.5c-0.1,0.1-0.3,0.2-0.5,0.2c-0.2,0-0.3-0.1-0.5-0.2
					c-0.1-0.1-0.2-0.3-0.2-0.5V47c0-0.2,0.1-0.4,0.2-0.5c0.1-0.1,0.3-0.2,0.5-0.2c0.2,0,0.4,0.1,0.5,0.3l5.2,6.8V47
					c0-0.2,0.1-0.4,0.2-0.5c0.1-0.1,0.3-0.2,0.5-0.2S123.8,46.3,124,46.5z"/>
				<path class="st1" d="M128.1,55.5c-0.1-0.1-0.2-0.3-0.2-0.5v-8c0-0.2,0.1-0.4,0.2-0.5c0.1-0.1,0.3-0.2,0.5-0.2h2.6
					c1.5,0,2.7,0.4,3.5,1.2c0.8,0.8,1.2,2,1.2,3.4s-0.4,2.6-1.2,3.4c-0.8,0.8-2,1.2-3.5,1.2h-2.6C128.4,55.6,128.2,55.6,128.1,55.5z
					 M131.1,54.5c2.3,0,3.4-1.2,3.4-3.5c0-2.3-1.1-3.5-3.4-3.5h-1.8v7H131.1z"/>
				<path class="st1" d="M140.2,54.8c-0.6-0.6-1-1.6-1-2.8v-5c0-0.2,0.1-0.4,0.2-0.5c0.1-0.1,0.3-0.2,0.5-0.2s0.4,0.1,0.5,0.2
					c0.1,0.1,0.2,0.3,0.2,0.5V52c0,0.9,0.2,1.5,0.6,1.9c0.4,0.4,1,0.7,1.8,0.7c0.8,0,1.4-0.2,1.8-0.7c0.4-0.4,0.6-1.1,0.6-1.9V47
					c0-0.2,0.1-0.4,0.2-0.5c0.1-0.1,0.3-0.2,0.5-0.2c0.2,0,0.4,0.1,0.5,0.2c0.1,0.1,0.2,0.3,0.2,0.5v5c0,1.2-0.3,2.2-1,2.8
					c-0.6,0.6-1.6,1-2.8,1C141.8,55.8,140.9,55.4,140.2,54.8z"/>
				<path class="st1" d="M151.7,55.5c-0.6-0.2-1.1-0.4-1.4-0.8c-0.2-0.1-0.3-0.3-0.3-0.5c0-0.2,0-0.3,0.1-0.4
					c0.1-0.1,0.2-0.2,0.3-0.2c0.1,0,0.3,0.1,0.4,0.2c0.8,0.6,1.7,0.9,2.7,0.9c0.7,0,1.2-0.1,1.6-0.4c0.4-0.3,0.6-0.6,0.6-1.1
					c0-0.4-0.2-0.7-0.5-0.9c-0.4-0.2-0.9-0.4-1.7-0.6c-0.7-0.2-1.3-0.3-1.8-0.5c-0.5-0.2-0.8-0.5-1.1-0.8c-0.3-0.3-0.4-0.8-0.4-1.3
					c0-0.5,0.1-1,0.4-1.4c0.3-0.4,0.7-0.7,1.2-1c0.5-0.2,1.1-0.3,1.8-0.3c0.6,0,1.2,0.1,1.7,0.3c0.5,0.2,1,0.4,1.3,0.8
					c0.2,0.1,0.3,0.3,0.3,0.5c0,0.1,0,0.3-0.1,0.4c-0.1,0.1-0.2,0.2-0.3,0.2c-0.1,0-0.3-0.1-0.4-0.2c-0.4-0.3-0.8-0.5-1.1-0.7
					c-0.4-0.1-0.8-0.2-1.3-0.2c-0.7,0-1.2,0.1-1.6,0.4c-0.4,0.3-0.6,0.7-0.6,1.2c0,0.4,0.2,0.7,0.5,1c0.3,0.2,0.9,0.4,1.6,0.6
					c0.8,0.2,1.4,0.4,1.9,0.5c0.5,0.2,0.9,0.4,1.1,0.8s0.4,0.8,0.4,1.3c0,0.5-0.1,1-0.4,1.4c-0.3,0.4-0.7,0.7-1.2,1
					c-0.5,0.2-1.1,0.3-1.8,0.3C152.9,55.8,152.3,55.7,151.7,55.5z"/>
				<path class="st1" d="M162.6,55.5c-0.1-0.1-0.2-0.3-0.2-0.5v-7.6h-2.6c-0.4,0-0.6-0.2-0.6-0.6c0-0.2,0.1-0.3,0.2-0.4
					c0.1-0.1,0.3-0.1,0.5-0.1h6.7c0.2,0,0.4,0,0.5,0.1c0.1,0.1,0.2,0.2,0.2,0.4c0,0.4-0.2,0.6-0.6,0.6h-2.6V55
					c0,0.2-0.1,0.4-0.2,0.5c-0.1,0.1-0.3,0.2-0.5,0.2C162.9,55.7,162.7,55.6,162.6,55.5z"/>
				<path class="st1" d="M177.1,55.2c0,0.2-0.1,0.3-0.2,0.4c-0.1,0.1-0.3,0.2-0.4,0.2c-0.2,0-0.4-0.1-0.6-0.3l-1.8-2.7
					c-0.2-0.3-0.4-0.5-0.6-0.7s-0.5-0.2-0.9-0.2h-1.5V55c0,0.2-0.1,0.4-0.2,0.5c-0.1,0.1-0.3,0.2-0.5,0.2c-0.2,0-0.4-0.1-0.5-0.2
					c-0.1-0.1-0.2-0.3-0.2-0.5v-8c0-0.2,0.1-0.4,0.2-0.5c0.1-0.1,0.3-0.2,0.5-0.2h3.3c1,0,1.8,0.2,2.4,0.7c0.5,0.5,0.8,1.1,0.8,2
					c0,0.7-0.2,1.3-0.6,1.8c-0.4,0.5-1,0.7-1.8,0.9c0.2,0.1,0.4,0.2,0.6,0.3c0.2,0.2,0.4,0.4,0.5,0.7l1.4,2.1
					C177.1,54.9,177.1,55,177.1,55.2z M173.6,50.7c0.7,0,1.2-0.1,1.5-0.4c0.3-0.3,0.5-0.7,0.5-1.2c0-0.6-0.2-1-0.5-1.2
					c-0.3-0.3-0.8-0.4-1.5-0.4h-2.5v3.3H173.6z"/>
				<path class="st1" d="M180.6,55.5c-0.1-0.1-0.2-0.3-0.2-0.5V47c0-0.2,0.1-0.4,0.2-0.5c0.1-0.1,0.3-0.2,0.5-0.2
					c0.2,0,0.4,0.1,0.5,0.2c0.1,0.1,0.2,0.3,0.2,0.5V55c0,0.2-0.1,0.4-0.2,0.5c-0.1,0.1-0.3,0.2-0.5,0.2
					C180.9,55.7,180.8,55.6,180.6,55.5z"/>
				<path class="st1" d="M193.8,55.1c0,0.2-0.1,0.3-0.2,0.4c-0.1,0.1-0.3,0.2-0.5,0.2c-0.1,0-0.2,0-0.3-0.1
					c-0.1-0.1-0.2-0.2-0.2-0.3l-0.9-2h-4.8l-0.9,2c-0.1,0.1-0.1,0.2-0.2,0.3c-0.1,0.1-0.2,0.1-0.3,0.1c-0.2,0-0.3-0.1-0.5-0.2
					c-0.1-0.1-0.2-0.3-0.2-0.4c0-0.1,0-0.2,0.1-0.3l3.7-8.1c0.1-0.1,0.2-0.3,0.3-0.3s0.3-0.1,0.4-0.1c0.2,0,0.3,0,0.4,0.1
					c0.1,0.1,0.2,0.2,0.3,0.3l3.7,8.1C193.8,55,193.8,55,193.8,55.1z M187.4,52.3h3.9l-1.9-4.4L187.4,52.3z"/>
				<path class="st1" d="M197,55.5c-0.1-0.1-0.2-0.3-0.2-0.5V47c0-0.2,0.1-0.4,0.2-0.5c0.1-0.1,0.3-0.2,0.5-0.2
					c0.2,0,0.4,0.1,0.5,0.2c0.1,0.1,0.2,0.3,0.2,0.5v7.6h4c0.2,0,0.4,0,0.5,0.1c0.1,0.1,0.2,0.2,0.2,0.4c0,0.2-0.1,0.3-0.2,0.4
					c-0.1,0.1-0.3,0.1-0.5,0.1h-4.7C197.3,55.6,197.1,55.6,197,55.5z"/>
			</g>
		</g>
		<g>
			<g>
				<g>
					<path class="st1" d="M64.5,33.6c-1.5-2.2-3.5-4-5.8-5.2c-2.2-1.2-4.7-1.9-7.4-1.9c-2.6,0-5.1,0.7-7.4,1.9
						c-0.6,0.3-1.2,0.7-1.8,1.2c0.1,0.5,0.1,1.1,0,1.7c0.8-0.6,1.6-1.2,2.5-1.7c2-1.1,4.3-1.7,6.7-1.7c2.4,0,4.7,0.6,6.7,1.7
						c1.7,0.9,3.3,2.2,4.6,3.8h-6c-0.4,0-0.7,0.3-0.7,0.7c0,0.4,0.3,0.7,0.7,0.7h6c-1,1.2-2.1,2.2-3.4,3c-1.5,1-3.1,1.7-4.8,2.1
						c-0.3-0.8-0.6-1.5-1.1-2.2c-0.9-1.4-2.1-2.7-3.5-3.6c0.8-0.5,1.6-1.2,2.2-1.9c0.8-0.9,1.4-1.9,1.9-2.9c0.2-0.3,0-0.7-0.3-0.9
						c-0.3-0.2-0.7,0-0.9,0.3c-0.4,0.9-1,1.8-1.7,2.6c-0.7,0.8-1.5,1.4-2.4,1.9c0,0,0,0,0,0c-1.5,0.8-3.1,1.3-4.7,1.3
						c-0.9,0-1.9-0.1-2.8-0.3c-0.2,0.4-0.4,0.8-0.7,1.2c1.2,0.3,2.4,0.5,3.6,0.4c1.5,0,3.1-0.4,4.5-1l0,0c0.1,0,0.1,0.1,0.2,0.1
						c0,0,0,0,0,0c1.5,0.9,2.6,2,3.5,3.4c0.8,1.3,1.3,2.8,1.5,4.4c-0.3,0.1-0.6,0.2-0.9,0.3c-0.4,0.1-0.7,0.2-1.1,0.3
						c-0.6-1.2-1.5-2.4-2.5-3.4c-0.4-0.4-0.8-0.7-1.1-1c-0.4-0.3-0.8-0.6-1.3-0.9c-0.3-0.2-0.7-0.1-0.9,0.2
						c-0.2,0.3-0.1,0.7,0.2,0.9c0.4,0.2,0.8,0.5,1.1,0.8c0.4,0.3,0.7,0.6,1,0.9c1.5,1.5,2.5,3.2,3.1,5.2c0.6,1.8,0.7,3.8,0.4,5.8
						c-1.2,0.2-2.4,0.2-3.6,0c-1.2-0.1-2.3-0.4-3.4-0.9c0.1-0.6,0.1-1.3,0.1-1.9c-0.1-1.9-0.5-3.7-1.5-5.4c-0.1-0.2-0.3-0.4-0.4-0.7
						c0.2,0.1,0.4,0.3,0.7,0.4h0c0.9,0.5,1.8,0.9,2.7,1.1c0.9,0.3,1.9,0.4,2.9,0.4c0.4,0,0.7-0.3,0.7-0.7c0-0.4-0.3-0.7-0.7-0.7
						c-0.9,0-1.7-0.1-2.6-0.3c-0.8-0.2-1.6-0.6-2.4-1c-1.5-0.9-2.7-2-3.5-3.4c-0.5-0.8-0.9-1.6-1.1-2.5c-1,1.4-2.4,2.9-4.3,4.3
						c1.2,1.1,2.2,2.4,3,3.9c1.1,2,1.7,4.3,1.7,6.7c0,2.4-0.6,4.7-1.7,6.7c-0.9,1.7-2.2,3.3-3.8,4.6v-6c0-0.4-0.3-0.7-0.7-0.7
						c-0.4,0-0.7,0.3-0.7,0.7v6c-1.2-1-2.2-2.1-3-3.3c-1-1.5-1.7-3.1-2.1-4.8c0.8-0.3,1.5-0.6,2.2-1.1c1.4-0.9,2.7-2.1,3.6-3.5
						c0.5,0.8,1.2,1.6,1.9,2.2c0.9,0.8,1.9,1.4,2.9,1.9c0.3,0.2,0.7,0,0.9-0.3c0.2-0.3,0-0.7-0.3-0.9c-0.9-0.4-1.8-1-2.6-1.7
						c-0.8-0.7-1.4-1.5-1.9-2.4c0,0,0,0,0,0c-0.8-1.5-1.3-3.1-1.3-4.7c0-0.7,0-1.5,0.2-2.2c-0.4-0.3-0.8-0.6-1.2-0.9
						c-0.2,1-0.4,2.1-0.3,3.2c0,1.5,0.4,3.1,1,4.5l0,0c0,0.1-0.1,0.1-0.1,0.2c0,0,0,0,0,0c-0.9,1.5-2,2.6-3.4,3.5
						c-1.3,0.8-2.8,1.3-4.4,1.5c-0.1-0.3-0.2-0.6-0.3-0.9c-0.1-0.4-0.2-0.7-0.3-1.1c1.2-0.6,2.4-1.5,3.4-2.5c0.4-0.4,0.7-0.8,1-1.1
						c0.3-0.4,0.6-0.8,0.9-1.3c0.2-0.3,0.1-0.7-0.2-0.9c-0.3-0.2-0.7-0.1-0.9,0.2c-0.2,0.4-0.5,0.8-0.8,1.1c-0.3,0.4-0.6,0.7-0.9,1
						c-1.5,1.5-3.2,2.5-5.2,3.1c-1.8,0.6-3.8,0.7-5.8,0.4c-0.2-1.2-0.2-2.4,0-3.6c0.1-1.2,0.4-2.3,0.9-3.4C17.7,45,18.3,45,19,45
						c1.9-0.1,3.7-0.5,5.4-1.5c0.2-0.1,0.4-0.3,0.7-0.4c-0.1,0.2-0.3,0.4-0.4,0.7v0c-0.5,0.9-0.9,1.8-1.1,2.7
						c-0.3,0.9-0.4,1.9-0.4,2.9c0,0.4,0.3,0.7,0.7,0.7c0.4,0,0.7-0.3,0.7-0.7c0-0.9,0.1-1.7,0.4-2.6c0.2-0.8,0.5-1.6,1-2.4h0
						c0.9-1.5,2-2.7,3.4-3.5c0.7-0.4,1.4-0.8,2.2-1c-1.7-1.6-3-3.1-3.9-4.5c-1.2,1.3-2.5,2.3-4,3.1c-2,1.1-4.3,1.7-6.7,1.7
						c-2.4,0-4.7-0.6-6.7-1.7c-1.7-0.9-3.3-2.2-4.6-3.8h6c0.4,0,0.7-0.3,0.7-0.7c0-0.4-0.3-0.7-0.7-0.7h-6c1-1.2,2.1-2.2,3.4-3
						c1.5-1,3.1-1.7,4.8-2.1c0.3,0.8,0.6,1.5,1.1,2.2c0.9,1.4,2.1,2.7,3.5,3.6c-0.8,0.5-1.6,1.2-2.2,1.9c-0.8,0.9-1.4,1.9-1.9,2.9
						c-0.2,0.3,0,0.7,0.3,0.9c0.3,0.2,0.7,0,0.9-0.3c0.4-0.9,1-1.8,1.7-2.6c0.7-0.8,1.5-1.4,2.4-1.9c0,0,0,0,0,0
						c1.5-0.8,3.1-1.3,4.7-1.3c0.9,0,1.7,0.1,2.6,0.3c-0.2-0.5-0.4-1-0.5-1.5c-0.7-0.1-1.4-0.2-2.1-0.1c-1.5,0-3,0.4-4.5,1l0,0
						c-0.1,0-0.2-0.1-0.2-0.1c-1.5-0.9-2.7-2-3.5-3.4c-0.8-1.3-1.3-2.8-1.5-4.4c0.3-0.1,0.6-0.2,0.8-0.3c0.4-0.1,0.7-0.2,1.1-0.3
						c0.6,1.2,1.5,2.4,2.5,3.4c0.4,0.4,0.8,0.7,1.1,1c0.4,0.3,0.8,0.6,1.3,0.9c0.3,0.2,0.7,0.1,0.9-0.2c0.2-0.3,0.1-0.7-0.2-0.9
						c-0.4-0.2-0.8-0.5-1.1-0.8c-0.4-0.3-0.7-0.6-1-0.9c-1.5-1.5-2.5-3.2-3.1-5.2c-0.6-1.8-0.7-3.8-0.4-5.8c1.2-0.2,2.4-0.2,3.6,0
						c1.2,0.1,2.3,0.4,3.4,0.9c-0.1,0.6-0.1,1.3-0.1,1.9c0.1,1.9,0.5,3.7,1.5,5.4c0.1,0.2,0.3,0.4,0.4,0.7c-0.2-0.1-0.4-0.3-0.7-0.4
						c-0.9-0.5-1.8-0.9-2.7-1.1c-1-0.3-1.9-0.4-2.9-0.4c-0.4,0-0.7,0.3-0.7,0.7c0,0.4,0.3,0.7,0.7,0.7c0.9,0,1.7,0.1,2.6,0.4
						c0.8,0.2,1.6,0.5,2.4,1v0c1.1,0.6,2,1.5,2.8,2.4c0.4-0.7,1-1.3,1.8-1.6c-1-0.8-1.9-1.7-2.5-2.9c-0.9-1.5-1.3-3.1-1.3-4.7
						c0-1.5,0.3-3.1,0.9-4.6c0.1,0,0.2,0,0.3,0l0.1,0l0.1,0l0.1,0c0.4,0.1,0.7-0.2,0.8-0.6c0.1-0.4-0.2-0.7-0.6-0.8l-0.1,0v0l0,0
						l-0.1,0h0l-0.1,0c-0.2,0-0.3,0-0.4-0.1c-0.1,0-0.2,0-0.4,0c-0.3,0-0.6,0.1-0.7,0.4c-0.4,0.8-0.6,1.6-0.8,2.4
						c-1.1-0.4-2.3-0.7-3.5-0.9c-1.5-0.2-3-0.1-4.4,0.1c-0.3,0-0.5,0.3-0.6,0.6c-0.4,2.3-0.3,4.7,0.4,6.9c0.1,0.4,0.2,0.7,0.4,1.1
						c-0.3,0.1-0.6,0.2-0.9,0.3c-0.5,0.2-1,0.3-1.4,0.6v0c-0.3,0.1-0.4,0.4-0.4,0.7c0.1,0.7,0.2,1.3,0.3,2c-1.9,0.4-3.6,1.2-5.2,2.3
						c-1.7,1.2-3.3,2.7-4.5,4.4c-0.1,0.1-0.1,0.3-0.1,0.4c0,0.1,0,0.3,0.1,0.4l0,0l0,0l0,0l0,0c1.6,2.2,3.6,4,5.9,5.3
						c2.2,1.2,4.7,1.9,7.4,1.9c2.6,0,5.1-0.7,7.4-1.9c1.5-0.8,2.9-1.9,4.1-3.1c-0.3,0.8-0.6,1.6-1.1,2.3c-0.9,1.4-2,2.6-3.5,3.4
						c-1.5,0.8-3.1,1.3-4.7,1.3c-1.5,0-3.1-0.3-4.6-0.9c0-0.1,0-0.2,0-0.3l0-0.1l0-0.1l0-0.1c0.1-0.4-0.2-0.7-0.6-0.8
						c-0.4-0.1-0.7,0.2-0.8,0.6l0,0.1l0,0.1v0l0,0.1c0,0.2,0,0.3-0.1,0.4c0,0.1,0,0.2,0,0.4c0,0.3,0.1,0.6,0.4,0.7
						c0.8,0.4,1.6,0.6,2.4,0.8c-0.4,1.1-0.7,2.3-0.9,3.5c-0.2,1.5-0.1,3,0.1,4.4c0,0.3,0.3,0.5,0.6,0.6c2.3,0.4,4.7,0.3,6.9-0.4
						c0.4-0.1,0.7-0.2,1.1-0.4c0.1,0.3,0.2,0.6,0.3,0.9c0.2,0.5,0.3,1,0.6,1.4h0c0.1,0.3,0.4,0.4,0.7,0.4c0.7-0.1,1.3-0.2,2-0.3
						c0.4,1.9,1.2,3.6,2.3,5.2c1.2,1.7,2.7,3.2,4.4,4.5c0.1,0.1,0.3,0.2,0.4,0.2c0.2,0,0.3-0.1,0.4-0.2c2.2-1.6,4-3.5,5.2-5.8
						c1.2-2.2,1.9-4.7,1.9-7.4c0-2.6-0.7-5.1-1.9-7.4c-0.8-1.5-1.9-2.9-3.1-4.1c0.8,0.3,1.6,0.6,2.3,1.1c1.4,0.9,2.6,2,3.4,3.5
						c0.9,1.5,1.3,3.1,1.3,4.7c0,1.5-0.3,3.1-0.9,4.6c-0.1,0-0.2,0-0.3,0l-0.1,0l-0.1,0l-0.1,0c-0.4-0.1-0.7,0.2-0.8,0.6
						c-0.1,0.4,0.2,0.7,0.6,0.8l0.1,0l0.1,0h0l0.1,0c0.2,0,0.3,0,0.4,0.1c0.1,0,0.2,0,0.4,0c0.3,0,0.6-0.1,0.7-0.4
						c0.4-0.8,0.6-1.6,0.8-2.4c1.1,0.4,2.3,0.7,3.5,0.9c1.5,0.2,3,0.1,4.4-0.1c0.3,0,0.5-0.3,0.6-0.6c0.4-2.3,0.3-4.7-0.4-6.9
						c-0.1-0.4-0.2-0.7-0.4-1.1c0.3-0.1,0.6-0.2,0.9-0.3c0.5-0.2,1-0.3,1.4-0.6c0.3-0.1,0.4-0.4,0.4-0.7c-0.1-0.7-0.2-1.3-0.3-2
						c1.9-0.4,3.6-1.2,5.2-2.3c1.7-1.2,3.2-2.6,4.5-4.4c0.1-0.1,0.2-0.3,0.2-0.4C64.7,33.9,64.6,33.7,64.5,33.6z"/>
					<path class="st1" d="M28.4,24.2c0.4,0.7,0.9,1.4,1.4,2.1c3.1,0,4.2,4,4.2,4s0.5-1.3,1.4-2.5c0.3-1.2,0.5-2.5,0.5-3.7
						c0-1.5-0.4-3.1-1-4.5l0,0c0-0.1,0.1-0.2,0.1-0.2c0.9-1.5,2-2.7,3.4-3.5c1.3-0.8,2.8-1.3,4.4-1.5c0.1,0.3,0.2,0.6,0.3,0.8
						c0.1,0.4,0.2,0.7,0.3,1.1c-1.2,0.6-2.4,1.5-3.4,2.5c-0.4,0.4-0.7,0.8-1,1.1c-0.3,0.4-0.6,0.8-0.9,1.3c-0.2,0.3-0.1,0.7,0.2,0.9
						c0.3,0.2,0.7,0.1,0.9-0.2c0.2-0.4,0.5-0.8,0.8-1.1c0.3-0.4,0.6-0.7,0.9-1c1.5-1.5,3.2-2.5,5.2-3.1c1.8-0.6,3.8-0.7,5.8-0.4
						c0.2,1.2,0.2,2.4,0,3.6c-0.1,1.2-0.4,2.3-0.9,3.4c-0.6-0.1-1.3-0.1-1.9-0.1c-1.9,0.1-3.7,0.5-5.4,1.5c-0.2,0.1-0.4,0.3-0.7,0.4
						c0.1-0.2,0.3-0.4,0.4-0.7c0.5-0.9,0.9-1.8,1.1-2.7c0.3-0.9,0.4-1.9,0.4-2.9c0-0.4-0.3-0.7-0.7-0.7c-0.4,0-0.7,0.3-0.7,0.7
						c0,0.9-0.1,1.7-0.3,2.6c-0.2,0.8-0.6,1.6-1,2.4c-0.6,1.1-1.5,2.1-2.4,2.8c0.8,0.3,1.4,0.9,1.8,1.6c0.8-0.9,1.7-1.7,2.7-2.3
						c1.5-0.9,3.1-1.3,4.7-1.3c1.5,0,3.1,0.3,4.6,0.9c0,0.1,0,0.2,0,0.3l0,0.1l0,0.1l0,0.1c-0.1,0.4,0.2,0.7,0.6,0.8
						c0.4,0.1,0.7-0.2,0.8-0.6l0-0.1v0l0-0.1v0l0-0.1c0-0.2,0-0.3,0.1-0.4c0-0.1,0-0.2,0-0.4c0-0.3-0.1-0.6-0.4-0.7
						c-0.8-0.4-1.6-0.6-2.4-0.8c0.4-1.1,0.7-2.3,0.9-3.5c0.2-1.5,0.1-3-0.1-4.4c0-0.3-0.3-0.5-0.6-0.6c-2.3-0.4-4.7-0.3-6.9,0.4
						c-0.4,0.1-0.7,0.2-1.1,0.4c-0.1-0.3-0.2-0.6-0.3-0.9c-0.2-0.5-0.3-1-0.6-1.4c-0.1-0.3-0.4-0.4-0.7-0.4c-0.7,0.1-1.3,0.2-2,0.3
						c-0.4-1.9-1.2-3.6-2.3-5.2c-1.2-1.7-2.7-3.3-4.4-4.5c-0.1-0.1-0.3-0.2-0.4-0.2c-0.2,0-0.3,0.1-0.4,0.2c-2.2,1.6-4,3.5-5.2,5.8
						c-1.2,2.2-1.9,4.7-1.9,7.4C26.5,19.5,27.2,22,28.4,24.2z M29.6,10.1c0.9-1.7,2.2-3.3,3.8-4.6v6c0,0.4,0.3,0.7,0.7,0.7
						c0.4,0,0.7-0.3,0.7-0.7v-6c1.2,1,2.2,2.1,3,3.4c1,1.5,1.7,3.1,2.1,4.8c-0.8,0.3-1.5,0.6-2.2,1.1c-1.4,0.9-2.7,2.1-3.6,3.5
						c-0.5-0.8-1.2-1.6-1.9-2.2c-0.9-0.8-1.9-1.4-2.9-1.9c-0.3-0.2-0.7,0-0.9,0.3c-0.2,0.3,0,0.7,0.3,0.9c1,0.4,1.8,1,2.6,1.7
						c0.8,0.7,1.4,1.5,1.9,2.4c0,0,0,0,0,0c0.8,1.5,1.3,3.1,1.3,4.7c0,1.4-0.2,2.9-0.7,4.3c-1.7-1.4-3.2-3-4.2-4.9
						c-1.1-2-1.7-4.3-1.7-6.7C27.9,14.4,28.5,12.1,29.6,10.1z"/>
				</g>
				<path class="st1" d="M34,42.6c-0.1,0-0.3,0-0.4-0.1c-6-4.3-9-9.3-8.2-13.2c0.4-1.9,1.7-3.2,3.5-3.5c2.5-0.5,4.2,1.3,5.1,2.9
					c1-1.7,2.8-3.5,5.3-3v0c1.7,0.3,3,1.6,3.4,3.4c0.7,3.1-1.2,8.2-8.4,13.4C34.2,42.5,34.1,42.6,34,42.6z M29.8,27
					c-0.2,0-0.4,0-0.6,0.1c-1.3,0.2-2.2,1.2-2.5,2.5c-0.6,2.6,1,6.9,7.3,11.6c6.4-4.7,8-9.2,7.5-11.8c-0.3-1.3-1.1-2.1-2.4-2.4l0,0
					c-3-0.6-4.5,3.5-4.5,3.6c-0.1,0.3-0.4,0.5-0.6,0.4c-0.3,0-0.5-0.2-0.6-0.5C33.3,30.3,32.3,27,29.8,27z"/>
			</g>
		</g>
	</g>
</g>
</svg>
