<?xml version="1.0" encoding="utf-8"?>
<!-- Generator: Adobe Illustrator 22.1.0, SVG Export Plug-In . SVG Version: 6.00 Build 0)  -->
<svg version="1.1" id="Capa_1" xmlns="http://www.w3.org/2000/svg" xmlns:xlink="http://www.w3.org/1999/xlink" x="0px" y="0px"
	 viewBox="0 0 195.4 68.1" style="enable-background:new 0 0 195.4 68.1;" xml:space="preserve">
<style type="text/css">
	.st0{fill:#58595B;}
	.st1{fill:#FFFFFF;}
	.st2{fill:url(#SVGID_1_);}
	.st3{fill:url(#SVGID_2_);}
	.st4{fill:url(#SVGID_3_);}
	.st5{fill:url(#SVGID_4_);}
	.st6{fill:#61C5EA;}
	.st7{fill:#A9DFF6;}
</style>
<g>
	<g>
		<g>
			<path class="st0" d="M82.6,39.4l-10.5,0l-3,6.7l-3,0l11.4-24.8l11,24.9l-3,0L82.6,39.4z M81.6,37l-4.1-9.5l-4.2,9.5L81.6,37z"/>
			<path class="st0" d="M94.8,22.5l-0.1,21.2l6.8,0l0,2.5l-9.5,0l0.1-23.7L94.8,22.5z"/>
			<path class="st0" d="M111.3,25l-0.1,21.2l-2.8,0l0.1-21.2l-6,0l0-2.5l14.7,0l0,2.5L111.3,25z"/>
			<path class="st0" d="M134.4,39.6l-10.5,0l-3,6.7l-3,0l11.4-24.8l11,24.9l-3,0L134.4,39.6z M133.4,37.1l-4.1-9.5l-4.2,9.5
				L133.4,37.1z"/>
			<path class="st0" d="M143.8,46.3l0.1-24.7L163,41l0.1-18.4l2.8,0l-0.1,24.8L146.6,28l-0.1,18.3L143.8,46.3z"/>
			<path class="st0" d="M185.7,39.7l-10.5,0l-3,6.7l-3,0l11.4-24.8l11,24.9l-3,0L185.7,39.7z M184.6,37.2l-4.1-9.5l-4.2,9.5
				L184.6,37.2z"/>
		</g>
		<g>
			<path class="st1" d="M50.2,41.3c-0.7-2-7.1-14.7-13.1-22.1s-9.2-6.9-9.9-6.9s-3.8-0.3-9.9,6.9S4,41.1,4,41.1S0.2,48,5.1,53.2
				s11.2,1.3,13.7,0c2.9-1.4,7.8-5,8.2-4.9c0.1,0,3.6,1.9,8.3,4.9c4.7,3,9.1,3.4,13.3,0.4C53,50.7,50.8,43.2,50.2,41.3z M27.3,38.7
				c-3.3,0-13.1,5.5-14.5,6.7c0,0,5.9-14.3,14.2-22.5c0,0,10.2,9.9,14.5,22.8C41.6,45.8,30.6,38.7,27.3,38.7z"/>
			<g>
				
					<linearGradient id="SVGID_1_" gradientUnits="userSpaceOnUse" x1="51.2551" y1="37.6766" x2="45.2942" y2="22.7017" gradientTransform="matrix(1 2.846925e-03 -2.846925e-03 1 -12.0136 -4.4675)">
					<stop  offset="0" style="stop-color:#007DAC"/>
					<stop  offset="1" style="stop-color:#0A4369"/>
				</linearGradient>
				<path class="st2" d="M37.1,19.2c-5-2.9-10,3.8-10,3.8s10.2,9.9,14.5,22.8c0,0,2.8,2.2,5.9,0.8c2.8-1.4,3.3-3.6,2.8-5.3
					C49.5,39.3,43.1,26.6,37.1,19.2z"/>
			</g>
			<g>
				
					<linearGradient id="SVGID_2_" gradientUnits="userSpaceOnUse" x1="40.6128" y1="44.9871" x2="55.7679" y2="53.4185" gradientTransform="matrix(1 2.846925e-03 -2.846925e-03 1 -12.0136 -4.4675)">
					<stop  offset="0" style="stop-color:#007DAC"/>
					<stop  offset="1" style="stop-color:#61C5EA"/>
				</linearGradient>
				<path class="st3" d="M50.4,41.9L50.4,41.9c0.2,1.6-0.5,3.4-3,4.6c-3,1.5-5.9-0.8-5.9-0.8s-11-7.1-14.3-7.1
					c-2.6,0-9.1,3.2-12.5,5.3c1-0.3,7.2,1.3,12.3,4.4c2.1,1.2,3.6,1.9,8.3,4.9c4.7,3,9.1,3.4,13.3,0.4C52.6,51,51.2,44.5,50.4,41.9z
					"/>
			</g>
			<g>
				
					<linearGradient id="SVGID_3_" gradientUnits="userSpaceOnUse" x1="38.0647" y1="48.2443" x2="19.4026" y2="56.4405" gradientTransform="matrix(1 -2.630081e-03 2.630081e-03 1 -10.1552 -10.0213)">
					<stop  offset="0" style="stop-color:#007DAC"/>
					<stop  offset="1" style="stop-color:#0A4369"/>
				</linearGradient>
				<path class="st4" d="M14.9,44c-1,0.6-1.8,1.1-2.1,1.4c0,0,1.6-4,4.4-9l-10.8,0C4.9,39.3,4,41.2,4,41.2s-3.8,6.9,1.2,12.1
					s11.2,1.2,13.7,0c2.9-1.5,7.7-5,8.2-4.9C22.2,45.3,16.2,43.8,14.9,44z"/>
			</g>
			
				<linearGradient id="SVGID_4_" gradientUnits="userSpaceOnUse" x1="14.5957" y1="60.385" x2="39.4365" y2="25.4566" gradientTransform="matrix(1 2.846925e-03 -2.846925e-03 1 -12.0136 -4.4675)">
				<stop  offset="0" style="stop-color:#007DAC"/>
				<stop  offset="1" style="stop-color:#61C5EA"/>
			</linearGradient>
			<path class="st5" d="M12.8,45.4c0,0,5.9-14.3,14.2-22.5c0,0,5-6.6,10-3.8c-6-7.4-9.2-6.9-9.9-6.9s-3.8-0.3-9.9,6.9S4,41.1,4,41.1
				S0.2,48,5.1,53.2c3,3.2,6.6,2.9,9.4,1.9C12.9,54.9,8.9,53.3,12.8,45.4z"/>
			<g>
				<path class="st6" d="M26.7,23c-8.3,8.3-14.1,22.5-14.1,22.5c-3.9,7.8,0.1,9.4,1.7,9.7c0.1,0,0.2-0.1,0.3-0.1
					c-1.6-0.3-5.7-1.9-1.7-9.8c0,0,5.9-14.3,14.2-22.5c0,0,3.4-4.4,7.3-4.5C30.2,18.2,26.7,23,26.7,23z"/>
			</g>
			<g>
				<path class="st7" d="M27.1,38.9c3.3,0,14.3,7.1,14.3,7.1s2.8,2.2,5.9,0.8c1-0.5,1.7-1.1,2.1-1.7c-0.5,0.5-1.1,1-1.9,1.4
					c-3,1.5-5.9-0.8-5.9-0.8s-11-7.1-14.3-7.1c-2.6,0-9.1,3.2-12.5,5.3c0.1,0,0.1,0,0.2,0C18.6,41.8,24.7,38.9,27.1,38.9z"/>
			</g>
		</g>
	</g>
</g>
</svg>
