<?xml version="1.0" encoding="utf-8"?>
<!-- Generator: Adobe Illustrator 22.1.0, SVG Export Plug-In . SVG Version: 6.00 Build 0)  -->
<svg version="1.1" id="Capa_1" xmlns="http://www.w3.org/2000/svg" xmlns:xlink="http://www.w3.org/1999/xlink" x="0px" y="0px"
	 viewBox="0 0 250.6 61.5" style="enable-background:new 0 0 250.6 61.5;" xml:space="preserve">
<style type="text/css">
	.st0{fill:#FFFFFF;}
	.st1{fill:none;stroke:#FFFFFF;stroke-width:1.5;stroke-linecap:round;stroke-linejoin:round;stroke-miterlimit:10;}
</style>
<g>
	<g>
		<g>
			<path class="st0" d="M107.1,37.3H93.8L90,45.8h-3.8l14.3-31.3l14,31.3h-3.8L107.1,37.3z M105.7,34.2l-5.2-12l-5.3,12H105.7z"/>
			<path class="st0" d="M122.4,15.9v26.8h8.5v3.1h-12V15.9H122.4z"/>
			<path class="st0" d="M143.2,19v26.8h-3.5V19h-7.5v-3.1h18.5V19H143.2z"/>
			<path class="st0" d="M172.4,37.3h-13.3l-3.8,8.5h-3.8l14.3-31.3l14,31.3h-3.8L172.4,37.3z M171.1,34.2l-5.2-12l-5.3,12H171.1z"/>
			<path class="st0" d="M184.2,45.8V14.6l24.2,24.4V15.9h3.5v31.3l-24.2-24.4v23.1H184.2z"/>
			<path class="st0" d="M237.1,37.3h-13.3l-3.8,8.5h-3.8l14.3-31.3l14,31.3h-3.8L237.1,37.3z M235.7,34.2l-5.2-12l-5.3,12H235.7z"/>
		</g>
	</g>
	<g>
		<path class="st1" d="M49.5,12c-6.3-3.6-12.6,4.8-12.6,4.8s12.9,12.4,18.4,28.8c0,0,3.6,2.8,7.4,1c3.5-1.7,4.1-4.6,3.5-6.7
			C65.3,37.3,57.2,21.3,49.5,12z"/>
	</g>
	<g>
		<path class="st1" d="M66.4,40.6L66.4,40.6c0.2,2-0.6,4.4-3.7,5.9c-3.8,1.9-7.4-1-7.4-1s-13.8-8.9-18-8.9c-3.3,0-11.4,4-15.7,6.8
			c1.2-0.4,9,1.6,15.5,5.5c2.7,1.5,4.5,2.4,10.5,6.2s11.5,4.3,16.8,0.5C69.2,52,67.4,43.9,66.4,40.6z"/>
	</g>
	<path class="st1" d="M19,45.1c0,0,7.4-18,17.9-28.4c0,0,6.3-8.4,12.6-4.8C41.9,2.6,37.8,3.2,37,3.2c-0.8,0-4.8-0.4-12.4,8.7
		S7.9,39.8,7.9,39.8S3.1,48.5,9.3,55c3.8,4,8.3,3.6,11.9,2.4C19.2,57.1,14,55.1,19,45.1z"/>
	<path class="st1" d="M21.7,43.3c-1.3,0.8-2.3,1.4-2.7,1.8c0,0,0,0,0.1-0.1c0,0.1,0,0.1,0,0.1c-5,10,0.2,11.9,2.2,12.3l0,0.1
		c2.3-0.8,4.2-1.9,5.4-2.5c3.6-1.8,9.8-6.4,10.3-6.3C30.8,45,23.3,43.1,21.7,43.3z"/>
</g>
</svg>
