<?xml version="1.0" encoding="utf-8"?>
<!-- Generator: Adobe Illustrator 22.1.0, SVG Export Plug-In . SVG Version: 6.00 Build 0)  -->
<svg version="1.1" id="Capa_1" xmlns="http://www.w3.org/2000/svg" xmlns:xlink="http://www.w3.org/1999/xlink" x="0px" y="0px"
	 viewBox="0 0 227.1 68.1" style="enable-background:new 0 0 227.1 68.1;" xml:space="preserve">
<style type="text/css">
	.st0{fill:#924A91;}
	.st1{fill:#5D5C60;}
</style>
<g>
	<g>
		<g>
			<g>
				<g>
					<g>
						<path class="st0" d="M119,56.7c-0.1-0.1-0.2-0.3-0.2-0.5v-7.9c0-0.2,0.1-0.4,0.2-0.5c0.1-0.1,0.3-0.2,0.5-0.2
							c0.2,0,0.4,0.1,0.5,0.2c0.1,0.1,0.2,0.3,0.2,0.5v7.4h3.9c0.2,0,0.4,0,0.5,0.1c0.1,0.1,0.2,0.2,0.2,0.4s-0.1,0.3-0.2,0.4
							c-0.1,0.1-0.3,0.1-0.5,0.1h-4.6C119.3,56.8,119.1,56.8,119,56.7z"/>
						<path class="st0" d="M128.7,56.4c-0.6-0.4-1.1-0.9-1.5-1.6c-0.3-0.7-0.5-1.5-0.5-2.5c0-1,0.2-1.8,0.5-2.5
							c0.3-0.7,0.8-1.2,1.5-1.6c0.6-0.4,1.4-0.6,2.3-0.6c0.9,0,1.6,0.2,2.3,0.6c0.6,0.4,1.1,0.9,1.5,1.6c0.3,0.7,0.5,1.5,0.5,2.5
							c0,1-0.2,1.8-0.5,2.5c-0.3,0.7-0.8,1.2-1.5,1.6c-0.6,0.4-1.4,0.6-2.3,0.6C130.1,56.9,129.3,56.8,128.7,56.4z M133.1,54.9
							c0.5-0.6,0.8-1.5,0.8-2.7c0-1.2-0.3-2-0.8-2.7c-0.5-0.6-1.2-0.9-2.1-0.9c-0.9,0-1.6,0.3-2.1,0.9s-0.8,1.5-0.8,2.7
							c0,1.2,0.3,2,0.8,2.7c0.5,0.6,1.2,0.9,2.1,0.9C131.9,55.9,132.6,55.5,133.1,54.9z"/>
						<path class="st0" d="M145.8,52.1c0.1,0.1,0.1,0.2,0.1,0.4v3c0,0.3,0,0.5-0.1,0.6c-0.1,0.1-0.2,0.2-0.5,0.3
							c-0.3,0.1-0.8,0.2-1.2,0.3c-0.5,0.1-0.9,0.1-1.4,0.1c-0.9,0-1.7-0.2-2.4-0.6c-0.7-0.4-1.2-0.9-1.5-1.6
							c-0.4-0.7-0.5-1.5-0.5-2.5c0-1,0.2-1.8,0.5-2.5c0.4-0.7,0.9-1.2,1.5-1.6c0.7-0.4,1.4-0.6,2.3-0.6c0.6,0,1.2,0.1,1.7,0.3
							c0.5,0.2,1,0.4,1.3,0.8c0.2,0.1,0.3,0.3,0.3,0.5c0,0.2,0,0.3-0.1,0.4c-0.1,0.1-0.2,0.2-0.3,0.2c-0.1,0-0.1,0-0.2,0
							c-0.1,0-0.1-0.1-0.2-0.1c-0.4-0.3-0.8-0.5-1.2-0.7c-0.3-0.1-0.7-0.2-1.2-0.2c-1,0-1.7,0.3-2.3,0.9c-0.5,0.6-0.8,1.5-0.8,2.7
							c0,1.2,0.3,2.1,0.8,2.7c0.5,0.6,1.3,0.9,2.3,0.9c0.7,0,1.4-0.1,2-0.3V53h-1.7c-0.2,0-0.3,0-0.4-0.1c-0.1-0.1-0.1-0.2-0.1-0.4
							c0-0.2,0-0.3,0.1-0.4c0.1-0.1,0.2-0.1,0.4-0.1h2.4C145.6,52,145.7,52,145.8,52.1z"/>
						<path class="st0" d="M149.8,56.7c-0.1-0.1-0.2-0.3-0.2-0.5v-7.9c0-0.2,0.1-0.4,0.2-0.5c0.1-0.1,0.3-0.2,0.5-0.2
							c0.2,0,0.4,0.1,0.5,0.2c0.1,0.1,0.2,0.3,0.2,0.5v7.9c0,0.2-0.1,0.4-0.2,0.5c-0.1,0.1-0.3,0.2-0.5,0.2
							C150,56.9,149.9,56.8,149.8,56.7z"/>
						<path class="st0" d="M155.7,56.7c-0.6-0.2-1.1-0.4-1.4-0.8c-0.2-0.1-0.2-0.3-0.2-0.5c0-0.2,0-0.3,0.1-0.4
							c0.1-0.1,0.2-0.2,0.3-0.2s0.3,0.1,0.4,0.2c0.8,0.6,1.6,0.9,2.6,0.9c0.7,0,1.2-0.1,1.6-0.4s0.6-0.6,0.6-1.1
							c0-0.4-0.2-0.7-0.5-0.9c-0.3-0.2-0.9-0.4-1.7-0.5c-0.7-0.2-1.3-0.3-1.8-0.5c-0.5-0.2-0.8-0.5-1.1-0.8
							c-0.3-0.3-0.4-0.8-0.4-1.3c0-0.5,0.1-1,0.4-1.4c0.3-0.4,0.7-0.7,1.2-1c0.5-0.2,1.1-0.3,1.8-0.3c0.6,0,1.2,0.1,1.7,0.3
							c0.5,0.2,1,0.4,1.3,0.8c0.2,0.1,0.3,0.3,0.3,0.5c0,0.1,0,0.3-0.1,0.4c-0.1,0.1-0.2,0.2-0.3,0.2c-0.1,0-0.3-0.1-0.4-0.2
							c-0.4-0.3-0.8-0.5-1.1-0.7c-0.4-0.1-0.8-0.2-1.3-0.2c-0.7,0-1.2,0.1-1.6,0.4c-0.4,0.3-0.6,0.7-0.6,1.1c0,0.4,0.2,0.7,0.5,0.9
							c0.3,0.2,0.9,0.4,1.6,0.6c0.8,0.2,1.4,0.4,1.8,0.5c0.5,0.2,0.8,0.4,1.1,0.8c0.3,0.3,0.4,0.7,0.4,1.3c0,0.5-0.1,1-0.4,1.4
							c-0.3,0.4-0.7,0.7-1.2,0.9c-0.5,0.2-1.1,0.3-1.8,0.3C157,56.9,156.3,56.9,155.7,56.7z"/>
						<path class="st0" d="M166.5,56.7c-0.1-0.1-0.2-0.3-0.2-0.5v-7.4h-2.6c-0.4,0-0.6-0.2-0.6-0.6c0-0.2,0.1-0.3,0.2-0.4
							c0.1-0.1,0.3-0.1,0.5-0.1h6.5c0.2,0,0.4,0,0.5,0.1c0.1,0.1,0.2,0.2,0.2,0.4c0,0.4-0.2,0.6-0.6,0.6h-2.6v7.4
							c0,0.2-0.1,0.4-0.2,0.5c-0.1,0.1-0.3,0.2-0.5,0.2C166.7,56.9,166.6,56.8,166.5,56.7z"/>
						<path class="st0" d="M173.7,56.7c-0.1-0.1-0.2-0.3-0.2-0.5v-7.9c0-0.2,0.1-0.4,0.2-0.5c0.1-0.1,0.3-0.2,0.5-0.2
							c0.2,0,0.4,0.1,0.5,0.2c0.1,0.1,0.2,0.3,0.2,0.5v7.9c0,0.2-0.1,0.4-0.2,0.5c-0.1,0.1-0.3,0.2-0.5,0.2
							C174,56.9,173.8,56.8,173.7,56.7z"/>
						<path class="st0" d="M180.2,56.4c-0.6-0.4-1.1-0.9-1.5-1.6c-0.3-0.7-0.5-1.5-0.5-2.5c0-1,0.2-1.8,0.5-2.5
							c0.3-0.7,0.8-1.2,1.5-1.6c0.6-0.4,1.4-0.6,2.3-0.6c0.6,0,1.1,0.1,1.6,0.3c0.5,0.2,1,0.4,1.3,0.8c0.2,0.1,0.2,0.3,0.2,0.5
							c0,0.2,0,0.3-0.1,0.4c-0.1,0.1-0.2,0.2-0.3,0.2c-0.1,0-0.3-0.1-0.4-0.2c-0.4-0.3-0.8-0.5-1.1-0.7c-0.3-0.1-0.7-0.2-1.2-0.2
							c-1,0-1.7,0.3-2.2,0.9c-0.5,0.6-0.8,1.5-0.8,2.6c0,1.2,0.3,2,0.8,2.7c0.5,0.6,1.2,0.9,2.2,0.9c0.4,0,0.8-0.1,1.1-0.2
							c0.3-0.1,0.7-0.3,1.2-0.6c0.2-0.1,0.3-0.2,0.4-0.2c0.1,0,0.2,0.1,0.3,0.2c0.1,0.1,0.1,0.2,0.1,0.4c0,0.2-0.1,0.4-0.2,0.5
							c-0.4,0.3-0.8,0.6-1.3,0.8c-0.5,0.2-1.1,0.3-1.6,0.3C181.6,56.9,180.9,56.8,180.2,56.4z"/>
						<path class="st0" d="M195,56.7c-0.6-0.2-1.1-0.4-1.4-0.8c-0.2-0.1-0.2-0.3-0.2-0.5c0-0.2,0-0.3,0.1-0.4
							c0.1-0.1,0.2-0.2,0.3-0.2c0.1,0,0.3,0.1,0.4,0.2c0.8,0.6,1.6,0.9,2.6,0.9c0.7,0,1.2-0.1,1.6-0.4c0.4-0.3,0.6-0.6,0.6-1.1
							c0-0.4-0.2-0.7-0.5-0.9c-0.3-0.2-0.9-0.4-1.7-0.5c-0.7-0.2-1.3-0.3-1.8-0.5c-0.5-0.2-0.8-0.5-1.1-0.8
							c-0.3-0.3-0.4-0.8-0.4-1.3c0-0.5,0.1-1,0.4-1.4c0.3-0.4,0.7-0.7,1.2-1c0.5-0.2,1.1-0.3,1.8-0.3c0.6,0,1.2,0.1,1.7,0.3
							c0.5,0.2,1,0.4,1.3,0.8c0.2,0.1,0.3,0.3,0.3,0.5c0,0.1,0,0.3-0.1,0.4c-0.1,0.1-0.2,0.2-0.3,0.2c-0.1,0-0.3-0.1-0.4-0.2
							c-0.4-0.3-0.8-0.5-1.1-0.7c-0.4-0.1-0.8-0.2-1.3-0.2c-0.7,0-1.2,0.1-1.6,0.4c-0.4,0.3-0.6,0.7-0.6,1.1c0,0.4,0.2,0.7,0.5,0.9
							c0.3,0.2,0.9,0.4,1.6,0.6c0.8,0.2,1.4,0.4,1.8,0.5c0.5,0.2,0.8,0.4,1.1,0.8c0.3,0.3,0.4,0.7,0.4,1.3c0,0.5-0.1,1-0.4,1.4
							c-0.3,0.4-0.7,0.7-1.2,0.9c-0.5,0.2-1.1,0.3-1.8,0.3C196.2,56.9,195.6,56.9,195,56.7z"/>
						<path class="st0" d="M203.3,56.7c-0.2-0.2-0.2-0.4-0.2-0.6c0-0.2,0.1-0.4,0.2-0.6c0.2-0.2,0.4-0.2,0.6-0.2
							c0.2,0,0.4,0.1,0.6,0.2c0.2,0.2,0.2,0.4,0.2,0.6c0,0.2-0.1,0.4-0.2,0.6c-0.2,0.2-0.4,0.2-0.6,0.2
							C203.7,56.9,203.5,56.8,203.3,56.7z"/>
						<path class="st0" d="M216.5,56.3c0,0.2-0.1,0.3-0.2,0.4c-0.1,0.1-0.3,0.2-0.4,0.2c-0.1,0-0.2,0-0.3-0.1s-0.2-0.2-0.2-0.3
							l-0.9-1.9h-4.7l-0.9,1.9c-0.1,0.1-0.1,0.2-0.2,0.3s-0.2,0.1-0.3,0.1c-0.2,0-0.3-0.1-0.5-0.2c-0.1-0.1-0.2-0.3-0.2-0.4
							c0-0.1,0-0.2,0.1-0.3l3.7-8c0.1-0.1,0.2-0.2,0.3-0.3s0.3-0.1,0.4-0.1c0.1,0,0.3,0,0.4,0.1c0.1,0.1,0.2,0.2,0.3,0.3l3.7,8
							C216.4,56.2,216.5,56.3,216.5,56.3z M210.1,53.5h3.8l-1.9-4.3L210.1,53.5z"/>
						<path class="st0" d="M219.5,56.7c-0.2-0.2-0.2-0.4-0.2-0.6c0-0.2,0.1-0.4,0.2-0.6c0.2-0.2,0.4-0.2,0.6-0.2
							c0.2,0,0.4,0.1,0.6,0.2c0.2,0.2,0.2,0.4,0.2,0.6c0,0.2-0.1,0.4-0.2,0.6c-0.2,0.2-0.4,0.2-0.6,0.2
							C219.9,56.9,219.7,56.8,219.5,56.7z"/>
					</g>
				</g>
				<g>
					<path class="st1" d="M92.3,35.3H81.9c-0.2,0.5-0.4,1.1-0.6,1.7c-0.2,0.6-0.4,1.2-0.6,1.8c-0.2,0.6-0.4,1.1-0.6,1.6
						c-0.2,0.5-0.3,0.9-0.4,1.3c-0.4,0.2-0.8,0.2-1.3,0.2c-0.4,0-0.8-0.1-1.1-0.3c-0.3-0.2-0.5-0.6-0.5-1.1c0-0.2,0-0.5,0.1-0.7
						c0.1-0.2,0.2-0.5,0.3-0.8c0.4-1.1,0.9-2.5,1.5-4.2c0.6-1.7,1.3-3.5,2-5.5c0.7-1.9,1.4-3.9,2.2-5.8c0.7-2,1.4-3.7,2-5.3
						c0.2-0.1,0.5-0.2,0.9-0.3c0.4-0.1,0.8-0.2,1.3-0.2c0.5,0,1,0.1,1.5,0.2c0.5,0.2,0.8,0.4,0.9,0.8c0.6,1.5,1.3,3.2,2,5.2
						c0.7,1.9,1.4,3.9,2.2,5.9c0.7,2,1.4,4,2.1,6c0.7,2,1.3,3.7,1.8,5.3c-0.2,0.2-0.5,0.4-0.7,0.6c-0.3,0.1-0.6,0.2-1,0.2
						c-0.5,0-0.9-0.1-1.1-0.3c-0.3-0.2-0.5-0.6-0.7-1.1L92.3,35.3z M87.1,20.4c-0.3,0.8-0.6,1.7-1,2.7c-0.4,1-0.7,2-1.1,3.1
						c-0.4,1.1-0.8,2.2-1.2,3.3c-0.4,1.1-0.8,2.2-1.1,3.2h8.8c-0.4-1.2-0.8-2.3-1.2-3.5c-0.4-1.2-0.8-2.3-1.2-3.4
						c-0.4-1.1-0.7-2.1-1.1-3c-0.3-0.9-0.6-1.7-0.8-2.4H87.1z"/>
					<path class="st1" d="M119.6,37.1c-0.4,1.1-1,2-1.8,2.7c-0.8,0.8-1.8,1.3-2.9,1.8c-1.1,0.4-2.5,0.6-3.9,0.6s-2.8-0.2-3.9-0.6
						c-1.1-0.4-2.1-1-2.9-1.8c-0.8-0.8-1.4-1.7-1.8-2.7c-0.4-1.1-0.6-2.3-0.6-3.6V18.1c0.1-0.1,0.3-0.1,0.6-0.2
						c0.3-0.1,0.6-0.1,0.9-0.1c1.1,0,1.7,0.5,1.7,1.4v14c0,1,0.2,1.9,0.5,2.7c0.3,0.8,0.7,1.4,1.3,2c0.5,0.5,1.2,0.9,1.9,1.2
						c0.7,0.3,1.5,0.4,2.4,0.4c0.9,0,1.7-0.1,2.4-0.4c0.7-0.3,1.4-0.7,1.9-1.2c0.5-0.5,1-1.2,1.3-2c0.3-0.8,0.5-1.7,0.5-2.7V18.1
						c0.1-0.1,0.3-0.1,0.6-0.2c0.3-0.1,0.6-0.1,0.9-0.1c1.1,0,1.7,0.5,1.7,1.4v14.2C120.2,34.8,120,36,119.6,37.1z"/>
					<path class="st1" d="M146.9,29.5c0,2.1-0.3,4-0.9,5.5c-0.6,1.6-1.4,2.9-2.5,3.9c-1.1,1-2.4,1.8-3.9,2.3
						c-1.5,0.5-3.2,0.8-5.1,0.8c-0.8,0-1.8,0-2.8-0.1c-1-0.1-2-0.2-3-0.5c-1.1-0.3-1.6-0.9-1.6-1.8v-20c0-0.4,0.1-0.7,0.3-1
						c0.2-0.2,0.5-0.4,1-0.5c0.8-0.3,1.7-0.4,2.7-0.5c1-0.1,2-0.1,3-0.1c1.9,0,3.6,0.3,5.2,0.8c1.6,0.5,2.9,1.3,4,2.3
						c1.1,1,2,2.2,2.6,3.7C146.6,25.8,146.9,27.5,146.9,29.5z M143.6,29.5c0-1.7-0.3-3.1-0.8-4.3c-0.5-1.2-1.2-2.1-2.1-2.9
						c-0.9-0.8-1.9-1.3-3-1.7c-1.2-0.4-2.4-0.5-3.7-0.5c-0.8,0-1.6,0-2.2,0.1c-0.6,0.1-1.2,0.1-1.7,0.2V39c0.6,0.2,1.3,0.3,2,0.3
						c0.7,0.1,1.4,0.1,2.2,0.1c3.1,0,5.4-0.8,6.9-2.5C142.9,35.3,143.6,32.8,143.6,29.5z"/>
					<path class="st1" d="M165.4,35.3h-10.4c-0.2,0.5-0.4,1.1-0.6,1.7c-0.2,0.6-0.4,1.2-0.6,1.8c-0.2,0.6-0.4,1.1-0.6,1.6
						c-0.2,0.5-0.3,0.9-0.4,1.3c-0.4,0.2-0.8,0.2-1.3,0.2c-0.4,0-0.8-0.1-1.1-0.3c-0.3-0.2-0.5-0.6-0.5-1.1c0-0.2,0-0.5,0.1-0.7
						c0.1-0.2,0.2-0.5,0.3-0.8c0.4-1.1,0.9-2.5,1.5-4.2c0.6-1.7,1.3-3.5,2-5.5c0.7-1.9,1.4-3.9,2.2-5.8c0.7-2,1.4-3.7,2-5.3
						c0.2-0.1,0.5-0.2,0.9-0.3c0.4-0.1,0.8-0.2,1.3-0.2c0.5,0,1,0.1,1.5,0.2c0.5,0.2,0.8,0.4,0.9,0.8c0.6,1.5,1.3,3.2,2,5.2
						c0.7,1.9,1.4,3.9,2.2,5.9c0.7,2,1.4,4,2.1,6c0.7,2,1.3,3.7,1.8,5.3c-0.2,0.2-0.5,0.4-0.7,0.6c-0.3,0.1-0.6,0.2-1,0.2
						c-0.5,0-0.9-0.1-1.1-0.3c-0.3-0.2-0.5-0.6-0.7-1.1L165.4,35.3z M160.2,20.4c-0.3,0.8-0.6,1.7-1,2.7c-0.4,1-0.7,2-1.1,3.1
						c-0.4,1.1-0.8,2.2-1.2,3.3c-0.4,1.1-0.8,2.2-1.1,3.2h8.8c-0.4-1.2-0.8-2.3-1.2-3.5c-0.4-1.2-0.8-2.3-1.2-3.4
						c-0.4-1.1-0.7-2.1-1.1-3c-0.3-0.9-0.6-1.7-0.8-2.4H160.2z"/>
					<path class="st1" d="M176.9,41.8c-1.1,0-1.7-0.5-1.7-1.4v-22c0.5-0.5,1.2-0.7,2.1-0.7c0.6,0,1.2,0.1,1.6,0.4
						c0.4,0.2,0.8,0.7,1.2,1.3l7.4,12.5c0.3,0.5,0.6,1.1,1,1.7c0.3,0.6,0.7,1.2,1,1.8c0.3,0.6,0.6,1.2,0.9,1.7
						c0.3,0.5,0.5,1,0.7,1.3l0.2,0c-0.2-2.1-0.3-4.2-0.4-6.3c0-2.1-0.1-4.2-0.1-6.2v-7.9c0.2-0.1,0.4-0.1,0.6-0.2
						c0.3-0.1,0.5-0.1,0.9-0.1c1.1,0,1.7,0.5,1.7,1.4v22c-0.2,0.2-0.5,0.4-0.9,0.5c-0.4,0.1-0.8,0.2-1.2,0.2c-0.6,0-1.2-0.1-1.6-0.4
						c-0.4-0.2-0.8-0.7-1.2-1.3l-7.4-12.5c-0.3-0.5-0.6-1.1-1-1.7c-0.4-0.6-0.7-1.2-1-1.8c-0.3-0.6-0.6-1.2-0.9-1.7
						c-0.3-0.5-0.5-1-0.7-1.4l-0.2,0c0.1,1.2,0.2,2.7,0.3,4.3s0.1,3.1,0.1,4.5v11.6c-0.1,0.1-0.3,0.1-0.6,0.2
						C177.5,41.8,177.2,41.8,176.9,41.8z"/>
					<path class="st1" d="M214.1,35.3h-10.4c-0.2,0.5-0.4,1.1-0.6,1.7c-0.2,0.6-0.4,1.2-0.6,1.8c-0.2,0.6-0.4,1.1-0.6,1.6
						c-0.2,0.5-0.3,0.9-0.4,1.3c-0.4,0.2-0.8,0.2-1.3,0.2c-0.4,0-0.8-0.1-1.1-0.3c-0.3-0.2-0.5-0.6-0.5-1.1c0-0.2,0-0.5,0.1-0.7
						c0.1-0.2,0.2-0.5,0.3-0.8c0.4-1.1,0.9-2.5,1.5-4.2c0.6-1.7,1.3-3.5,2-5.5c0.7-1.9,1.4-3.9,2.2-5.8c0.7-2,1.4-3.7,2-5.3
						c0.2-0.1,0.5-0.2,0.9-0.3c0.4-0.1,0.8-0.2,1.3-0.2c0.5,0,1,0.1,1.5,0.2c0.5,0.2,0.8,0.4,0.9,0.8c0.6,1.5,1.3,3.2,2,5.2
						c0.7,1.9,1.4,3.9,2.2,5.9c0.7,2,1.4,4,2.1,6c0.7,2,1.3,3.7,1.8,5.3c-0.2,0.2-0.5,0.4-0.7,0.6c-0.3,0.1-0.6,0.2-1,0.2
						c-0.5,0-0.9-0.1-1.1-0.3c-0.3-0.2-0.5-0.6-0.7-1.1L214.1,35.3z M208.9,20.4c-0.3,0.8-0.6,1.7-1,2.7c-0.4,1-0.7,2-1.1,3.1
						c-0.4,1.1-0.8,2.2-1.2,3.3c-0.4,1.1-0.8,2.2-1.1,3.2h8.8c-0.4-1.2-0.8-2.3-1.2-3.5c-0.4-1.2-0.8-2.3-1.2-3.4
						c-0.4-1.1-0.7-2.1-1.1-3c-0.3-0.9-0.6-1.7-0.8-2.4H208.9z"/>
				</g>
			</g>
		</g>
		<path class="st0" d="M67.6,33.3c-0.2,0-15.4-0.8-23.4-2.9l8.2-11.9c0.2-0.3,0.1-0.6-0.1-0.8c-0.2-0.2-0.6-0.3-0.8-0.1l-12,8.3
			c-2.2-7.9-3-23.3-3-23.5c0-0.3-0.3-0.6-0.7-0.6c-0.3,0-0.6,0.3-0.6,0.6c0,0.2-0.8,15.5-2.9,23.5l-11.9-8.2
			c-0.3-0.2-0.6-0.1-0.8,0.1s-0.3,0.6-0.1,0.8l8.2,11.9c-7.9,2.1-23.3,3-23.5,3c-0.3,0-0.6,0.3-0.6,0.7c0,0.3,0.3,0.6,0.6,0.6
			c0.2,0,15.5,0.8,23.5,2.9l-8.3,12c-0.2,0.3-0.1,0.6,0.1,0.8s0.6,0.3,0.8,0.1l12-8.2c2.1,8,3,23.2,3,23.4c0,0.3,0.3,0.6,0.7,0.6
			c0.3,0,0.6-0.3,0.6-0.6c0-0.2,0.8-15.5,2.9-23.4l12,8.3c0.1,0.1,0.2,0.1,0.4,0.1c0.2,0,0.3-0.1,0.5-0.2c0.2-0.2,0.3-0.6,0.1-0.8
			l-8.3-12c7.9-2.1,23.3-3,23.5-3c0.3,0,0.6-0.3,0.6-0.6v0C68.2,33.6,67.9,33.3,67.6,33.3z M49.3,20.7l-6.6,9.6c0-0.2,0-0.4-0.1-0.6
			c-0.1-0.6-0.4-1.2-0.8-1.6l6.4-6.6L49.3,20.7z M36,38.4c-4.4-3.3-5.6-6.4-5.2-8.3c0.2-0.9,0.8-1.5,1.7-1.7c0.1,0,0.3,0,0.4,0
			c1.8,0,2.4,2.4,2.5,2.5c0.1,0.3,0.3,0.5,0.6,0.5c0.3,0,0.5-0.2,0.6-0.4c0,0,1-2.9,3.1-2.5c0.8,0.2,1.4,0.7,1.6,1.6
			C41.8,31.7,40.6,35,36,38.4z M35.9,11c0.5,5.1,1.3,11.5,2.5,15.7l-2.5,1.7l-2.5-1.7C34.6,22.4,35.4,16.1,35.9,11z M22.8,20.9
			l9.2,6.3c-0.6,0.2-1.2,0.6-1.6,1.1L22.8,20.9z M12.8,34.1c5.1-0.5,11.4-1.3,15.7-2.5l1.7,2.5l-1.7,2.5
			C24.3,35.4,17.9,34.6,12.8,34.1z M23.3,46.3l7.7-11.2c0.4,0.6,0.9,1.2,1.5,1.8L23.3,46.3z M36,57.2c-0.5-5.1-1.3-11.4-2.5-15.6
			l2.5-1.7l2.5,1.7C37.2,45.8,36.4,52.1,36,57.2z M49.1,47.2l0.2,0.3l-12.1-8.4c0.7-0.6,1.4-1.1,1.9-1.7L49.1,47.2z M43.3,36.5
			l-1.6-2.4c0.1-0.1,0.1-0.3,0.2-0.4l1.5-2.2c4.2,1.2,10.5,1.9,15.6,2.4C53.9,34.5,47.6,35.3,43.3,36.5z"/>
	</g>
</g>
</svg>
