<?xml version="1.0" encoding="utf-8"?>
<!-- Generator: Adobe Illustrator 22.1.0, SVG Export Plug-In . SVG Version: 6.00 Build 0)  -->
<svg version="1.1" id="Capa_1" xmlns="http://www.w3.org/2000/svg" xmlns:xlink="http://www.w3.org/1999/xlink" x="0px" y="0px"
	 viewBox="0 0 183.1 68.1" style="enable-background:new 0 0 183.1 68.1;" xml:space="preserve">
<style type="text/css">
	.st0{fill:#04ACA2;}
	.st1{fill:#5D5C60;}
</style>
<g>
	<g>
		<g>
			<g>
				<g>
					<g>
						<path class="st0" d="M78.1,51c-0.1-0.1-0.1-0.2-0.1-0.4v-6c0-0.2,0-0.3,0.1-0.4c0.1-0.1,0.2-0.1,0.4-0.1c0.2,0,0.3,0,0.4,0.1
							c0.1,0.1,0.1,0.2,0.1,0.4v6c0,0.2,0,0.3-0.1,0.4c-0.1,0.1-0.2,0.1-0.4,0.1C78.3,51.2,78.2,51.1,78.1,51z"/>
						<path class="st0" d="M87.5,44.3c0.1,0.1,0.1,0.2,0.1,0.4v6c0,0.2,0,0.3-0.1,0.4c-0.1,0.1-0.2,0.1-0.4,0.1
							c-0.2,0-0.3-0.1-0.4-0.2l-3.9-5.1v4.8c0,0.2,0,0.3-0.1,0.4c-0.1,0.1-0.2,0.1-0.3,0.1s-0.3,0-0.3-0.1C82,50.9,82,50.8,82,50.6
							v-6c0-0.2,0-0.3,0.1-0.4c0.1-0.1,0.2-0.1,0.4-0.1c0.2,0,0.3,0.1,0.4,0.2l3.9,5.1v-4.8c0-0.2,0-0.3,0.1-0.4
							c0.1-0.1,0.2-0.1,0.3-0.1C87.3,44.1,87.4,44.2,87.5,44.3z"/>
						<path class="st0" d="M96.1,44.1c0.1,0,0.2,0,0.4,0.1c0.1,0.1,0.2,0.2,0.2,0.3c0,0,0,0.1,0,0.2l-2.8,6.1c0,0.1-0.1,0.2-0.2,0.2
							c-0.1,0.1-0.2,0.1-0.3,0.1c-0.1,0-0.2,0-0.3-0.1c-0.1-0.1-0.2-0.1-0.2-0.2L90,44.7c0-0.1,0-0.1,0-0.2c0-0.1,0.1-0.2,0.2-0.3
							c0.1-0.1,0.2-0.1,0.4-0.1c0.2,0,0.3,0.1,0.4,0.3l2.4,5.4l2.4-5.4C95.8,44.2,95.9,44.1,96.1,44.1z"/>
						<path class="st0" d="M99.1,51c-0.1-0.1-0.1-0.2-0.1-0.4v-6c0-0.2,0-0.3,0.1-0.4c0.1-0.1,0.2-0.1,0.4-0.1h3.6
							c0.2,0,0.3,0,0.3,0.1c0.1,0.1,0.1,0.2,0.1,0.3s0,0.2-0.1,0.3c-0.1,0.1-0.2,0.1-0.3,0.1h-3.1v2.2h2.9c0.2,0,0.3,0,0.3,0.1
							c0.1,0.1,0.1,0.2,0.1,0.3c0,0.1,0,0.2-0.1,0.3c-0.1,0.1-0.2,0.1-0.3,0.1h-2.9v2.3h3.1c0.3,0,0.5,0.1,0.5,0.4
							c0,0.1,0,0.2-0.1,0.3c-0.1,0.1-0.2,0.1-0.3,0.1h-3.6C99.3,51.1,99.1,51.1,99.1,51z"/>
						<path class="st0" d="M106.8,51c-0.4-0.1-0.8-0.3-1.1-0.6c-0.1-0.1-0.2-0.2-0.2-0.4c0-0.1,0-0.2,0.1-0.3
							c0.1-0.1,0.1-0.1,0.2-0.1c0.1,0,0.2,0,0.3,0.1c0.6,0.4,1.2,0.6,2,0.6c0.5,0,0.9-0.1,1.2-0.3c0.3-0.2,0.4-0.5,0.4-0.8
							c0-0.3-0.1-0.5-0.4-0.6c-0.3-0.1-0.7-0.3-1.3-0.4c-0.6-0.1-1-0.3-1.4-0.4c-0.4-0.2-0.6-0.4-0.8-0.6c-0.2-0.3-0.3-0.6-0.3-1
							c0-0.4,0.1-0.8,0.3-1.1c0.2-0.3,0.5-0.6,0.9-0.7c0.4-0.2,0.8-0.3,1.3-0.3c0.5,0,0.9,0.1,1.3,0.2c0.4,0.1,0.7,0.3,1,0.6
							c0.1,0.1,0.2,0.2,0.2,0.4c0,0.1,0,0.2-0.1,0.3c-0.1,0.1-0.1,0.1-0.2,0.1c-0.1,0-0.2,0-0.3-0.1c-0.3-0.2-0.6-0.4-0.9-0.5
							c-0.3-0.1-0.6-0.2-1-0.2c-0.5,0-0.9,0.1-1.2,0.3c-0.3,0.2-0.4,0.5-0.4,0.9c0,0.3,0.1,0.6,0.4,0.7c0.2,0.2,0.6,0.3,1.2,0.4
							c0.6,0.1,1,0.3,1.4,0.4c0.4,0.1,0.6,0.3,0.9,0.6c0.2,0.2,0.3,0.6,0.3,0.9c0,0.4-0.1,0.7-0.3,1c-0.2,0.3-0.5,0.5-0.9,0.7
							c-0.4,0.2-0.9,0.3-1.4,0.3C107.8,51.2,107.3,51.1,106.8,51z"/>
						<path class="st0" d="M115.2,51c-0.1-0.1-0.1-0.2-0.1-0.4V45h-2c-0.3,0-0.5-0.1-0.5-0.4c0-0.1,0-0.2,0.1-0.3
							c0.1-0.1,0.2-0.1,0.3-0.1h5c0.2,0,0.3,0,0.3,0.1c0.1,0.1,0.1,0.2,0.1,0.3c0,0.3-0.2,0.4-0.5,0.4h-2v5.6c0,0.2,0,0.3-0.1,0.4
							c-0.1,0.1-0.2,0.1-0.4,0.1C115.4,51.2,115.3,51.1,115.2,51z"/>
						<path class="st0" d="M120.8,51c-0.1-0.1-0.1-0.2-0.1-0.4v-6c0-0.2,0-0.3,0.1-0.4c0.1-0.1,0.2-0.1,0.4-0.1c0.2,0,0.3,0,0.4,0.1
							c0.1,0.1,0.1,0.2,0.1,0.4v6c0,0.2,0,0.3-0.1,0.4c-0.1,0.1-0.2,0.1-0.4,0.1C121,51.2,120.9,51.1,120.8,51z"/>
						<path class="st0" d="M131.2,44.3c0.1,0.1,0.1,0.2,0.1,0.4v6c0,0.2,0,0.3-0.1,0.4c-0.1,0.1-0.2,0.1-0.3,0.1
							c-0.1,0-0.2,0-0.3-0.1c-0.1-0.1-0.1-0.2-0.1-0.4v-4.6l-1.9,3.7c-0.1,0.2-0.3,0.3-0.5,0.3c-0.2,0-0.4-0.1-0.5-0.3l-1.9-3.6v4.5
							c0,0.2,0,0.3-0.1,0.4c-0.1,0.1-0.2,0.1-0.3,0.1c-0.1,0-0.2,0-0.3-0.1c-0.1-0.1-0.1-0.2-0.1-0.3v-6c0-0.2,0-0.3,0.1-0.4
							c0.1-0.1,0.2-0.1,0.4-0.1c0.2,0,0.4,0.1,0.5,0.4l2.4,4.5l2.3-4.5c0.1-0.2,0.3-0.4,0.5-0.4C131,44.1,131.1,44.2,131.2,44.3z"/>
						<path class="st0" d="M134.5,51c-0.1-0.1-0.1-0.2-0.1-0.4v-6c0-0.2,0-0.3,0.1-0.4c0.1-0.1,0.2-0.1,0.4-0.1h3.6
							c0.2,0,0.3,0,0.3,0.1c0.1,0.1,0.1,0.2,0.1,0.3s0,0.2-0.1,0.3c-0.1,0.1-0.2,0.1-0.3,0.1h-3.1v2.2h2.9c0.2,0,0.3,0,0.3,0.1
							c0.1,0.1,0.1,0.2,0.1,0.3c0,0.1,0,0.2-0.1,0.3c-0.1,0.1-0.2,0.1-0.3,0.1h-2.9v2.3h3.1c0.3,0,0.5,0.1,0.5,0.4
							c0,0.1,0,0.2-0.1,0.3c-0.1,0.1-0.2,0.1-0.3,0.1h-3.6C134.7,51.1,134.6,51.1,134.5,51z"/>
						<path class="st0" d="M147.1,44.3c0.1,0.1,0.1,0.2,0.1,0.4v6c0,0.2,0,0.3-0.1,0.4c-0.1,0.1-0.2,0.1-0.4,0.1
							c-0.2,0-0.3-0.1-0.4-0.2l-3.9-5.1v4.8c0,0.2,0,0.3-0.1,0.4c-0.1,0.1-0.2,0.1-0.3,0.1c-0.1,0-0.3,0-0.3-0.1
							c-0.1-0.1-0.1-0.2-0.1-0.4v-6c0-0.2,0-0.3,0.1-0.4c0.1-0.1,0.2-0.1,0.4-0.1c0.2,0,0.3,0.1,0.4,0.2l3.9,5.1v-4.8
							c0-0.2,0-0.3,0.1-0.4c0.1-0.1,0.2-0.1,0.3-0.1C146.9,44.1,147,44.2,147.1,44.3z"/>
						<path class="st0" d="M152,51c-0.1-0.1-0.1-0.2-0.1-0.4V45h-2c-0.3,0-0.5-0.1-0.5-0.4c0-0.1,0-0.2,0.1-0.3
							c0.1-0.1,0.2-0.1,0.3-0.1h5c0.2,0,0.3,0,0.3,0.1s0.1,0.2,0.1,0.3c0,0.3-0.2,0.4-0.5,0.4h-2v5.6c0,0.2,0,0.3-0.1,0.4
							c-0.1,0.1-0.2,0.1-0.4,0.1C152.2,51.2,152.1,51.1,152,51z"/>
						<path class="st0" d="M158.4,50.7c-0.5-0.3-0.9-0.7-1.1-1.2c-0.3-0.5-0.4-1.2-0.4-1.9c0-0.7,0.1-1.4,0.4-1.9
							c0.3-0.5,0.6-0.9,1.1-1.2c0.5-0.3,1.1-0.4,1.7-0.4c0.7,0,1.2,0.1,1.7,0.4c0.5,0.3,0.9,0.7,1.1,1.2c0.3,0.5,0.4,1.2,0.4,1.9
							c0,0.7-0.1,1.4-0.4,1.9c-0.3,0.5-0.6,0.9-1.1,1.2c-0.5,0.3-1.1,0.4-1.7,0.4C159.4,51.2,158.9,51,158.4,50.7z M161.7,49.6
							c0.4-0.5,0.6-1.1,0.6-2c0-0.9-0.2-1.5-0.6-2c-0.4-0.5-0.9-0.7-1.6-0.7c-0.7,0-1.2,0.2-1.6,0.7c-0.4,0.5-0.6,1.1-0.6,2
							c0,0.9,0.2,1.5,0.6,2c0.4,0.5,0.9,0.7,1.6,0.7C160.8,50.4,161.3,50.1,161.7,49.6z"/>
						<path class="st0" d="M166.9,51c-0.4-0.1-0.8-0.3-1.1-0.6c-0.1-0.1-0.2-0.2-0.2-0.4c0-0.1,0-0.2,0.1-0.3
							c0.1-0.1,0.1-0.1,0.2-0.1c0.1,0,0.2,0,0.3,0.1c0.6,0.4,1.2,0.6,2,0.6c0.5,0,0.9-0.1,1.2-0.3c0.3-0.2,0.4-0.5,0.4-0.8
							c0-0.3-0.1-0.5-0.4-0.6c-0.3-0.1-0.7-0.3-1.3-0.4c-0.6-0.1-1-0.3-1.4-0.4c-0.4-0.2-0.6-0.4-0.8-0.6c-0.2-0.3-0.3-0.6-0.3-1
							c0-0.4,0.1-0.8,0.3-1.1c0.2-0.3,0.5-0.6,0.9-0.7c0.4-0.2,0.8-0.3,1.3-0.3c0.5,0,0.9,0.1,1.3,0.2c0.4,0.1,0.7,0.3,1,0.6
							c0.1,0.1,0.2,0.2,0.2,0.4c0,0.1,0,0.2-0.1,0.3c-0.1,0.1-0.1,0.1-0.2,0.1c-0.1,0-0.2,0-0.3-0.1c-0.3-0.2-0.6-0.4-0.9-0.5
							c-0.3-0.1-0.6-0.2-1-0.2c-0.5,0-0.9,0.1-1.2,0.3c-0.3,0.2-0.4,0.5-0.4,0.9c0,0.3,0.1,0.6,0.4,0.7c0.2,0.2,0.6,0.3,1.2,0.4
							c0.6,0.1,1,0.3,1.4,0.4s0.6,0.3,0.9,0.6c0.2,0.2,0.3,0.6,0.3,0.9c0,0.4-0.1,0.7-0.3,1c-0.2,0.3-0.5,0.5-0.9,0.7
							c-0.4,0.2-0.9,0.3-1.4,0.3C167.9,51.2,167.4,51.1,166.9,51z"/>
						<path class="st0" d="M78.1,62.8c-0.1-0.1-0.1-0.2-0.1-0.4v-6c0-0.2,0-0.3,0.1-0.4c0.1-0.1,0.2-0.1,0.4-0.1h3.6
							c0.2,0,0.3,0,0.3,0.1s0.1,0.2,0.1,0.3s0,0.2-0.1,0.3c-0.1,0.1-0.2,0.1-0.3,0.1h-3.1V59h2.9c0.2,0,0.3,0,0.3,0.1
							c0.1,0.1,0.1,0.2,0.1,0.3s0,0.2-0.1,0.3c-0.1,0.1-0.2,0.1-0.3,0.1h-2.9v2.3h3.1c0.3,0,0.5,0.1,0.5,0.4c0,0.1,0,0.2-0.1,0.3
							c-0.1,0.1-0.2,0.1-0.3,0.1h-3.6C78.3,62.9,78.2,62.9,78.1,62.8z"/>
						<path class="st0" d="M89.2,62.8c-0.1-0.1-0.1-0.2-0.1-0.4v-6c0-0.2,0-0.3,0.1-0.4c0.1-0.1,0.2-0.1,0.4-0.1h2.4
							c0.7,0,1.3,0.2,1.7,0.5c0.4,0.4,0.6,0.9,0.6,1.5c0,0.7-0.2,1.2-0.6,1.5c-0.4,0.4-1,0.6-1.7,0.6h-1.9v2.3c0,0.2,0,0.3-0.1,0.4
							c-0.1,0.1-0.2,0.1-0.4,0.1C89.4,63,89.3,62.9,89.2,62.8z M91.8,59.3c1,0,1.5-0.4,1.5-1.3c0-0.8-0.5-1.3-1.5-1.3h-1.8v2.5H91.8
							z"/>
						<path class="st0" d="M102.3,62.5c0,0.1-0.1,0.2-0.2,0.3c-0.1,0.1-0.2,0.1-0.3,0.1c-0.1,0-0.2,0-0.2-0.1
							c-0.1,0-0.1-0.1-0.2-0.2l-0.6-1.5h-3.6l-0.6,1.5c0,0.1-0.1,0.2-0.2,0.2c-0.1,0-0.2,0.1-0.2,0.1c-0.1,0-0.2,0-0.3-0.1
							c-0.1-0.1-0.2-0.2-0.2-0.3c0-0.1,0-0.1,0-0.2l2.8-6.1c0-0.1,0.1-0.2,0.2-0.2c0.1-0.1,0.2-0.1,0.3-0.1s0.2,0,0.3,0.1
							c0.1,0.1,0.2,0.1,0.2,0.2l2.8,6.1C102.3,62.4,102.3,62.5,102.3,62.5z M97.5,60.4h2.9l-1.4-3.3L97.5,60.4z"/>
						<path class="st0" d="M110.2,62.6c0,0.1,0,0.2-0.1,0.3c-0.1,0.1-0.2,0.1-0.3,0.1c-0.2,0-0.3-0.1-0.4-0.2l-1.3-2
							c-0.2-0.2-0.3-0.4-0.5-0.5c-0.2-0.1-0.4-0.1-0.7-0.1h-1.1v2.4c0,0.2,0,0.3-0.1,0.4c-0.1,0.1-0.2,0.1-0.4,0.1
							c-0.2,0-0.3,0-0.4-0.1c-0.1-0.1-0.1-0.2-0.1-0.4v-6c0-0.2,0-0.3,0.1-0.4c0.1-0.1,0.2-0.1,0.4-0.1h2.5c0.8,0,1.4,0.2,1.8,0.5
							c0.4,0.3,0.6,0.8,0.6,1.5c0,0.5-0.2,1-0.5,1.3c-0.3,0.3-0.7,0.6-1.3,0.6c0.2,0,0.3,0.1,0.5,0.2c0.1,0.1,0.3,0.3,0.4,0.5l1,1.6
							C110.2,62.4,110.2,62.5,110.2,62.6z M107.6,59.2c0.5,0,0.9-0.1,1.1-0.3c0.2-0.2,0.4-0.5,0.4-0.9c0-0.4-0.1-0.7-0.4-0.9
							c-0.2-0.2-0.6-0.3-1.1-0.3h-1.8v2.4H107.6z"/>
						<path class="st0" d="M114.5,62.8c-0.1-0.1-0.1-0.2-0.1-0.4v-5.6h-2c-0.3,0-0.5-0.1-0.5-0.4c0-0.1,0-0.2,0.1-0.3
							c0.1-0.1,0.2-0.1,0.3-0.1h5c0.2,0,0.3,0,0.3,0.1c0.1,0.1,0.1,0.2,0.1,0.3c0,0.3-0.2,0.4-0.5,0.4h-2v5.6c0,0.2,0,0.3-0.1,0.4
							c-0.1,0.1-0.2,0.1-0.4,0.1C114.7,63,114.6,62.9,114.5,62.8z"/>
						<path class="st0" d="M120.2,62.8c-0.1-0.1-0.1-0.2-0.1-0.4v-6c0-0.2,0-0.3,0.1-0.4c0.1-0.1,0.2-0.1,0.4-0.1
							c0.2,0,0.3,0,0.4,0.1c0.1,0.1,0.1,0.2,0.1,0.4v6c0,0.2,0,0.3-0.1,0.4c-0.1,0.1-0.2,0.1-0.4,0.1
							C120.4,63,120.3,62.9,120.2,62.8z"/>
						<path class="st0" d="M125.3,62.6c-0.5-0.3-0.9-0.7-1.1-1.2c-0.3-0.5-0.4-1.2-0.4-1.9c0-0.7,0.1-1.3,0.4-1.9
							c0.3-0.5,0.6-0.9,1.1-1.2c0.5-0.3,1.1-0.4,1.7-0.4c0.4,0,0.8,0.1,1.2,0.2c0.4,0.1,0.7,0.3,1,0.6c0.1,0.1,0.2,0.2,0.2,0.4
							c0,0.1,0,0.2-0.1,0.3c-0.1,0.1-0.1,0.1-0.2,0.1c-0.1,0-0.2,0-0.3-0.1c-0.3-0.2-0.6-0.4-0.9-0.5c-0.3-0.1-0.6-0.1-0.9-0.1
							c-0.7,0-1.3,0.2-1.7,0.7c-0.4,0.5-0.6,1.1-0.6,2c0,0.9,0.2,1.6,0.6,2c0.4,0.5,0.9,0.7,1.7,0.7c0.3,0,0.6,0,0.9-0.1
							c0.3-0.1,0.6-0.3,0.9-0.5c0.1-0.1,0.2-0.1,0.3-0.1c0.1,0,0.2,0,0.2,0.1c0.1,0.1,0.1,0.2,0.1,0.3c0,0.2-0.1,0.3-0.2,0.4
							c-0.3,0.3-0.6,0.5-1,0.6c-0.4,0.1-0.8,0.2-1.2,0.2C126.4,63,125.8,62.8,125.3,62.6z"/>
						<path class="st0" d="M132.2,62.8c-0.1-0.1-0.1-0.2-0.1-0.4v-6c0-0.2,0-0.3,0.1-0.4c0.1-0.1,0.2-0.1,0.4-0.1
							c0.2,0,0.3,0,0.4,0.1c0.1,0.1,0.1,0.2,0.1,0.4v6c0,0.2,0,0.3-0.1,0.4s-0.2,0.1-0.4,0.1C132.4,63,132.3,62.9,132.2,62.8z"/>
						<path class="st0" d="M136.2,62.8c-0.1-0.1-0.1-0.2-0.1-0.4v-6c0-0.2,0-0.3,0.1-0.4c0.1-0.1,0.2-0.1,0.4-0.1h2.4
							c0.7,0,1.3,0.2,1.7,0.5c0.4,0.4,0.6,0.9,0.6,1.5c0,0.7-0.2,1.2-0.6,1.5c-0.4,0.4-1,0.6-1.7,0.6h-1.9v2.3c0,0.2,0,0.3-0.1,0.4
							c-0.1,0.1-0.2,0.1-0.4,0.1C136.4,63,136.3,62.9,136.2,62.8z M138.8,59.3c1,0,1.5-0.4,1.5-1.3c0-0.8-0.5-1.3-1.5-1.3h-1.8v2.5
							H138.8z"/>
						<path class="st0" d="M149.3,62.5c0,0.1-0.1,0.2-0.2,0.3c-0.1,0.1-0.2,0.1-0.3,0.1c-0.1,0-0.2,0-0.2-0.1
							c-0.1,0-0.1-0.1-0.2-0.2l-0.6-1.5h-3.6l-0.6,1.5c0,0.1-0.1,0.2-0.2,0.2c-0.1,0-0.2,0.1-0.2,0.1c-0.1,0-0.2,0-0.3-0.1
							c-0.1-0.1-0.2-0.2-0.2-0.3c0-0.1,0-0.1,0-0.2l2.8-6.1c0-0.1,0.1-0.2,0.2-0.2c0.1-0.1,0.2-0.1,0.3-0.1c0.1,0,0.2,0,0.3,0.1
							c0.1,0.1,0.2,0.1,0.2,0.2l2.8,6.1C149.3,62.4,149.3,62.5,149.3,62.5z M144.5,60.4h2.9l-1.4-3.3L144.5,60.4z"/>
						<path class="st0" d="M156.9,61.5c0.1,0.1,0.1,0.2,0.1,0.3c0,0.2-0.1,0.3-0.2,0.4c-0.3,0.2-0.6,0.4-0.9,0.6
							c-0.4,0.1-0.7,0.2-1.1,0.2l0,0.4c0.1,0,0.2,0,0.2,0c0.2,0,0.4,0.1,0.5,0.2c0.1,0.1,0.2,0.3,0.2,0.5c0,0.2-0.1,0.4-0.3,0.6
							c-0.2,0.2-0.5,0.2-0.9,0.2c-0.3,0-0.5,0-0.7-0.1c-0.1,0-0.2-0.1-0.2-0.2c0-0.1,0-0.1,0.1-0.2c0.1-0.1,0.1-0.1,0.2,0
							c0.2,0.1,0.4,0.1,0.6,0.1c0.2,0,0.3,0,0.4-0.1c0.1-0.1,0.1-0.1,0.1-0.2c0-0.1,0-0.1-0.1-0.2c0,0-0.1-0.1-0.2-0.1
							c-0.1,0-0.2,0-0.3,0c-0.1,0-0.2,0-0.2,0c-0.1,0-0.1,0-0.1-0.1c0,0-0.1-0.1-0.1-0.1l0.1-0.7c-0.6-0.1-1.1-0.2-1.5-0.5
							c-0.4-0.3-0.8-0.7-1-1.2s-0.3-1.1-0.3-1.8c0-0.7,0.1-1.3,0.4-1.9c0.3-0.5,0.6-0.9,1.1-1.2c0.5-0.3,1.1-0.4,1.7-0.4
							c0.4,0,0.8,0.1,1.2,0.2c0.4,0.1,0.7,0.3,1,0.6c0.1,0.1,0.2,0.2,0.2,0.4c0,0.1,0,0.2-0.1,0.3c-0.1,0.1-0.1,0.1-0.2,0.1
							c-0.1,0-0.2,0-0.3-0.1c-0.3-0.2-0.6-0.4-0.9-0.5c-0.3-0.1-0.6-0.1-0.9-0.1c-0.7,0-1.3,0.2-1.7,0.7c-0.4,0.5-0.6,1.1-0.6,2
							c0,0.9,0.2,1.6,0.6,2c0.4,0.5,0.9,0.7,1.7,0.7c0.3,0,0.6,0,0.9-0.1c0.3-0.1,0.6-0.3,0.9-0.5c0.1-0.1,0.2-0.1,0.3-0.1
							C156.7,61.4,156.8,61.4,156.9,61.5z"/>
						<path class="st0" d="M160.7,62.6c-0.5-0.3-0.9-0.7-1.1-1.2c-0.3-0.5-0.4-1.2-0.4-1.9c0-0.7,0.1-1.4,0.4-1.9
							c0.3-0.5,0.6-0.9,1.1-1.2c0.5-0.3,1.1-0.4,1.7-0.4c0.7,0,1.2,0.1,1.7,0.4c0.5,0.3,0.9,0.7,1.1,1.2c0.3,0.5,0.4,1.2,0.4,1.9
							c0,0.7-0.1,1.4-0.4,1.9c-0.3,0.5-0.6,0.9-1.1,1.2c-0.5,0.3-1.1,0.4-1.7,0.4C161.8,63,161.2,62.8,160.7,62.6z M164,61.5
							c0.4-0.5,0.6-1.1,0.6-2c0-0.9-0.2-1.5-0.6-2c-0.4-0.5-0.9-0.7-1.6-0.7c-0.7,0-1.2,0.2-1.6,0.7c-0.4,0.5-0.6,1.1-0.6,2
							c0,0.9,0.2,1.5,0.6,2c0.4,0.5,0.9,0.7,1.6,0.7C163.1,62.2,163.7,61.9,164,61.5z M161.2,55c-0.1-0.1-0.2-0.2-0.2-0.4
							c0-0.2,0.1-0.3,0.2-0.4c0.1-0.1,0.2-0.1,0.4-0.1c0.2,0,0.3,0.1,0.4,0.2c0.1,0.1,0.2,0.2,0.2,0.4s-0.1,0.3-0.2,0.4
							c-0.1,0.1-0.2,0.1-0.4,0.1C161.4,55.2,161.3,55.1,161.2,55z M162.9,55c-0.1-0.1-0.2-0.2-0.2-0.4s0.1-0.3,0.2-0.4
							c0.1-0.1,0.2-0.2,0.4-0.2c0.2,0,0.3,0,0.4,0.1c0.1,0.1,0.2,0.2,0.2,0.4c0,0.2-0.1,0.3-0.2,0.4c-0.1,0.1-0.2,0.1-0.4,0.1
							C163.1,55.2,163,55.1,162.9,55z"/>
						<path class="st0" d="M168.5,62.8c-0.1-0.1-0.1-0.2-0.1-0.4v-6c0-0.2,0-0.3,0.1-0.4c0.1-0.1,0.2-0.1,0.4-0.1h3.6
							c0.2,0,0.3,0,0.3,0.1c0.1,0.1,0.1,0.2,0.1,0.3s0,0.2-0.1,0.3c-0.1,0.1-0.2,0.1-0.3,0.1h-3.1V59h2.9c0.2,0,0.3,0,0.3,0.1
							c0.1,0.1,0.1,0.2,0.1,0.3s0,0.2-0.1,0.3c-0.1,0.1-0.2,0.1-0.3,0.1h-2.9v2.3h3.1c0.3,0,0.5,0.1,0.5,0.4c0,0.1,0,0.2-0.1,0.3
							c-0.1,0.1-0.2,0.1-0.3,0.1h-3.6C168.8,62.9,168.6,62.9,168.5,62.8z"/>
						<path class="st0" d="M176.3,62.8c-0.4-0.1-0.8-0.3-1.1-0.6c-0.1-0.1-0.2-0.2-0.2-0.4c0-0.1,0-0.2,0.1-0.3
							c0.1-0.1,0.1-0.1,0.2-0.1c0.1,0,0.2,0,0.3,0.1c0.6,0.4,1.2,0.6,2,0.6c0.5,0,0.9-0.1,1.2-0.3c0.3-0.2,0.4-0.5,0.4-0.8
							c0-0.3-0.1-0.5-0.4-0.6c-0.3-0.1-0.7-0.3-1.3-0.4c-0.6-0.1-1-0.3-1.4-0.4c-0.4-0.2-0.6-0.4-0.8-0.6c-0.2-0.3-0.3-0.6-0.3-1
							c0-0.4,0.1-0.8,0.3-1.1c0.2-0.3,0.5-0.6,0.9-0.7c0.4-0.2,0.8-0.3,1.3-0.3c0.5,0,0.9,0.1,1.3,0.2c0.4,0.1,0.7,0.3,1,0.6
							c0.1,0.1,0.2,0.2,0.2,0.4c0,0.1,0,0.2-0.1,0.3c-0.1,0.1-0.1,0.1-0.2,0.1c-0.1,0-0.2,0-0.3-0.1c-0.3-0.2-0.6-0.4-0.9-0.5
							c-0.3-0.1-0.6-0.2-1-0.2c-0.5,0-0.9,0.1-1.2,0.3c-0.3,0.2-0.4,0.5-0.4,0.9c0,0.3,0.1,0.6,0.4,0.7c0.2,0.2,0.6,0.3,1.2,0.4
							c0.6,0.1,1,0.3,1.4,0.4s0.6,0.3,0.9,0.6c0.2,0.2,0.3,0.6,0.3,0.9c0,0.4-0.1,0.7-0.3,1c-0.2,0.3-0.5,0.5-0.9,0.7
							c-0.4,0.2-0.9,0.3-1.4,0.3C177.2,63,176.8,62.9,176.3,62.8z"/>
					</g>
				</g>
				<g>
					<path class="st1" d="M80.6,37.8c-0.3,0.1-0.6,0.1-0.9,0.1c-1.2,0-1.7-0.5-1.7-1.5V13.7c0.1-0.1,0.3-0.1,0.6-0.2
						c0.3-0.1,0.6-0.1,0.9-0.1c1.1,0,1.7,0.5,1.7,1.5v22.7C81.1,37.7,80.9,37.7,80.6,37.8z"/>
					<path class="st1" d="M94.4,37.2c-0.3-0.3-0.5-0.7-0.5-1.3V15.3c0-0.5,0.2-1,0.5-1.3c0.3-0.3,0.7-0.5,1.3-0.5h13.2
						c0.1,0.1,0.2,0.3,0.2,0.5c0.1,0.2,0.1,0.5,0.1,0.7c0,0.4-0.1,0.8-0.3,1.1c-0.2,0.3-0.5,0.4-0.9,0.4H97.1V24h10.5
						c0.1,0.1,0.2,0.3,0.2,0.5c0.1,0.2,0.1,0.5,0.1,0.7c0,0.4-0.1,0.8-0.3,1.1c-0.2,0.3-0.5,0.4-0.9,0.4h-9.6V35H109
						c0.1,0.1,0.2,0.3,0.2,0.5c0.1,0.2,0.1,0.5,0.1,0.8c0,0.4-0.1,0.8-0.3,1.1c-0.2,0.3-0.5,0.4-0.9,0.4H95.6
						C95.1,37.7,94.7,37.5,94.4,37.2z"/>
					<path class="st1" d="M123.7,29.1v8.5c-0.2,0.1-0.4,0.1-0.6,0.2c-0.3,0.1-0.6,0.1-0.9,0.1c-1.2,0-1.7-0.5-1.7-1.5V15.3
						c0-0.4,0.1-0.7,0.3-1c0.2-0.2,0.5-0.4,1-0.5c0.8-0.2,1.7-0.4,2.8-0.5c1.1-0.1,2.2-0.2,3.2-0.2c3.4,0,5.8,0.7,7.4,2.1
						c1.5,1.4,2.3,3.3,2.3,5.7c0,2.5-0.8,4.4-2.4,5.9c-1.6,1.5-4,2.2-7.3,2.2H123.7z M127.5,26.4c2.1,0,3.8-0.4,4.9-1.3
						c1.2-0.9,1.7-2.2,1.7-4c0-1.8-0.6-3.1-1.7-3.9c-1.1-0.8-2.7-1.2-4.8-1.2c-0.7,0-1.4,0-2.1,0.1c-0.7,0.1-1.3,0.2-1.9,0.3v10.2
						H127.5z"/>
				</g>
			</g>
		</g>
		<path class="st0" d="M56.5,44.7c-1.4-5.9-5.2-11.1-10.5-14.1c0,0-0.1-0.1-0.1-0.1c3.6-2.6,6.1-6.3,7.1-10.7
			c0.1-0.3-0.1-0.7-0.4-0.8c-4.9-1.5-10.1-0.9-14.6,1.7c-0.7,0.4-1.4,0.9-2,1.3c0.1-0.8,0.2-1.6,0.2-2.4c0-0.2,0-0.3,0-0.5
			c0.2-0.1,0.5-0.3,0.7-0.4c5-2.9,10.9-3.6,16.4-1.9c0.3,0.1,0.7-0.1,0.8-0.4c0.1-0.3-0.1-0.7-0.4-0.8c-5.8-1.8-12.2-1-17.5,2
			c0,0-0.1,0.1-0.1,0.1c-0.5-4.4-2.5-8.4-5.7-11.5c-0.3-0.2-0.6-0.2-0.9,0c-3.8,3.5-5.8,8.3-5.8,13.5c0,0.8,0.1,1.6,0.2,2.4
			c-0.6-0.5-1.3-0.9-2-1.3c-0.1-0.1-0.3-0.2-0.4-0.2c0-0.3,0-0.5,0-0.8c0-5.7,2.4-11.3,6.6-15.2c0.3-0.2,0.3-0.7,0-0.9
			c-0.2-0.3-0.7-0.3-0.9,0c-4.4,4.2-7,10-7,16.1c0,0.1,0,0.1,0,0.2c-2.8-1.2-5.9-1.8-9-1.5c0,0,0,0-0.1,0c-1.3,0.1-2.5,0.3-3.8,0.7
			c-0.3,0.1-0.5,0.4-0.4,0.8c1.2,5,4.3,9.2,8.8,11.8c0.7,0.4,1.4,0.8,2.2,1.1c-0.7,0.3-1.5,0.7-2.2,1.1c-0.1,0.1-0.3,0.2-0.4,0.3
			c-0.2-0.1-0.5-0.3-0.7-0.4c-5-2.9-8.5-7.7-9.9-13.3c-0.1-0.4-0.4-0.6-0.8-0.5c-0.4,0.1-0.6,0.4-0.5,0.8
			c1.4,5.9,5.2,11.1,10.5,14.1c0,0,0.1,0,0.1,0.1c-3.6,2.6-6.1,6.3-7.1,10.7c-0.1,0.3,0.1,0.7,0.4,0.8c1.8,0.5,3.6,0.8,5.4,0.8
			c3.2,0,6.3-0.8,9.2-2.5c0.7-0.4,1.4-0.9,2-1.3c-0.1,0.8-0.2,1.6-0.2,2.4c0,0.2,0,0.3,0,0.5c-0.2,0.1-0.5,0.3-0.7,0.4
			c-5,2.9-10.9,3.6-16.4,1.9c-0.3-0.1-0.7,0.1-0.8,0.4c-0.1,0.3,0.1,0.7,0.4,0.8c2.1,0.6,4.2,0.9,6.4,0.9c3.9,0,7.7-1,11.1-3
			c0,0,0.1-0.1,0.1-0.1c0.5,4.4,2.5,8.4,5.7,11.5c0.1,0.1,0.3,0.2,0.4,0.2c0.2,0,0.3-0.1,0.4-0.2c3.7-3.5,5.8-8.4,5.8-13.5
			c0-0.8-0.1-1.6-0.2-2.4c0.6,0.5,1.3,0.9,2,1.3c0.1,0.1,0.3,0.2,0.4,0.2c0,0.3,0,0.5,0,0.8c0,5.7-2.4,11.3-6.6,15.2
			c-0.3,0.2-0.3,0.7,0,0.9c0.1,0.1,0.3,0.2,0.5,0.2c0.2,0,0.3-0.1,0.4-0.2c4.4-4.2,7-10,7-16.1c0-0.1,0-0.1,0-0.2
			c2.4,1,4.9,1.6,7.5,1.6c0.5,0,1,0,1.5-0.1c0,0,0,0,0,0c0,0,0.1,0,0.1,0c1.3-0.1,2.5-0.3,3.8-0.7c0.3-0.1,0.5-0.4,0.4-0.8
			c-1.2-5-4.4-9.3-8.8-11.8c-0.7-0.4-1.4-0.8-2.2-1.1c0.7-0.3,1.5-0.7,2.2-1.1c0.1-0.1,0.3-0.2,0.4-0.3c0.2,0.1,0.5,0.3,0.7,0.4
			c5,2.9,8.5,7.7,9.9,13.3c0.1,0.3,0.3,0.5,0.6,0.5c0,0,0.1,0,0.1,0C56.4,45.4,56.6,45,56.5,44.7z M38.6,21.8c4-2.3,8.6-2.9,13-1.7
			c-0.2,0.8-0.5,1.6-0.8,2.4c-3.6-0.2-7.2,0.6-10.4,2.4c-1.1,0.6-2.1,1.4-3,2.2c-0.5-1.1-1.5-1.9-2.7-2.1
			C35.8,23.7,37.1,22.7,38.6,21.8z M29.7,38.9c-5.6-4.2-7-8.1-6.5-10.4c0.3-1.2,1.1-2,2.2-2.2c0.2,0,0.4,0,0.5,0
			c2.3,0,3.1,3,3.2,3.2c0.1,0.3,0.3,0.5,0.6,0.5c0.3,0,0.5-0.2,0.6-0.4c0,0,1.3-3.7,4-3.2c1.1,0.2,1.8,1,2.1,2.1
			C36.9,30.7,35.4,34.7,29.7,38.9z M34.8,19.6c0,1.3-0.1,2.5-0.4,3.7c-0.6,0.5-1.1,1.1-1.5,1.7c-0.7,0.2-1.4,0.6-1.9,1.1
			c-0.8-2.1-1.3-4.3-1.3-6.5c0-3.2,0.9-6.3,2.6-9C33.9,13.3,34.8,16.4,34.8,19.6z M29.8,7.5c0.6,0.6,1.1,1.2,1.6,1.9
			c-2,3-3.1,6.5-3.1,10.2c0,2.6,0.6,5.2,1.7,7.6c-0.1,0.1-0.2,0.3-0.3,0.4c-0.7-1.4-2.1-2.8-4.1-2.7c-0.6-1.7-0.9-3.5-0.9-5.3
			C24.8,15,26.6,10.7,29.8,7.5z M21,21.8c1.1,0.6,2.1,1.4,3,2.2c0.1,0.4,0.2,0.8,0.4,1.2c-1.1,0.4-1.9,1.3-2.3,2.5
			c-1.2-0.4-2.5-0.9-3.6-1.5c-2.8-1.6-5-3.9-6.5-6.7C15.1,19.4,18.2,20.2,21,21.8z M16,30.4c-4-2.3-6.8-6-8-10.4
			c0.8-0.2,1.7-0.4,2.5-0.5c1.6,3.3,4.1,5.9,7.3,7.8c1.3,0.7,2.6,1.3,4,1.7c0,0.8,0.1,2.1,0.7,3.6C20.3,32.3,18.1,31.6,16,30.4z
			 M15.3,35.3C15.3,35.3,15.3,35.3,15.3,35.3c0.3-0.2,0.5-0.3,0.7-0.4c1.1-0.6,2.3-1.1,3.5-1.5c1.2,0.3,2.5,0.6,3.7,0.7
			c0.1,0.3,0.3,0.5,0.5,0.8c-1.4,1.8-3.1,3.4-5.1,4.5c-2.8,1.6-5.9,2.4-9.1,2.3C10.9,39,12.8,36.9,15.3,35.3z M21,43.5
			c-4,2.3-8.6,2.9-13,1.7c0.2-0.8,0.5-1.6,0.8-2.4c0.4,0,0.8,0,1.1,0c3.2,0,6.4-0.8,9.2-2.5c2-1.2,3.8-2.7,5.3-4.6
			c0.6,0.7,1.3,1.5,2.2,2.3C25.3,40.3,23.3,42.1,21,43.5z M24.8,45.6c0-1.3,0.1-2.5,0.4-3.7C26.1,41,27,40,27.7,39
			c0.4,0.3,0.8,0.7,1.3,1c0.6,1.8,1,3.7,1,5.7c0,3.2-0.9,6.3-2.6,9C25.7,52,24.8,48.9,24.8,45.6z M29.8,57.8
			c-0.6-0.6-1.1-1.2-1.6-1.9c2-3,3.1-6.5,3.1-10.2c0-1.9-0.3-3.8-0.9-5.6c1-0.7,1.8-1.4,2.6-2.2c1.2,2.4,1.8,5,1.8,7.7
			C34.8,50.2,33,54.5,29.8,57.8z M38.6,43.5c-1.1-0.6-2.1-1.4-3-2.2c-0.4-1.5-0.9-2.9-1.6-4.3c0-0.1,0.1-0.1,0.1-0.2
			c2.5,0.2,4.9,1,7.1,2.2c2.8,1.6,5,3.9,6.5,6.7C44.5,45.9,41.4,45.1,38.6,43.5z M43.6,34.8c4,2.3,6.8,6,8,10.4
			c-0.8,0.2-1.7,0.4-2.5,0.5c-1.6-3.3-4.1-5.9-7.3-7.8c-2.1-1.2-4.3-2-6.7-2.3c0.8-1,1.4-2,1.9-3c1,0.1,2,0.3,3,0.6c0,0,0,0,0,0
			C41.2,33.6,42.4,34.1,43.6,34.8z M43.6,30.4c-1.1,0.6-2.2,1.1-3.4,1.5c-0.9-0.3-1.8-0.4-2.7-0.6c0.3-1.1,0.4-2.1,0.3-2.9
			c1-0.9,2.1-1.8,3.3-2.5c2.8-1.6,5.9-2.4,9.1-2.3C48.6,26.5,46.4,28.8,43.6,30.4z"/>
	</g>
</g>
</svg>
