<?xml version="1.0" encoding="utf-8"?>
<!-- Generator: Adobe Illustrator 22.1.0, SVG Export Plug-In . SVG Version: 6.00 Build 0)  -->
<svg version="1.1" id="Capa_1" xmlns="http://www.w3.org/2000/svg" xmlns:xlink="http://www.w3.org/1999/xlink" x="0px" y="0px"
	 viewBox="0 0 202.1 68.1" style="enable-background:new 0 0 202.1 68.1;" xml:space="preserve">
<style type="text/css">
	.st0{fill:#5D5C60;}
	.st1{fill:#1172B6;}
	.st2{fill:#FFFFFF;}
</style>
<g>
	<g>
		<g>
			<g>
				<g>
					<g>
						<path class="st0" d="M81.9,35.4H71.3c-0.2,0.5-0.4,1.1-0.6,1.7c-0.2,0.6-0.4,1.2-0.6,1.8c-0.2,0.6-0.4,1.1-0.6,1.7
							c-0.2,0.5-0.3,0.9-0.4,1.3c-0.4,0.2-0.8,0.2-1.3,0.2c-0.4,0-0.8-0.1-1.1-0.3c-0.3-0.2-0.5-0.6-0.5-1.1c0-0.2,0-0.5,0.1-0.7
							c0.1-0.3,0.2-0.5,0.3-0.8c0.4-1.1,0.9-2.5,1.5-4.3c0.6-1.7,1.3-3.6,2-5.6c0.7-2,1.5-3.9,2.2-5.9c0.8-2,1.4-3.8,2.1-5.4
							c0.2-0.1,0.5-0.2,0.9-0.3c0.4-0.1,0.9-0.2,1.3-0.2c0.5,0,1,0.1,1.5,0.2c0.5,0.2,0.8,0.4,0.9,0.8c0.6,1.5,1.3,3.3,2,5.2
							c0.7,2,1.5,4,2.2,6c0.7,2.1,1.4,4.1,2.1,6.1c0.7,2,1.3,3.8,1.8,5.4c-0.2,0.2-0.5,0.4-0.8,0.6s-0.6,0.2-1,0.2
							c-0.5,0-0.9-0.1-1.1-0.3c-0.3-0.2-0.5-0.6-0.7-1.1L81.9,35.4z M76.6,20.2c-0.3,0.8-0.6,1.7-1,2.7c-0.4,1-0.8,2.1-1.1,3.2
							c-0.4,1.1-0.8,2.2-1.2,3.4c-0.4,1.1-0.8,2.2-1.1,3.2H81c-0.4-1.2-0.8-2.4-1.2-3.6c-0.4-1.2-0.8-2.4-1.2-3.5
							c-0.4-1.1-0.7-2.1-1.1-3.1c-0.3-0.9-0.6-1.7-0.8-2.4H76.6z"/>
						<path class="st0" d="M92.4,41.3c-0.3-0.3-0.5-0.7-0.5-1.3V17.8c0.1-0.1,0.3-0.1,0.6-0.2c0.3-0.1,0.6-0.1,0.9-0.1
							c1.2,0,1.7,0.5,1.7,1.5v20h11.4c0.3,0.3,0.4,0.7,0.4,1.3c0,0.4-0.1,0.8-0.4,1.1c-0.2,0.3-0.6,0.4-0.9,0.4h-12
							C93.1,41.8,92.7,41.6,92.4,41.3z"/>
						<path class="st0" d="M128.1,20.4c0,0.4-0.1,0.7-0.3,0.9c-0.2,0.3-0.5,0.5-0.8,0.6c-0.7-0.5-1.5-0.9-2.4-1.3
							c-0.9-0.4-2.1-0.6-3.6-0.6c-1.2,0-2.3,0.2-3.4,0.6c-1,0.4-1.9,1-2.7,1.9c-0.8,0.8-1.4,1.8-1.8,3.1c-0.4,1.2-0.7,2.7-0.7,4.3
							c0,1.6,0.2,3.1,0.6,4.3c0.4,1.2,1,2.2,1.8,3c0.8,0.8,1.7,1.4,2.7,1.8c1.1,0.4,2.2,0.6,3.5,0.6c1.4,0,2.6-0.2,3.6-0.6
							c1-0.4,1.9-0.8,2.6-1.4c0.3,0.1,0.5,0.3,0.8,0.6c0.2,0.3,0.4,0.6,0.4,1c0,0.6-0.3,1.1-0.9,1.5c-0.6,0.4-1.4,0.8-2.5,1.1
							c-1.1,0.3-2.4,0.5-4,0.5c-1.7,0-3.2-0.3-4.6-0.8c-1.4-0.5-2.7-1.3-3.7-2.4c-1-1-1.9-2.3-2.5-3.9c-0.6-1.6-0.9-3.4-0.9-5.5
							c0-2.1,0.3-3.9,0.9-5.5c0.6-1.6,1.5-2.9,2.5-3.9c1.1-1.1,2.3-1.8,3.7-2.4c1.4-0.5,2.9-0.8,4.5-0.8c1.1,0,2.1,0.1,3,0.3
							c0.9,0.2,1.7,0.4,2.3,0.7c0.6,0.3,1.1,0.6,1.5,1C127.9,19.6,128.1,20,128.1,20.4z"/>
						<path class="st0" d="M148,35.4h-10.6c-0.2,0.5-0.4,1.1-0.6,1.7c-0.2,0.6-0.4,1.2-0.6,1.8c-0.2,0.6-0.4,1.1-0.6,1.7
							c-0.2,0.5-0.3,0.9-0.4,1.3c-0.4,0.2-0.8,0.2-1.3,0.2c-0.4,0-0.8-0.1-1.1-0.3c-0.3-0.2-0.5-0.6-0.5-1.1c0-0.2,0-0.5,0.1-0.7
							c0.1-0.3,0.2-0.5,0.3-0.8c0.4-1.1,0.9-2.5,1.5-4.3c0.6-1.7,1.3-3.6,2-5.6c0.7-2,1.5-3.9,2.2-5.9c0.8-2,1.4-3.8,2.1-5.4
							c0.2-0.1,0.5-0.2,0.9-0.3c0.4-0.1,0.9-0.2,1.3-0.2c0.5,0,1,0.1,1.5,0.2c0.5,0.2,0.8,0.4,0.9,0.8c0.6,1.5,1.3,3.3,2,5.2
							c0.7,2,1.5,4,2.2,6c0.7,2.1,1.4,4.1,2.1,6.1c0.7,2,1.3,3.8,1.8,5.4c-0.2,0.2-0.5,0.4-0.8,0.6s-0.6,0.2-1,0.2
							c-0.5,0-0.9-0.1-1.1-0.3c-0.3-0.2-0.5-0.6-0.7-1.1L148,35.4z M142.7,20.2c-0.3,0.8-0.6,1.7-1,2.7c-0.4,1-0.8,2.1-1.1,3.2
							c-0.4,1.1-0.8,2.2-1.2,3.4c-0.4,1.1-0.8,2.2-1.1,3.2h8.9c-0.4-1.2-0.8-2.4-1.2-3.6c-0.4-1.2-0.8-2.4-1.2-3.5
							c-0.4-1.1-0.7-2.1-1.1-3.1c-0.3-0.9-0.6-1.7-0.8-2.4H142.7z"/>
						<path class="st0" d="M172.6,35.4H162c-0.2,0.5-0.4,1.1-0.6,1.7c-0.2,0.6-0.4,1.2-0.6,1.8c-0.2,0.6-0.4,1.1-0.6,1.7
							c-0.2,0.5-0.3,0.9-0.4,1.3c-0.4,0.2-0.8,0.2-1.3,0.2c-0.4,0-0.8-0.1-1.1-0.3c-0.3-0.2-0.5-0.6-0.5-1.1c0-0.2,0-0.5,0.1-0.7
							c0.1-0.3,0.2-0.5,0.3-0.8c0.4-1.1,0.9-2.5,1.5-4.3c0.6-1.7,1.3-3.6,2-5.6c0.7-2,1.5-3.9,2.2-5.9c0.8-2,1.4-3.8,2.1-5.4
							c0.2-0.1,0.5-0.2,0.9-0.3c0.4-0.1,0.9-0.2,1.3-0.2c0.5,0,1,0.1,1.5,0.2c0.5,0.2,0.8,0.4,0.9,0.8c0.6,1.5,1.3,3.3,2,5.2
							c0.7,2,1.5,4,2.2,6c0.7,2.1,1.4,4.1,2.1,6.1c0.7,2,1.3,3.8,1.8,5.4c-0.2,0.2-0.5,0.4-0.8,0.6s-0.6,0.2-1,0.2
							c-0.5,0-0.9-0.1-1.1-0.3c-0.3-0.2-0.5-0.6-0.7-1.1L172.6,35.4z M167.3,20.2c-0.3,0.8-0.6,1.7-1,2.7c-0.4,1-0.8,2.1-1.1,3.2
							c-0.4,1.1-0.8,2.2-1.2,3.4c-0.4,1.1-0.8,2.2-1.1,3.2h8.9c-0.4-1.2-0.8-2.4-1.2-3.6c-0.4-1.2-0.8-2.4-1.2-3.5
							c-0.4-1.1-0.7-2.1-1.1-3.1c-0.3-0.9-0.6-1.7-0.8-2.4H167.3z"/>
						<path class="st0" d="M183.1,41.3c-0.3-0.3-0.5-0.7-0.5-1.3V17.8c0.1-0.1,0.3-0.1,0.6-0.2c0.3-0.1,0.6-0.1,0.9-0.1
							c1.2,0,1.7,0.5,1.7,1.5v20h11.4c0.3,0.3,0.4,0.7,0.4,1.3c0,0.4-0.1,0.8-0.4,1.1c-0.2,0.3-0.6,0.4-0.9,0.4h-12
							C183.8,41.8,183.4,41.6,183.1,41.3z"/>
					</g>
				</g>
			</g>
		</g>
		<g>
			<path class="st1" d="M28.3,56.2c-5.2,0-9.5-4.2-9.5-9.5c0-1.8,0.5-3.5,1.4-5c0,0,0-0.1,0-0.1l7.4-11.4c0.1-0.2,0.3-0.3,0.5-0.3
				c0,0,0,0,0,0c0.2,0,0.4,0.1,0.5,0.3l7.5,11.4c0,0,0,0.1,0,0.1c1,1.5,1.5,3.3,1.5,5C37.8,51.9,33.5,56.2,28.3,56.2z M21.5,42.2
				C21.5,42.2,21.4,42.3,21.5,42.2c-0.9,1.4-1.3,2.9-1.3,4.5c0,4.5,3.7,8.2,8.2,8.2c4.5,0,8.2-3.7,8.2-8.2c0-1.6-0.4-3.1-1.3-4.4
				c0,0,0,0,0-0.1l-6.9-10.5L21.5,42.2z"/>
		</g>
		<g>
			<g>
				<path class="st2" d="M33.1,26.3c-3.3-0.6-4.8,3.7-4.8,3.7s-1.2-4.3-4.5-3.6c-4,0.8-5,7.4,4.5,14.3C37.8,33.8,37,27.1,33.1,26.3z
					"/>
				<path class="st1" d="M41.1,21.4c-0.2-6.9-5.9-12.5-12.8-12.5c-7,0-12.6,5.6-12.8,12.5c-7,0.1-12.7,5.8-12.7,12.8
					c0,7,5.7,12.8,12.7,12.8c0.4,6.7,6,12.1,12.8,12.1c6.8,0,12.4-5.4,12.8-12.1c7-0.1,12.6-5.8,12.6-12.8
					C53.8,27.2,48.1,21.5,41.1,21.4z M28.3,10.2c6.3,0,11.4,5,11.5,11.2c-0.7,0.1-1.4,0.2-2.1,0.4c0-0.1,0-0.2,0-0.3
					c0-5.2-4.2-9.5-9.5-9.5s-9.5,4.2-9.5,9.5c0,0.1,0,0.2,0,0.3c-0.7-0.2-1.4-0.3-2.1-0.4C16.9,15.2,22,10.2,28.3,10.2z M36.5,29.8
					c0-0.4,0-0.7-0.1-1c-0.1-0.4-0.2-0.7-0.4-1.1l0.5-0.3c0,0,0.1,0,0.1,0c0.7-0.5,1.5-0.8,2.4-1C38.3,27.7,37.5,28.8,36.5,29.8z
					 M33.9,36.3c2.3,1.3,4.2,3.4,5.2,5.9c-0.9-0.2-1.8-0.6-2.5-1.1c0,0-0.1,0-0.1,0l-4.3-2.8C32.8,37.6,33.4,36.9,33.9,36.3z
					 M28.3,39.9c-5.7-4.2-7.2-8.2-6.6-10.6c0.3-1.2,1.1-2,2.3-2.3c0.2,0,0.4-0.1,0.5-0.1c2.3,0,3.2,3.1,3.2,3.2
					c0.1,0.3,0.3,0.5,0.6,0.5c0.3,0,0.5-0.2,0.6-0.4c0,0,1.3-3.8,4.1-3.3c1.1,0.2,1.9,1,2.1,2.1C35.6,31.5,34.1,35.5,28.3,39.9z
					 M24.4,38.3l-4.2,2.8c0,0-0.1,0-0.1,0c-0.8,0.5-1.7,0.9-2.6,1.1c1-2.5,2.8-4.6,5.1-5.9C23.2,37,23.7,37.6,24.4,38.3z M20.3,29
					c0,0.2-0.1,0.5-0.1,0.9c-1-1-1.9-2.2-2.5-3.6c0.9,0.2,1.7,0.6,2.4,1c0,0,0.1,0,0.1,0l0.6,0.4C20.6,28.2,20.4,28.6,20.3,29z
					 M17.2,24.9c-0.2-0.7-0.3-1.4-0.4-2.1c0.7,0.1,1.5,0.2,2.2,0.4c0.2,0.9,0.4,1.7,0.8,2.5C19,25.3,18.1,25,17.2,24.9z M35.2,25.9
					C35.1,26,35.1,26,35.2,25.9l-0.3,0.5c-0.5-0.4-1-0.6-1.6-0.7c0.9-0.8,1.8-1.4,2.9-1.9C35.9,24.5,35.6,25.3,35.2,25.9z
					 M31.3,25.7c-1.4,0.4-2.4,1.5-3,2.6c-0.6-1.1-1.6-2.3-3.1-2.6c-1.4-1.5-3.1-2.7-5-3.5c0-0.2,0-0.5,0-0.7c0-4.5,3.7-8.2,8.2-8.2
					c4.5,0,8.2,3.7,8.2,8.2c0,0.2,0,0.5,0,0.7C34.4,23,32.7,24.2,31.3,25.7z M21.5,26C21.5,26,21.4,26,21.5,26
					c-0.5-0.7-0.8-1.5-1-2.2c1.1,0.5,2.1,1.2,3,2c-0.6,0.1-1.1,0.4-1.6,0.8L21.5,26z M36.8,25.8c0.4-0.8,0.7-1.7,0.8-2.5
					c0.7-0.2,1.4-0.4,2.2-0.4c-0.1,0.7-0.2,1.4-0.4,2.1C38.5,25.1,37.6,25.3,36.8,25.8z M15.5,45.8C9.2,45.7,4.1,40.6,4.1,34.3
					c0-6.3,5.1-11.5,11.4-11.5c0.1,0.7,0.2,1.4,0.3,2.1c0,0-0.1,0-0.1,0c-5.2,0-9.5,4.2-9.5,9.5c0,5.2,4.2,9.5,9.5,9.5
					C15.6,44.4,15.5,45.1,15.5,45.8z M15.7,42.4c-4.5,0-8.2-3.7-8.2-8.2c0-4.5,3.7-8.2,8.2-8.2c0.2,0,0.3,0,0.5,0
					c0.8,2.3,2.3,4.3,4.2,5.8c0.2,1,0.7,2.1,1.5,3.4c-2.7,1.6-4.8,4.1-5.8,7.1C16,42.4,15.9,42.4,15.7,42.4z M17.1,43.6
					c1.3-0.2,2.5-0.6,3.7-1.4c0,0,0.1,0,0.1,0l4.5-3c0.1,0.1,0.3,0.2,0.4,0.4c-1.8,3.3-5.1,5.7-9,6.1C16.8,45,16.9,44.3,17.1,43.6z
					 M28.3,57.9c-6.1,0-11.2-4.8-11.5-10.9c4.3-0.4,8.1-3,10.1-6.6c0.3,0.3,0.7,0.5,1,0.8c0.1,0.1,0.2,0.1,0.4,0.1
					c0.1,0,0.3,0,0.4-0.1c0.4-0.3,0.7-0.5,1-0.8c2,3.7,5.8,6.2,10.1,6.6C39.4,53.1,34.4,57.9,28.3,57.9z M30.7,39.6
					c0.1-0.1,0.3-0.3,0.4-0.4l4.7,3c0,0,0.1,0,0.1,0c1.1,0.7,2.3,1.1,3.6,1.3c0.2,0.7,0.3,1.4,0.3,2.1C35.8,45.4,32.5,43,30.7,39.6z
					 M34.6,35.2c0.8-1.2,1.3-2.4,1.6-3.4c1.9-1.5,3.3-3.4,4.2-5.7c0.2,0,0.4,0,0.5,0c4.5,0,8.2,3.7,8.2,8.2c0,4.5-3.7,8.2-8.2,8.2
					c-0.1,0-0.3,0-0.4,0C39.5,39.3,37.4,36.8,34.6,35.2z M41.1,45.8c0-0.7-0.1-1.4-0.2-2.1c0,0,0,0,0,0c5.2,0,9.5-4.2,9.5-9.5
					s-4.2-9.5-9.5-9.5c0,0-0.1,0-0.1,0c0.2-0.7,0.3-1.4,0.3-2.1c6.3,0.1,11.4,5.2,11.4,11.5C52.4,40.5,47.4,45.7,41.1,45.8z"/>
			</g>
		</g>
		<g>
			<g>
				<path class="st1" d="M105.9,57.1c0,0.2-0.1,0.3-0.2,0.4c-0.1,0.1-0.3,0.2-0.4,0.2c-0.2,0-0.4-0.1-0.6-0.3l-1.7-2.7
					c-0.2-0.3-0.4-0.5-0.6-0.7c-0.2-0.1-0.5-0.2-0.9-0.2l-1.5,0l0,3.2c0,0.2-0.1,0.4-0.2,0.5c-0.1,0.1-0.3,0.2-0.5,0.2
					c-0.2,0-0.4-0.1-0.5-0.2c-0.1-0.1-0.2-0.3-0.2-0.5l0-8c0-0.2,0.1-0.4,0.2-0.5c0.1-0.1,0.3-0.2,0.5-0.2l3.3,0
					c1,0,1.8,0.2,2.3,0.7c0.5,0.5,0.8,1.1,0.8,2c0,0.7-0.2,1.3-0.6,1.8c-0.4,0.4-1,0.7-1.8,0.9c0.2,0.1,0.4,0.2,0.6,0.3
					c0.2,0.2,0.4,0.4,0.5,0.7l1.3,2.1C105.8,56.9,105.9,57,105.9,57.1z M102.3,52.7c0.7,0,1.2-0.1,1.5-0.4c0.3-0.3,0.5-0.7,0.5-1.2
					c0-0.6-0.2-1-0.5-1.2c-0.3-0.3-0.8-0.4-1.5-0.4l-2.4,0l0,3.2L102.3,52.7z"/>
				<path class="st1" d="M109.6,57.4c-0.1-0.1-0.2-0.3-0.2-0.5l0-7.9c0-0.2,0.1-0.4,0.2-0.5c0.1-0.1,0.3-0.2,0.5-0.2l4.8,0
					c0.2,0,0.4,0,0.5,0.1c0.1,0.1,0.2,0.2,0.2,0.4c0,0.2-0.1,0.3-0.2,0.4c-0.1,0.1-0.3,0.1-0.5,0.1l-4.2,0l0,2.9l3.9,0
					c0.2,0,0.4,0,0.5,0.1s0.2,0.2,0.2,0.4c0,0.2-0.1,0.3-0.2,0.4c-0.1,0.1-0.3,0.1-0.5,0.1l-3.9,0l0,3l4.2,0c0.4,0,0.6,0.2,0.6,0.5
					c0,0.2-0.1,0.3-0.2,0.4c-0.1,0.1-0.3,0.1-0.5,0.1l-4.8,0C109.9,57.6,109.7,57.5,109.6,57.4z"/>
				<path class="st1" d="M126.9,57.1c0,0.2-0.1,0.3-0.2,0.4c-0.1,0.1-0.3,0.2-0.5,0.2c-0.1,0-0.2,0-0.3-0.1
					c-0.1-0.1-0.2-0.2-0.2-0.3l-0.9-2l-4.8,0l-0.9,2c-0.1,0.1-0.1,0.2-0.2,0.3c-0.1,0.1-0.2,0.1-0.3,0.1c-0.2,0-0.3-0.1-0.5-0.2
					c-0.1-0.1-0.2-0.3-0.2-0.4c0-0.1,0-0.2,0.1-0.3l3.7-8.1c0.1-0.1,0.2-0.2,0.3-0.3c0.1-0.1,0.3-0.1,0.4-0.1c0.1,0,0.3,0,0.4,0.1
					c0.1,0.1,0.2,0.2,0.3,0.3l3.7,8.1C126.9,57,126.9,57.1,126.9,57.1z M120.6,54.3l3.8,0l-1.9-4.3L120.6,54.3z"/>
				<path class="st1" d="M130.3,57.5c-0.1-0.1-0.2-0.3-0.2-0.5l0-8c0-0.2,0.1-0.4,0.2-0.5c0.1-0.1,0.3-0.2,0.5-0.2
					c0.2,0,0.4,0.1,0.5,0.2c0.1,0.1,0.2,0.3,0.2,0.5l0,7.5l4,0c0.2,0,0.4,0,0.5,0.1c0.1,0.1,0.2,0.2,0.2,0.4c0,0.2-0.1,0.3-0.2,0.4
					c-0.1,0.1-0.3,0.1-0.5,0.1l-4.7,0C130.6,57.7,130.5,57.6,130.3,57.5z"/>
				<path class="st1" d="M144.6,57.5c-0.1-0.1-0.2-0.3-0.2-0.5l0-7.9c0-0.2,0.1-0.4,0.2-0.5s0.3-0.2,0.5-0.2l4.8,0
					c0.2,0,0.4,0,0.5,0.1c0.1,0.1,0.2,0.2,0.2,0.4c0,0.2-0.1,0.3-0.2,0.4c-0.1,0.1-0.3,0.1-0.5,0.1l-4.2,0l0,2.9l3.9,0
					c0.2,0,0.4,0,0.5,0.1s0.2,0.2,0.2,0.4c0,0.2-0.1,0.3-0.2,0.4c-0.1,0.1-0.3,0.1-0.5,0.1l-3.9,0l0,3l4.2,0c0.4,0,0.6,0.2,0.6,0.5
					c0,0.2-0.1,0.3-0.2,0.4c-0.1,0.1-0.3,0.1-0.5,0.1l-4.8,0C144.9,57.7,144.7,57.6,144.6,57.5z"/>
				<path class="st1" d="M155,57.6c-0.6-0.2-1.1-0.4-1.4-0.8c-0.2-0.1-0.2-0.3-0.2-0.5c0-0.2,0-0.3,0.1-0.4c0.1-0.1,0.2-0.2,0.3-0.2
					c0.1,0,0.3,0.1,0.4,0.2c0.8,0.6,1.7,0.9,2.7,0.9c0.7,0,1.2-0.1,1.6-0.4c0.4-0.3,0.6-0.6,0.6-1.1c0-0.4-0.2-0.7-0.5-0.9
					c-0.3-0.2-0.9-0.4-1.7-0.6c-0.7-0.2-1.3-0.3-1.8-0.5c-0.5-0.2-0.8-0.5-1.1-0.8c-0.3-0.3-0.4-0.8-0.4-1.3c0-0.5,0.1-1,0.4-1.4
					c0.3-0.4,0.7-0.7,1.2-1c0.5-0.2,1.1-0.3,1.8-0.3c0.6,0,1.2,0.1,1.7,0.3c0.5,0.2,1,0.4,1.3,0.8c0.2,0.1,0.3,0.3,0.3,0.5
					c0,0.1,0,0.3-0.1,0.4c-0.1,0.1-0.2,0.2-0.3,0.2c-0.1,0-0.3-0.1-0.4-0.2c-0.4-0.3-0.8-0.5-1.1-0.7c-0.4-0.1-0.8-0.2-1.3-0.2
					c-0.7,0-1.2,0.1-1.6,0.4c-0.4,0.3-0.6,0.7-0.6,1.1c0,0.4,0.2,0.7,0.5,1c0.3,0.2,0.9,0.4,1.6,0.6c0.8,0.2,1.4,0.4,1.9,0.5
					c0.5,0.2,0.9,0.4,1.1,0.8c0.3,0.3,0.4,0.7,0.4,1.3c0,0.5-0.1,1-0.4,1.4c-0.3,0.4-0.7,0.7-1.2,0.9s-1.1,0.3-1.8,0.3
					C156.2,57.8,155.6,57.7,155,57.6z"/>
				<path class="st1" d="M166,57.6c-0.1-0.1-0.2-0.3-0.2-0.5l0-7.5l-2.6,0c-0.4,0-0.6-0.2-0.6-0.6c0-0.2,0.1-0.3,0.2-0.4
					c0.1-0.1,0.3-0.1,0.5-0.1l6.6,0c0.2,0,0.4,0,0.5,0.1c0.1,0.1,0.2,0.2,0.2,0.4c0,0.4-0.2,0.6-0.6,0.6l-2.6,0l0,7.5
					c0,0.2-0.1,0.4-0.2,0.5c-0.1,0.1-0.3,0.2-0.5,0.2C166.3,57.8,166.2,57.8,166,57.6z"/>
				<path class="st1" d="M180.5,57.3c0,0.2-0.1,0.3-0.2,0.4c-0.1,0.1-0.3,0.2-0.5,0.2c-0.1,0-0.2,0-0.3-0.1
					c-0.1-0.1-0.2-0.2-0.2-0.3l-0.9-2l-4.8,0l-0.9,2c-0.1,0.1-0.1,0.2-0.2,0.3c-0.1,0.1-0.2,0.1-0.3,0.1c-0.2,0-0.3-0.1-0.5-0.2
					c-0.1-0.1-0.2-0.3-0.2-0.4c0-0.1,0-0.2,0.1-0.3l3.7-8.1c0.1-0.1,0.2-0.2,0.3-0.3c0.1-0.1,0.3-0.1,0.4-0.1c0.1,0,0.3,0,0.4,0.1
					c0.1,0.1,0.2,0.2,0.3,0.3l3.7,8.1C180.5,57.1,180.5,57.2,180.5,57.3z M174.1,54.4l3.8,0l-1.9-4.3L174.1,54.4z"/>
				<path class="st1" d="M185,57.7c-0.1-0.1-0.2-0.3-0.2-0.5l0-7.5l-2.6,0c-0.4,0-0.6-0.2-0.6-0.6c0-0.2,0.1-0.3,0.2-0.4
					c0.1-0.1,0.3-0.1,0.5-0.1l6.6,0c0.2,0,0.4,0,0.5,0.1c0.1,0.1,0.2,0.2,0.2,0.4c0,0.4-0.2,0.6-0.6,0.6l-2.6,0l0,7.5
					c0,0.2-0.1,0.4-0.2,0.5s-0.3,0.2-0.5,0.2C185.3,57.9,185.1,57.8,185,57.7z"/>
				<path class="st1" d="M192.5,57.7c-0.1-0.1-0.2-0.3-0.2-0.5l0-7.9c0-0.2,0.1-0.4,0.2-0.5s0.3-0.2,0.5-0.2l4.8,0
					c0.2,0,0.4,0,0.5,0.1c0.1,0.1,0.2,0.2,0.2,0.4c0,0.2-0.1,0.3-0.2,0.4c-0.1,0.1-0.3,0.1-0.5,0.1l-4.2,0l0,2.9l3.9,0
					c0.2,0,0.4,0,0.5,0.1c0.1,0.1,0.2,0.2,0.2,0.4c0,0.2-0.1,0.3-0.2,0.4c-0.1,0.1-0.3,0.1-0.5,0.1l-3.9,0l0,3l4.2,0
					c0.4,0,0.6,0.2,0.6,0.5c0,0.2-0.1,0.3-0.2,0.4c-0.1,0.1-0.3,0.1-0.5,0.1l-4.8,0C192.8,57.8,192.6,57.8,192.5,57.7z"/>
			</g>
		</g>
	</g>
</g>
</svg>
