<?xml version="1.0" encoding="utf-8"?>
<!-- Generator: Adobe Illustrator 22.1.0, SVG Export Plug-In . SVG Version: 6.00 Build 0)  -->
<svg version="1.1" id="Capa_1" xmlns="http://www.w3.org/2000/svg" xmlns:xlink="http://www.w3.org/1999/xlink" x="0px" y="0px"
	 viewBox="0 0 271.8 72.4" style="enable-background:new 0 0 271.8 72.4;" xml:space="preserve">
<style type="text/css">
	.st0{fill:#FFFFFF;}
</style>
<g>
	<g>
		<g>
			<g>
				<g>
					<path class="st0" d="M110.4,38H95.9c-0.3,0.7-0.5,1.5-0.8,2.3c-0.3,0.8-0.6,1.7-0.8,2.5c-0.3,0.8-0.5,1.6-0.8,2.3
						c-0.3,0.7-0.4,1.3-0.6,1.7c-0.5,0.2-1.1,0.3-1.8,0.3c-0.6,0-1.1-0.2-1.5-0.5c-0.4-0.3-0.7-0.8-0.7-1.5c0-0.3,0.1-0.7,0.2-1
						c0.1-0.3,0.2-0.7,0.4-1.1c0.5-1.5,1.2-3.4,2.1-5.8c0.8-2.4,1.8-4.9,2.7-7.6c1-2.7,2-5.4,3-8.1c1-2.7,2-5.1,2.8-7.3
						c0.3-0.1,0.7-0.3,1.3-0.4c0.6-0.1,1.2-0.2,1.8-0.2c0.7,0,1.4,0.1,2.1,0.3c0.7,0.2,1.1,0.6,1.3,1.1c0.9,2.1,1.8,4.5,2.8,7.1
						c1,2.7,2,5.4,3,8.2c1,2.8,2,5.6,2.9,8.3c0.9,2.7,1.7,5.2,2.4,7.3c-0.3,0.3-0.6,0.6-1,0.8c-0.4,0.2-0.8,0.3-1.3,0.3
						c-0.7,0-1.2-0.2-1.6-0.5c-0.4-0.3-0.7-0.8-0.9-1.5L110.4,38z M103.2,17.4c-0.4,1.1-0.8,2.3-1.3,3.7c-0.5,1.4-1,2.8-1.6,4.3
						c-0.5,1.5-1.1,3-1.6,4.6c-0.5,1.5-1,3-1.5,4.4h12.1c-0.5-1.6-1.1-3.2-1.7-4.9c-0.6-1.6-1.1-3.2-1.6-4.7c-0.5-1.5-1-2.9-1.5-4.2
						c-0.4-1.3-0.8-2.4-1.1-3.3H103.2z"/>
					<path class="st0" d="M124.7,46.1c-0.4-0.4-0.7-1-0.7-1.7V14.1c0.2-0.1,0.5-0.2,0.8-0.2c0.4-0.1,0.8-0.1,1.2-0.1
						c1.6,0,2.4,0.7,2.4,2v27.2h15.5c0.4,0.4,0.6,1,0.6,1.8c0,0.6-0.2,1.1-0.5,1.5c-0.3,0.4-0.8,0.5-1.3,0.5h-16.3
						C125.7,46.7,125.1,46.5,124.7,46.1z"/>
					<path class="st0" d="M173.3,17.6c0,0.5-0.2,0.9-0.5,1.3c-0.3,0.4-0.7,0.6-1.1,0.8c-0.9-0.6-2-1.3-3.3-1.8
						c-1.3-0.6-2.9-0.9-4.9-0.9c-1.7,0-3.2,0.3-4.6,0.9c-1.4,0.6-2.6,1.4-3.7,2.5c-1,1.1-1.9,2.5-2.4,4.2c-0.6,1.7-0.9,3.6-0.9,5.8
						c0,2.2,0.3,4.2,0.9,5.8c0.6,1.7,1.4,3,2.4,4.1c1,1.1,2.3,1.9,3.7,2.5c1.4,0.6,3,0.8,4.8,0.8c1.9,0,3.5-0.3,4.9-0.8
						c1.4-0.5,2.5-1.1,3.5-1.9c0.4,0.1,0.7,0.4,1,0.8c0.3,0.4,0.5,0.8,0.5,1.3c0,0.8-0.4,1.4-1.3,2c-0.8,0.6-2,1.1-3.4,1.5
						c-1.4,0.4-3.3,0.7-5.5,0.7c-2.3,0-4.4-0.4-6.3-1.1c-1.9-0.7-3.6-1.8-5-3.2c-1.4-1.4-2.5-3.2-3.4-5.3c-0.8-2.1-1.2-4.6-1.2-7.4
						c0-2.8,0.4-5.3,1.3-7.5c0.8-2.1,2-3.9,3.4-5.4c1.4-1.4,3.1-2.5,5-3.2c1.9-0.7,3.9-1.1,6.1-1.1c1.5,0,2.8,0.1,4.1,0.4
						c1.2,0.3,2.3,0.6,3.2,1c0.9,0.4,1.6,0.9,2,1.4C173,16.6,173.3,17.1,173.3,17.6z"/>
					<path class="st0" d="M200.3,38h-14.4c-0.3,0.7-0.5,1.5-0.8,2.3c-0.3,0.8-0.6,1.7-0.8,2.5c-0.3,0.8-0.5,1.6-0.8,2.3
						c-0.3,0.7-0.4,1.3-0.6,1.7c-0.5,0.2-1.1,0.3-1.8,0.3c-0.6,0-1.1-0.2-1.5-0.5c-0.4-0.3-0.7-0.8-0.7-1.5c0-0.3,0.1-0.7,0.2-1
						c0.1-0.3,0.2-0.7,0.4-1.1c0.5-1.5,1.2-3.4,2.1-5.8c0.8-2.4,1.8-4.9,2.7-7.6c1-2.7,2-5.4,3-8.1c1-2.7,2-5.1,2.8-7.3
						c0.3-0.1,0.7-0.3,1.3-0.4c0.6-0.1,1.2-0.2,1.8-0.2c0.7,0,1.4,0.1,2.1,0.3c0.7,0.2,1.1,0.6,1.3,1.1c0.9,2.1,1.8,4.5,2.8,7.1
						c1,2.7,2,5.4,3,8.2c1,2.8,2,5.6,2.9,8.3c0.9,2.7,1.7,5.2,2.4,7.3c-0.3,0.3-0.6,0.6-1,0.8c-0.4,0.2-0.8,0.3-1.3,0.3
						c-0.7,0-1.2-0.2-1.6-0.5c-0.4-0.3-0.7-0.8-0.9-1.5L200.3,38z M193.1,17.4c-0.4,1.1-0.8,2.3-1.3,3.7c-0.5,1.4-1,2.8-1.6,4.3
						c-0.5,1.5-1.1,3-1.6,4.6c-0.5,1.5-1,3-1.5,4.4h12.1c-0.5-1.6-1.1-3.2-1.7-4.9c-0.6-1.6-1.1-3.2-1.6-4.7c-0.5-1.5-1-2.9-1.5-4.2
						c-0.4-1.3-0.8-2.4-1.1-3.3H193.1z"/>
					<path class="st0" d="M233.8,38h-14.4c-0.3,0.7-0.5,1.5-0.8,2.3c-0.3,0.8-0.6,1.7-0.8,2.5c-0.3,0.8-0.5,1.6-0.8,2.3
						c-0.3,0.7-0.4,1.3-0.6,1.7c-0.5,0.2-1.1,0.3-1.8,0.3c-0.6,0-1.1-0.2-1.5-0.5c-0.4-0.3-0.7-0.8-0.7-1.5c0-0.3,0.1-0.7,0.2-1
						c0.1-0.3,0.2-0.7,0.4-1.1c0.5-1.5,1.2-3.4,2.1-5.8c0.8-2.4,1.8-4.9,2.7-7.6c1-2.7,2-5.4,3-8.1c1-2.7,2-5.1,2.8-7.3
						c0.3-0.1,0.7-0.3,1.3-0.4c0.6-0.1,1.2-0.2,1.8-0.2c0.7,0,1.4,0.1,2.1,0.3c0.7,0.2,1.1,0.6,1.3,1.1c0.9,2.1,1.8,4.5,2.8,7.1
						c1,2.7,2,5.4,3,8.2c1,2.8,2,5.6,2.9,8.3c0.9,2.7,1.7,5.2,2.4,7.3c-0.3,0.3-0.6,0.6-1,0.8c-0.4,0.2-0.8,0.3-1.3,0.3
						c-0.7,0-1.2-0.2-1.6-0.5c-0.4-0.3-0.7-0.8-0.9-1.5L233.8,38z M226.6,17.4c-0.4,1.1-0.8,2.3-1.3,3.7c-0.5,1.4-1,2.8-1.6,4.3
						c-0.5,1.5-1.1,3-1.6,4.6c-0.5,1.5-1,3-1.5,4.4h12.1c-0.5-1.6-1.1-3.2-1.7-4.9c-0.6-1.6-1.1-3.2-1.6-4.7c-0.5-1.5-1-2.9-1.5-4.2
						c-0.4-1.3-0.8-2.4-1.1-3.3H226.6z"/>
					<path class="st0" d="M248.1,46.1c-0.4-0.4-0.7-1-0.7-1.7V14.1c0.2-0.1,0.5-0.2,0.8-0.2c0.4-0.1,0.8-0.1,1.2-0.1
						c1.6,0,2.4,0.7,2.4,2v27.2h15.5c0.4,0.4,0.6,1,0.6,1.8c0,0.6-0.2,1.1-0.5,1.5c-0.3,0.4-0.8,0.5-1.3,0.5h-16.3
						C249.1,46.7,248.6,46.5,248.1,46.1z"/>
				</g>
			</g>
		</g>
	</g>
	<g>
		<g>
			<g>
				<path class="st0" d="M37.4,30.7c0,0,0-0.1,0.1-0.1c0,0,0,0,0,0c0,0,0,0,0,0c0,0,0,0-0.1,0C37.3,30.6,37.4,30.7,37.4,30.7z"/>
				<path class="st0" d="M48.4,46.6c0,0,0-0.1-0.1-0.1l-4.6-7c-0.4,0.5-0.8,0.9-1.2,1.4l4.2,6.5c0,0,0,0.1,0.1,0.1
					c1.2,1.8,1.8,3.9,1.8,6c0,6.1-5,11.1-11.1,11.1c-6.1,0-11.1-5-11.1-11.1c0-2.1,0.6-4.2,1.8-6c0,0,0-0.1,0.1-0.1l4.2-6.4
					c-0.4-0.5-0.9-0.9-1.2-1.4l-4.5,6.9c0,0,0,0.1-0.1,0.1c-1.3,2.1-2,4.4-2,6.8c0,7.1,5.8,12.9,12.9,12.9s12.9-5.8,12.9-12.9
					C50.3,51,49.7,48.6,48.4,46.6z"/>
			</g>
			<path class="st0" d="M54.9,19c-0.2-9.4-8-17-17.5-17C28,2,20.2,9.6,20,19c-9.5,0.1-17.3,7.9-17.3,17.5c0,9.6,7.7,17.4,17.3,17.5
				c0.5,9.2,8.1,16.5,17.4,16.5c9.3,0,16.9-7.3,17.4-16.5c9.5-0.1,17.2-7.9,17.2-17.5C72.1,26.9,64.4,19.2,54.9,19z M37.5,3.8
				c8.5,0,15.5,6.8,15.7,15.3c-1,0.1-1.9,0.2-2.8,0.5c0-0.1,0-0.3,0-0.4c0-7.1-5.8-12.9-12.9-12.9S24.6,12,24.6,19.2
				c0,0.1,0,0.3,0,0.4c-0.9-0.2-1.8-0.4-2.8-0.5C22,10.6,28.9,3.8,37.5,3.8z M48.6,30.5c0-0.5-0.1-1-0.2-1.4c-0.1-0.5-0.3-1-0.5-1.5
				l0.6-0.4c0,0,0.1,0,0.1-0.1c1-0.6,2.1-1.1,3.2-1.4C51.1,27.5,49.9,29.1,48.6,30.5z M45,39.3c3.2,1.8,5.7,4.6,7,8
				c-1.2-0.3-2.4-0.8-3.5-1.5c0,0-0.1,0-0.1-0.1L42.6,42C43.6,41,44.4,40.1,45,39.3z M37.4,44.1c-7.7-5.8-9.8-11.2-9-14.4
				c0.4-1.7,1.5-2.8,3.1-3.1c0.2,0,0.5-0.1,0.7-0.1c3.1,0,4.3,4.2,4.4,4.4c0.1,0.4,0.4,0.6,0.8,0.7c0.4,0,0.7-0.2,0.9-0.6
				c0-0.1,1.8-5.2,5.5-4.4c1.5,0.3,2.6,1.3,2.9,2.9C47.4,32.7,45.3,38.2,37.4,44.1z M32.2,42l-5.7,3.8c0,0-0.1,0-0.1,0.1
				c-1.1,0.7-2.3,1.2-3.5,1.5c1.3-3.4,3.8-6.2,7-8C30.5,40.2,31.3,41.1,32.2,42z M26.6,29.3c-0.1,0.3-0.1,0.7-0.2,1.3
				c-1.4-1.4-2.6-3-3.4-4.9c1.2,0.3,2.3,0.8,3.3,1.4c0,0,0.1,0,0.1,0.1l0.7,0.5C27,28.2,26.7,28.7,26.6,29.3z M22.4,23.7
				c-0.3-0.9-0.4-1.9-0.5-2.9c1,0.1,2,0.3,3,0.6c0.2,1.2,0.6,2.3,1.1,3.4C24.8,24.3,23.6,23.9,22.4,23.7z M46.8,25.1
				c0,0,0,0.1-0.1,0.1l-0.4,0.5c-0.6-0.5-1.4-0.8-2.2-1c1.2-1.1,2.5-1.9,4-2.6C47.8,23.2,47.4,24.2,46.8,25.1z M41.6,24.9
				c-1.9,0.6-3.3,2.1-4.1,3.6c-0.8-1.6-2.2-3.2-4.2-3.6c-1.9-2.1-4.2-3.7-6.8-4.7c0-0.3-0.1-0.7-0.1-1C26.3,13,31.3,8,37.5,8
				c6.1,0,11.1,5,11.1,11.1c0,0.3,0,0.6,0,1C45.8,21.1,43.5,22.8,41.6,24.9z M28.2,25.3c0,0,0-0.1-0.1-0.1c-0.6-0.9-1-1.9-1.3-2.9
				c1.5,0.7,2.8,1.6,4,2.7c-0.8,0.2-1.5,0.5-2.2,1L28.2,25.3z M49,24.9c0.6-1.1,0.9-2.3,1.2-3.5c1-0.3,1.9-0.5,3-0.6
				c-0.1,1-0.3,2-0.5,2.9C51.3,24,50.1,24.4,49,24.9z M20,52.2c-8.6-0.1-15.5-7.1-15.5-15.7c0-8.6,7-15.6,15.5-15.7
				c0.1,1,0.2,1.9,0.4,2.8c0,0-0.1,0-0.1,0c-7.1,0-12.9,5.8-12.9,12.9c0,7.1,5.8,12.9,12.9,12.9C20.2,50.3,20.1,51.2,20,52.2z
				 M20.8,47.6c-6.3,0.3-11.6-4.8-11.6-11.1c0-6.3,5.3-11.5,11.8-11.1c0,0,0,0,0,0c1.1,3.1,3.1,5.8,5.7,7.8c0.3,1.3,0.9,2.9,2,4.6
				C25,40,22.2,43.4,20.8,47.6C20.8,47.6,20.8,47.6,20.8,47.6z M22.2,49.2c1.8-0.3,3.5-0.9,5-1.8c0,0,0.1,0,0.1-0.1l6.2-4.1
				c-0.2,0.4,0.2,0.7,0.6,0.5c-2.4,4.5-6.9,7.8-12.3,8.3C21.8,51.1,22,50.2,22.2,49.2z M37.5,68.7c-8.3,0-15.2-6.6-15.7-14.8
				c5.9-0.5,11-4,13.7-9c0.4,0.3,0.9,0.7,1.4,1c0.2,0.1,0.3,0.2,0.5,0.2c0.2,0,0.4-0.1,0.5-0.2c0.5-0.4,0.9-0.7,1.4-1.1
				c2.7,5,7.8,8.5,13.8,9C52.6,62.1,45.8,68.7,37.5,68.7z M40.7,43.7c0.3,0.2,0.8-0.2,0.6-0.5l6.4,4.1c0,0,0.1,0,0.1,0.1
				c1.5,0.9,3.2,1.6,4.9,1.8c0.2,0.9,0.4,1.9,0.4,2.9C47.7,51.6,43.1,48.3,40.7,43.7z M46.1,37.8c1.1-1.6,1.8-3.2,2.1-4.6
				c2.5-2,4.5-4.7,5.7-7.8c0,0,0,0,0,0c6.5-0.4,11.8,4.7,11.8,11.1c0,6.3-5.3,11.4-11.6,11.1c0,0,0,0,0,0
				C52.7,43.4,49.8,40,46.1,37.8z M54.9,52.2c0-1-0.1-1.9-0.3-2.8c0,0,0,0,0.1,0c7.1,0,12.9-5.8,12.9-12.9s-5.8-12.9-12.9-12.9
				c-0.1,0-0.1,0-0.2,0c0.2-0.9,0.4-1.8,0.4-2.8c8.5,0.1,15.5,7.1,15.5,15.7C70.3,45,63.4,52,54.9,52.2z"/>
		</g>
	</g>
	<g>
		<g>
			<path class="st0" d="M143,67.6c0,0.2-0.1,0.4-0.3,0.5c-0.2,0.1-0.4,0.2-0.6,0.2c-0.3,0-0.6-0.2-0.8-0.4l-2.4-3.7
				c-0.3-0.4-0.6-0.7-0.9-0.9c-0.3-0.2-0.7-0.3-1.2-0.3l-2,0l0,4.3c0,0.3-0.1,0.5-0.2,0.7c-0.2,0.2-0.4,0.2-0.7,0.2
				c-0.3,0-0.5-0.1-0.7-0.3c-0.2-0.2-0.2-0.4-0.2-0.7l0-10.8c0-0.3,0.1-0.5,0.2-0.6c0.2-0.2,0.4-0.2,0.7-0.2l4.4,0
				c1.4,0,2.4,0.3,3.2,0.9c0.7,0.6,1.1,1.5,1.1,2.7c0,1-0.3,1.8-0.8,2.4c-0.6,0.6-1.4,1-2.4,1.2c0.3,0.1,0.6,0.2,0.8,0.4
				c0.2,0.2,0.5,0.5,0.7,0.9l1.8,2.9C143,67.2,143,67.4,143,67.6z M138.2,61.6c0.9,0,1.6-0.2,2.1-0.5c0.4-0.4,0.7-0.9,0.7-1.7
				c0-0.8-0.2-1.3-0.7-1.7c-0.4-0.4-1.1-0.5-2.1-0.5l-3.3,0l0,4.4L138.2,61.6z"/>
			<path class="st0" d="M148.1,68c-0.2-0.2-0.2-0.4-0.2-0.7l0-10.8c0-0.3,0.1-0.5,0.2-0.6c0.2-0.2,0.4-0.2,0.7-0.2l6.6,0
				c0.3,0,0.5,0.1,0.6,0.2c0.1,0.1,0.2,0.3,0.2,0.6c0,0.2-0.1,0.4-0.2,0.5c-0.1,0.1-0.4,0.2-0.6,0.2l-5.7,0l0,4l5.3,0
				c0.3,0,0.5,0.1,0.6,0.2s0.2,0.3,0.2,0.6c0,0.2-0.1,0.4-0.2,0.6c-0.1,0.1-0.4,0.2-0.6,0.2l-5.3,0l0,4.1l5.7,0
				c0.6,0,0.9,0.2,0.9,0.7c0,0.2-0.1,0.4-0.2,0.6c-0.1,0.1-0.4,0.2-0.6,0.2l-6.6,0C148.5,68.2,148.3,68.2,148.1,68z"/>
			<path class="st0" d="M171.7,67.6c0,0.2-0.1,0.4-0.3,0.6c-0.2,0.2-0.4,0.2-0.6,0.2c-0.2,0-0.3,0-0.4-0.1c-0.1-0.1-0.2-0.2-0.3-0.4
				l-1.2-2.7l-6.5,0l-1.2,2.7c-0.1,0.2-0.2,0.3-0.3,0.4c-0.1,0.1-0.3,0.1-0.4,0.1c-0.2,0-0.4-0.1-0.6-0.2c-0.2-0.2-0.3-0.3-0.3-0.6
				c0-0.1,0-0.2,0.1-0.4l5.1-11c0.1-0.2,0.2-0.3,0.4-0.4c0.2-0.1,0.4-0.2,0.6-0.2c0.2,0,0.4,0.1,0.6,0.2c0.2,0.1,0.3,0.3,0.4,0.4
				l5,11C171.7,67.4,171.7,67.5,171.7,67.6z M163,63.7l5.2,0l-2.6-5.9L163,63.7z"/>
			<path class="st0" d="M176.3,68.1c-0.2-0.2-0.2-0.4-0.2-0.6l0-10.9c0-0.3,0.1-0.5,0.3-0.7c0.2-0.2,0.4-0.3,0.7-0.3
				c0.3,0,0.5,0.1,0.7,0.3c0.2,0.2,0.2,0.4,0.2,0.7l0,10.2l5.4,0c0.3,0,0.5,0.1,0.6,0.2c0.1,0.1,0.2,0.3,0.2,0.6
				c0,0.2-0.1,0.4-0.2,0.6c-0.1,0.1-0.4,0.2-0.6,0.2l-6.4,0C176.7,68.3,176.5,68.2,176.3,68.1z"/>
			<path class="st0" d="M195.8,68.1c-0.2-0.2-0.2-0.4-0.2-0.7l0-10.8c0-0.3,0.1-0.5,0.2-0.6c0.2-0.2,0.4-0.2,0.7-0.2l6.6,0
				c0.3,0,0.5,0.1,0.6,0.2c0.1,0.1,0.2,0.3,0.2,0.6c0,0.2-0.1,0.4-0.2,0.5c-0.1,0.1-0.4,0.2-0.6,0.2l-5.7,0l0,4l5.3,0
				c0.3,0,0.5,0.1,0.6,0.2c0.1,0.1,0.2,0.3,0.2,0.6c0,0.2-0.1,0.4-0.2,0.6c-0.1,0.1-0.4,0.2-0.6,0.2l-5.3,0l0,4.1l5.7,0
				c0.6,0,0.9,0.2,0.9,0.7c0,0.2-0.1,0.4-0.2,0.6c-0.1,0.1-0.4,0.2-0.6,0.2l-6.6,0C196.1,68.4,195.9,68.3,195.8,68.1z"/>
			<path class="st0" d="M209.8,68.2c-0.8-0.3-1.5-0.6-1.9-1c-0.2-0.2-0.3-0.4-0.3-0.7c0-0.2,0.1-0.4,0.2-0.5
				c0.1-0.1,0.3-0.2,0.4-0.2c0.2,0,0.4,0.1,0.6,0.2c1.1,0.8,2.3,1.2,3.6,1.2c0.9,0,1.7-0.2,2.2-0.5c0.5-0.4,0.8-0.9,0.8-1.5
				c0-0.5-0.2-0.9-0.7-1.2c-0.5-0.3-1.2-0.5-2.3-0.8c-1-0.2-1.8-0.5-2.5-0.7c-0.6-0.3-1.1-0.6-1.5-1.1c-0.4-0.5-0.5-1.1-0.5-1.8
				c0-0.7,0.2-1.4,0.6-1.9c0.4-0.6,1-1,1.7-1.3c0.7-0.3,1.5-0.5,2.4-0.5c0.8,0,1.6,0.1,2.3,0.4c0.7,0.2,1.3,0.6,1.8,1.1
				c0.2,0.2,0.4,0.4,0.4,0.7c0,0.2-0.1,0.4-0.2,0.5c-0.1,0.2-0.3,0.2-0.4,0.2c-0.2,0-0.4-0.1-0.6-0.2c-0.5-0.4-1.1-0.7-1.5-0.9
				c-0.5-0.2-1.1-0.3-1.7-0.3c-0.9,0-1.6,0.2-2.1,0.6c-0.5,0.4-0.8,0.9-0.8,1.6c0,0.6,0.2,1,0.7,1.3c0.4,0.3,1.2,0.6,2.2,0.8
				c1,0.2,1.9,0.5,2.5,0.7c0.6,0.3,1.2,0.6,1.5,1.1c0.4,0.4,0.6,1,0.6,1.7c0,0.7-0.2,1.3-0.6,1.9c-0.4,0.6-1,1-1.7,1.3
				c-0.7,0.3-1.5,0.4-2.5,0.4C211.5,68.6,210.6,68.4,209.8,68.2z"/>
			<path class="st0" d="M224.9,68.3c-0.2-0.2-0.3-0.4-0.3-0.7l0-10.2l-3.6,0c-0.6,0-0.9-0.3-0.9-0.8c0-0.2,0.1-0.4,0.2-0.6
				c0.1-0.1,0.4-0.2,0.6-0.2l9,0c0.3,0,0.5,0.1,0.6,0.2c0.1,0.1,0.2,0.3,0.2,0.6c0,0.5-0.3,0.8-0.9,0.8l-3.6,0l0,10.2
				c0,0.3-0.1,0.5-0.3,0.7c-0.2,0.2-0.4,0.3-0.7,0.3C225.3,68.6,225.1,68.5,224.9,68.3z"/>
			<path class="st0" d="M244.6,67.8c0,0.2-0.1,0.4-0.3,0.6c-0.2,0.2-0.4,0.2-0.6,0.2c-0.2,0-0.3,0-0.4-0.1c-0.1-0.1-0.2-0.2-0.3-0.4
				l-1.2-2.7l-6.5,0l-1.2,2.7c-0.1,0.2-0.2,0.3-0.3,0.4c-0.1,0.1-0.3,0.1-0.4,0.1c-0.2,0-0.4-0.1-0.6-0.2c-0.2-0.2-0.3-0.3-0.3-0.6
				c0-0.1,0-0.2,0.1-0.4l5.1-11c0.1-0.2,0.2-0.3,0.4-0.4c0.2-0.1,0.4-0.2,0.6-0.2c0.2,0,0.4,0.1,0.6,0.2c0.2,0.1,0.3,0.3,0.4,0.4
				l5,11C244.5,67.6,244.6,67.7,244.6,67.8z M235.9,63.9l5.2,0l-2.6-5.9L235.9,63.9z"/>
			<path class="st0" d="M250.7,68.4c-0.2-0.2-0.3-0.4-0.3-0.7l0-10.2l-3.6,0c-0.6,0-0.9-0.3-0.9-0.8c0-0.2,0.1-0.4,0.2-0.6
				c0.1-0.1,0.4-0.2,0.6-0.2l9,0c0.3,0,0.5,0.1,0.6,0.2c0.1,0.1,0.2,0.3,0.2,0.6c0,0.5-0.3,0.8-0.9,0.8l-3.6,0l0,10.2
				c0,0.3-0.1,0.5-0.3,0.7c-0.2,0.2-0.4,0.3-0.7,0.3C251.1,68.6,250.9,68.5,250.7,68.4z"/>
			<path class="st0" d="M261,68.3c-0.2-0.2-0.2-0.4-0.2-0.7l0-10.8c0-0.3,0.1-0.5,0.2-0.6c0.2-0.2,0.4-0.2,0.7-0.2l6.6,0
				c0.3,0,0.5,0.1,0.6,0.2c0.1,0.1,0.2,0.3,0.2,0.6c0,0.2-0.1,0.4-0.2,0.5c-0.1,0.1-0.4,0.2-0.6,0.2l-5.7,0l0,4l5.3,0
				c0.3,0,0.5,0.1,0.6,0.2c0.1,0.1,0.2,0.3,0.2,0.6c0,0.2-0.1,0.4-0.2,0.6c-0.1,0.1-0.4,0.2-0.6,0.2l-5.3,0l0,4.1l5.7,0
				c0.6,0,0.9,0.2,0.9,0.7c0,0.2-0.1,0.4-0.2,0.6c-0.1,0.1-0.4,0.2-0.6,0.2l-6.6,0C261.3,68.6,261.1,68.5,261,68.3z"/>
		</g>
	</g>
</g>
</svg>
