<?xml version="1.0" encoding="utf-8"?>
<!-- Generator: Adobe Illustrator 22.1.0, SVG Export Plug-In . SVG Version: 6.00 Build 0)  -->
<svg version="1.1" id="Capa_1" xmlns="http://www.w3.org/2000/svg" xmlns:xlink="http://www.w3.org/1999/xlink" x="0px" y="0px"
	 viewBox="0 0 212.4 68.1" style="enable-background:new 0 0 212.4 68.1;" xml:space="preserve">
<style type="text/css">
	.st0{fill:#5D5C60;}
	.st1{fill:#31CAD9;}
</style>
<g>
	<g>
		<g>
			<g>
				<g>
					<g>
						<path class="st0" d="M89.3,32.8H78.5c-0.2,0.5-0.4,1.1-0.6,1.8c-0.2,0.6-0.4,1.2-0.6,1.9c-0.2,0.6-0.4,1.2-0.6,1.7
							c-0.2,0.5-0.3,1-0.4,1.3c-0.4,0.2-0.8,0.2-1.3,0.2c-0.4,0-0.8-0.1-1.1-0.3c-0.3-0.2-0.5-0.6-0.5-1.1c0-0.2,0-0.5,0.1-0.7
							c0.1-0.3,0.2-0.5,0.3-0.8c0.4-1.1,0.9-2.6,1.5-4.3c0.6-1.8,1.3-3.7,2.1-5.7c0.7-2,1.5-4,2.3-6c0.8-2,1.5-3.8,2.1-5.5
							c0.2-0.1,0.5-0.2,1-0.3c0.4-0.1,0.9-0.2,1.3-0.2c0.5,0,1.1,0.1,1.5,0.2c0.5,0.2,0.8,0.4,0.9,0.8c0.6,1.6,1.3,3.3,2.1,5.3
							c0.7,2,1.5,4,2.2,6.1c0.8,2.1,1.5,4.2,2.2,6.2c0.7,2,1.3,3.9,1.8,5.5c-0.2,0.2-0.5,0.4-0.8,0.6c-0.3,0.1-0.6,0.2-1,0.2
							c-0.5,0-0.9-0.1-1.2-0.3c-0.3-0.2-0.5-0.6-0.7-1.1L89.3,32.8z M83.9,17.4c-0.3,0.8-0.6,1.7-1,2.8c-0.4,1-0.8,2.1-1.2,3.2
							c-0.4,1.1-0.8,2.3-1.2,3.4c-0.4,1.2-0.8,2.3-1.1,3.3h9.1c-0.4-1.2-0.8-2.4-1.2-3.6c-0.4-1.2-0.8-2.4-1.2-3.5
							c-0.4-1.1-0.8-2.2-1.1-3.1c-0.3-1-0.6-1.8-0.8-2.4H83.9z"/>
						<path class="st0" d="M100,38.9c-0.3-0.3-0.5-0.8-0.5-1.3V14.9c0.1-0.1,0.3-0.1,0.6-0.2c0.3-0.1,0.6-0.1,0.9-0.1
							c1.2,0,1.8,0.5,1.8,1.5v20.4h11.6c0.3,0.3,0.4,0.7,0.4,1.3c0,0.5-0.1,0.8-0.4,1.1c-0.2,0.3-0.6,0.4-1,0.4h-12.2
							C100.7,39.3,100.3,39.2,100,38.9z"/>
						<path class="st0" d="M136.3,17.6c0,0.4-0.1,0.7-0.3,1c-0.2,0.3-0.5,0.5-0.8,0.6c-0.7-0.5-1.5-0.9-2.5-1.4
							c-0.9-0.4-2.2-0.6-3.7-0.6c-1.2,0-2.4,0.2-3.4,0.6c-1,0.4-2,1.1-2.7,1.9c-0.8,0.8-1.4,1.9-1.8,3.1c-0.4,1.3-0.7,2.7-0.7,4.3
							c0,1.7,0.2,3.1,0.6,4.3c0.4,1.2,1,2.3,1.8,3.1c0.8,0.8,1.7,1.5,2.8,1.9c1.1,0.4,2.3,0.6,3.6,0.6c1.4,0,2.6-0.2,3.6-0.6
							c1-0.4,1.9-0.9,2.6-1.4c0.3,0.1,0.5,0.3,0.8,0.6c0.2,0.3,0.4,0.6,0.4,1c0,0.6-0.3,1.1-1,1.5c-0.6,0.4-1.5,0.8-2.5,1.1
							c-1.1,0.3-2.4,0.5-4.1,0.5c-1.7,0-3.3-0.3-4.7-0.8c-1.4-0.5-2.7-1.3-3.8-2.4c-1.1-1.1-1.9-2.4-2.5-4c-0.6-1.6-0.9-3.4-0.9-5.6
							c0-2.1,0.3-4,0.9-5.6c0.6-1.6,1.5-2.9,2.6-4c1.1-1.1,2.3-1.9,3.8-2.4c1.4-0.5,2.9-0.8,4.5-0.8c1.1,0,2.1,0.1,3,0.3
							c0.9,0.2,1.7,0.4,2.4,0.7c0.7,0.3,1.2,0.7,1.5,1C136.1,16.8,136.3,17.2,136.3,17.6z"/>
						<path class="st0" d="M156.5,32.8h-10.8c-0.2,0.5-0.4,1.1-0.6,1.8c-0.2,0.6-0.4,1.2-0.6,1.9c-0.2,0.6-0.4,1.2-0.6,1.7
							c-0.2,0.5-0.3,1-0.4,1.3c-0.4,0.2-0.8,0.2-1.3,0.2c-0.4,0-0.8-0.1-1.1-0.3c-0.3-0.2-0.5-0.6-0.5-1.1c0-0.2,0-0.5,0.1-0.7
							c0.1-0.3,0.2-0.5,0.3-0.8c0.4-1.1,0.9-2.6,1.5-4.3c0.6-1.8,1.3-3.7,2.1-5.7c0.7-2,1.5-4,2.3-6c0.8-2,1.5-3.8,2.1-5.5
							c0.2-0.1,0.5-0.2,1-0.3c0.4-0.1,0.9-0.2,1.3-0.2c0.5,0,1.1,0.1,1.5,0.2c0.5,0.2,0.8,0.4,0.9,0.8c0.6,1.6,1.3,3.3,2.1,5.3
							c0.7,2,1.5,4,2.2,6.1c0.8,2.1,1.5,4.2,2.2,6.2c0.7,2,1.3,3.9,1.8,5.5c-0.2,0.2-0.5,0.4-0.8,0.6c-0.3,0.1-0.6,0.2-1,0.2
							c-0.5,0-0.9-0.1-1.2-0.3c-0.3-0.2-0.5-0.6-0.7-1.1L156.5,32.8z M151.2,17.4c-0.3,0.8-0.6,1.7-1,2.8c-0.4,1-0.8,2.1-1.2,3.2
							c-0.4,1.1-0.8,2.3-1.2,3.4c-0.4,1.2-0.8,2.3-1.1,3.3h9.1c-0.4-1.2-0.8-2.4-1.2-3.6c-0.4-1.2-0.8-2.4-1.2-3.5
							c-0.4-1.1-0.8-2.2-1.1-3.1c-0.3-1-0.6-1.8-0.8-2.4H151.2z"/>
						<path class="st0" d="M181.6,32.8h-10.8c-0.2,0.5-0.4,1.1-0.6,1.8c-0.2,0.6-0.4,1.2-0.6,1.9c-0.2,0.6-0.4,1.2-0.6,1.7
							c-0.2,0.5-0.3,1-0.4,1.3c-0.4,0.2-0.8,0.2-1.3,0.2c-0.4,0-0.8-0.1-1.1-0.3c-0.3-0.2-0.5-0.6-0.5-1.1c0-0.2,0-0.5,0.1-0.7
							c0.1-0.3,0.2-0.5,0.3-0.8c0.4-1.1,0.9-2.6,1.5-4.3c0.6-1.8,1.3-3.7,2.1-5.7c0.7-2,1.5-4,2.3-6c0.8-2,1.5-3.8,2.1-5.5
							c0.2-0.1,0.5-0.2,1-0.3c0.4-0.1,0.9-0.2,1.3-0.2c0.5,0,1.1,0.1,1.5,0.2c0.5,0.2,0.8,0.4,0.9,0.8c0.6,1.6,1.3,3.3,2.1,5.3
							c0.7,2,1.5,4,2.2,6.1c0.8,2.1,1.5,4.2,2.2,6.2c0.7,2,1.3,3.9,1.8,5.5c-0.2,0.2-0.5,0.4-0.8,0.6c-0.3,0.1-0.6,0.2-1,0.2
							c-0.5,0-0.9-0.1-1.2-0.3c-0.3-0.2-0.5-0.6-0.7-1.1L181.6,32.8z M176.2,17.4c-0.3,0.8-0.6,1.7-1,2.8c-0.4,1-0.8,2.1-1.2,3.2
							c-0.4,1.1-0.8,2.3-1.2,3.4c-0.4,1.2-0.8,2.3-1.1,3.3h9.1c-0.4-1.2-0.8-2.4-1.2-3.6c-0.4-1.2-0.8-2.4-1.2-3.5
							c-0.4-1.1-0.8-2.2-1.1-3.1c-0.3-1-0.6-1.8-0.8-2.4H176.2z"/>
						<path class="st0" d="M192.3,38.9c-0.3-0.3-0.5-0.8-0.5-1.3V14.9c0.1-0.1,0.3-0.1,0.6-0.2c0.3-0.1,0.6-0.1,0.9-0.1
							c1.2,0,1.8,0.5,1.8,1.5v20.4h11.6c0.3,0.3,0.4,0.7,0.4,1.3c0,0.5-0.1,0.8-0.4,1.1c-0.2,0.3-0.6,0.4-1,0.4h-12.2
							C193,39.3,192.6,39.2,192.3,38.9z"/>
					</g>
				</g>
				<g>
					<path class="st1" d="M111.7,55.6c0,0.2-0.1,0.3-0.2,0.4c-0.1,0.1-0.3,0.2-0.4,0.2c-0.2,0-0.5-0.1-0.6-0.3l-1.8-2.8
						c-0.2-0.3-0.4-0.5-0.7-0.7s-0.5-0.2-0.9-0.2h-1.5v3.3c0,0.2-0.1,0.4-0.2,0.5c-0.1,0.1-0.3,0.2-0.5,0.2c-0.2,0-0.4-0.1-0.5-0.2
						c-0.1-0.1-0.2-0.3-0.2-0.5v-8.1c0-0.2,0.1-0.4,0.2-0.5c0.1-0.1,0.3-0.2,0.5-0.2h3.3c1,0,1.8,0.2,2.4,0.7c0.5,0.5,0.8,1.1,0.8,2
						c0,0.7-0.2,1.3-0.6,1.8c-0.4,0.5-1,0.8-1.8,0.9c0.2,0.1,0.4,0.2,0.6,0.3c0.2,0.2,0.4,0.4,0.5,0.7l1.4,2.2
						C111.7,55.4,111.7,55.5,111.7,55.6z M108.1,51.1c0.7,0,1.2-0.1,1.5-0.4c0.3-0.3,0.5-0.7,0.5-1.3c0-0.6-0.2-1-0.5-1.3
						c-0.3-0.3-0.8-0.4-1.6-0.4h-2.5v3.3H108.1z"/>
					<path class="st1" d="M115.3,55.9c-0.1-0.1-0.2-0.3-0.2-0.5v-8.1c0-0.2,0.1-0.4,0.2-0.5c0.1-0.1,0.3-0.2,0.5-0.2h4.9
						c0.2,0,0.4,0,0.5,0.1c0.1,0.1,0.2,0.2,0.2,0.4c0,0.2-0.1,0.3-0.2,0.4c-0.1,0.1-0.3,0.1-0.5,0.1h-4.3v3h4c0.2,0,0.4,0,0.5,0.1
						c0.1,0.1,0.2,0.2,0.2,0.4c0,0.2-0.1,0.3-0.2,0.4c-0.1,0.1-0.3,0.1-0.5,0.1h-4V55h4.3c0.4,0,0.6,0.2,0.6,0.5
						c0,0.2-0.1,0.3-0.2,0.4c-0.1,0.1-0.3,0.1-0.5,0.1h-4.9C115.6,56.1,115.4,56,115.3,55.9z"/>
					<path class="st1" d="M132.1,46.8c0.1,0.1,0.2,0.3,0.2,0.5v8.2c0,0.2-0.1,0.4-0.2,0.5c-0.1,0.1-0.3,0.2-0.5,0.2
						c-0.2,0-0.4-0.1-0.5-0.3l-5.2-6.9v6.5c0,0.2-0.1,0.4-0.2,0.5c-0.1,0.1-0.3,0.2-0.5,0.2c-0.2,0-0.4-0.1-0.5-0.2
						c-0.1-0.1-0.2-0.3-0.2-0.5v-8.2c0-0.2,0.1-0.4,0.2-0.5s0.3-0.2,0.5-0.2c0.2,0,0.4,0.1,0.5,0.3l5.2,6.9v-6.5
						c0-0.2,0.1-0.4,0.2-0.5s0.3-0.2,0.5-0.2S132,46.7,132.1,46.8z"/>
					<path class="st1" d="M137.8,55.6c-0.7-0.4-1.2-0.9-1.5-1.7c-0.4-0.7-0.5-1.6-0.5-2.6c0-1,0.2-1.8,0.5-2.6
						c0.4-0.7,0.9-1.3,1.5-1.7c0.7-0.4,1.4-0.6,2.3-0.6c0.9,0,1.7,0.2,2.3,0.6c0.7,0.4,1.2,0.9,1.5,1.7c0.4,0.7,0.5,1.6,0.5,2.6
						c0,1-0.2,1.8-0.5,2.6c-0.4,0.7-0.9,1.3-1.5,1.7c-0.7,0.4-1.4,0.6-2.3,0.6C139.2,56.2,138.5,56,137.8,55.6z M142.3,54.1
						c0.5-0.6,0.8-1.6,0.8-2.7s-0.3-2.1-0.8-2.7c-0.5-0.6-1.3-1-2.2-1c-0.9,0-1.7,0.3-2.2,1c-0.5,0.6-0.8,1.5-0.8,2.7
						s0.3,2.1,0.8,2.7c0.5,0.6,1.2,1,2.2,1C141.1,55.1,141.8,54.8,142.3,54.1z"/>
					<path class="st1" d="M155.2,46.6c0.2,0,0.3,0.1,0.5,0.2c0.1,0.1,0.2,0.3,0.2,0.4c0,0.1,0,0.1-0.1,0.3l-3.8,8.3
						c-0.1,0.1-0.2,0.3-0.3,0.3c-0.1,0.1-0.3,0.1-0.4,0.1c-0.2,0-0.3,0-0.4-0.1c-0.1-0.1-0.2-0.2-0.3-0.3l-3.8-8.3
						c0-0.1-0.1-0.2-0.1-0.3c0-0.2,0.1-0.3,0.2-0.4c0.1-0.1,0.3-0.2,0.5-0.2c0.3,0,0.5,0.1,0.6,0.4l3.3,7.3l3.3-7.3
						C154.8,46.7,155,46.6,155.2,46.6z"/>
					<path class="st1" d="M166.3,55.6c0,0.2-0.1,0.3-0.2,0.4c-0.1,0.1-0.3,0.2-0.5,0.2c-0.1,0-0.2,0-0.3-0.1s-0.2-0.2-0.2-0.3
						l-0.9-2h-4.9l-0.9,2c-0.1,0.1-0.1,0.2-0.2,0.3s-0.2,0.1-0.3,0.1c-0.2,0-0.3-0.1-0.5-0.2c-0.1-0.1-0.2-0.3-0.2-0.4
						c0-0.1,0-0.2,0.1-0.3l3.8-8.3c0.1-0.1,0.2-0.3,0.3-0.3c0.1-0.1,0.3-0.1,0.4-0.1c0.2,0,0.3,0,0.4,0.1c0.1,0.1,0.2,0.2,0.3,0.3
						l3.8,8.3C166.2,55.4,166.3,55.5,166.3,55.6z M159.7,52.7h3.9l-2-4.4L159.7,52.7z"/>
					<path class="st1" d="M176.1,52.1c0.3,0.4,0.4,0.9,0.4,1.5c0,0.8-0.3,1.4-0.8,1.9c-0.6,0.5-1.3,0.7-2.3,0.7H170
						c-0.2,0-0.4-0.1-0.5-0.2c-0.1-0.1-0.2-0.3-0.2-0.5v-8.1c0-0.2,0.1-0.4,0.2-0.5c0.1-0.1,0.3-0.2,0.5-0.2h3.3
						c1,0,1.7,0.2,2.3,0.6c0.5,0.4,0.8,1,0.8,1.8c0,0.5-0.1,0.9-0.4,1.3c-0.3,0.4-0.6,0.6-1.1,0.8C175.4,51.4,175.8,51.7,176.1,52.1
						z M170.6,50.7h2.4c1.3,0,2-0.5,2-1.5c0-0.5-0.2-0.9-0.5-1.1c-0.3-0.2-0.8-0.4-1.5-0.4h-2.4V50.7z M174.7,54.6
						c0.3-0.2,0.5-0.6,0.5-1.2c0-0.5-0.2-0.9-0.5-1.2c-0.3-0.3-0.8-0.4-1.5-0.4h-2.6V55h2.6C173.9,55,174.4,54.9,174.7,54.6z"/>
					<path class="st1" d="M180.1,55.9c-0.1-0.1-0.2-0.3-0.2-0.5v-8.2c0-0.2,0.1-0.4,0.2-0.5s0.3-0.2,0.5-0.2c0.2,0,0.4,0.1,0.5,0.2
						c0.1,0.1,0.2,0.3,0.2,0.5v7.6h4.1c0.2,0,0.4,0,0.5,0.1c0.1,0.1,0.2,0.2,0.2,0.4c0,0.2-0.1,0.3-0.2,0.4
						c-0.1,0.1-0.3,0.1-0.5,0.1h-4.8C180.4,56.1,180.3,56,180.1,55.9z"/>
					<path class="st1" d="M189.1,55.9c-0.1-0.1-0.2-0.3-0.2-0.5v-8.1c0-0.2,0.1-0.4,0.2-0.5c0.1-0.1,0.3-0.2,0.5-0.2h4.9
						c0.2,0,0.4,0,0.5,0.1c0.1,0.1,0.2,0.2,0.2,0.4c0,0.2-0.1,0.3-0.2,0.4c-0.1,0.1-0.3,0.1-0.5,0.1h-4.3v3h4c0.2,0,0.4,0,0.5,0.1
						c0.1,0.1,0.2,0.2,0.2,0.4c0,0.2-0.1,0.3-0.2,0.4c-0.1,0.1-0.3,0.1-0.5,0.1h-4V55h4.3c0.4,0,0.6,0.2,0.6,0.5
						c0,0.2-0.1,0.3-0.2,0.4c-0.1,0.1-0.3,0.1-0.5,0.1h-4.9C189.3,56.1,189.2,56,189.1,55.9z"/>
					<path class="st1" d="M199.4,55.9c-0.6-0.2-1.1-0.4-1.5-0.8c-0.2-0.1-0.3-0.3-0.3-0.5c0-0.2,0-0.3,0.1-0.4
						c0.1-0.1,0.2-0.2,0.3-0.2s0.3,0.1,0.5,0.2c0.8,0.6,1.7,0.9,2.7,0.9c0.7,0,1.3-0.1,1.6-0.4c0.4-0.3,0.6-0.7,0.6-1.1
						c0-0.4-0.2-0.7-0.5-0.9c-0.4-0.2-0.9-0.4-1.7-0.6c-0.7-0.2-1.4-0.3-1.8-0.5c-0.5-0.2-0.9-0.5-1.1-0.8c-0.3-0.4-0.4-0.8-0.4-1.3
						c0-0.5,0.1-1,0.4-1.5c0.3-0.4,0.7-0.8,1.3-1c0.5-0.2,1.1-0.4,1.8-0.4c0.6,0,1.2,0.1,1.8,0.3c0.5,0.2,1,0.4,1.4,0.8
						c0.2,0.2,0.3,0.3,0.3,0.5c0,0.2,0,0.3-0.1,0.4c-0.1,0.1-0.2,0.2-0.3,0.2c-0.1,0-0.3-0.1-0.4-0.2c-0.4-0.3-0.8-0.5-1.2-0.7
						c-0.4-0.1-0.8-0.2-1.3-0.2c-0.7,0-1.2,0.1-1.6,0.4c-0.4,0.3-0.6,0.7-0.6,1.2c0,0.4,0.2,0.8,0.5,1c0.3,0.2,0.9,0.4,1.6,0.6
						c0.8,0.2,1.4,0.4,1.9,0.6c0.5,0.2,0.9,0.5,1.2,0.8c0.3,0.3,0.4,0.8,0.4,1.3c0,0.5-0.1,1-0.4,1.4c-0.3,0.4-0.7,0.7-1.3,1
						c-0.5,0.2-1.2,0.3-1.9,0.3C200.6,56.2,200,56.1,199.4,55.9z"/>
				</g>
			</g>
		</g>
		<path class="st1" d="M63.4,32.8c-0.1-0.2-0.3-0.4-0.6-0.4H50.1c3.1-1.8,5.2-5.1,5.2-8.9V13.5c0-0.3-0.2-0.5-0.4-0.6
			c-0.2-0.1-0.5,0-0.7,0.1l-9,9c0.3-0.9,0.4-1.8,0.4-2.8c0-2.7-1.1-5.3-3-7.3l-7.1-7.1c-0.2-0.2-0.5-0.2-0.7-0.1s-0.4,0.3-0.4,0.6
			V18c-1.8-3.1-5.1-5.2-9-5.2h-10c-0.3,0-0.5,0.2-0.6,0.4c-0.1,0.2,0,0.5,0.1,0.7l8.9,8.9c-3.4-0.9-7.1-0.1-9.8,2.6l-7.2,7.2
			c-0.2,0.2-0.2,0.5-0.1,0.7c0.1,0.2,0.3,0.4,0.6,0.4h12.5c-3,1.7-5.1,5-5.1,8.7v10.2c0,0.3,0.2,0.5,0.4,0.6c0.1,0,0.2,0.1,0.3,0.1
			c0.2,0,0.3-0.1,0.5-0.2l9-9c-1,3.5-0.1,7.3,2.6,10l7.1,7.1c0.1,0.1,0.3,0.2,0.5,0.2c0.1,0,0.2,0,0.3-0.1c0.2-0.1,0.4-0.3,0.4-0.6
			V48.1c1.8,3.1,5.1,5.2,8.9,5.2h10c0.3,0,0.5-0.2,0.6-0.4c0.1-0.2,0-0.5-0.1-0.7l-8.9-8.9c0.9,0.2,1.8,0.4,2.7,0.4
			c2.7,0,5.3-1.1,7.2-3l7.1-7.1C63.5,33.4,63.5,33.1,63.4,32.8z M35.2,42.8C27,36.7,24.9,31,25.6,27.6c0.4-1.8,1.6-3,3.4-3.4
			c0.3-0.1,0.5-0.1,0.8-0.1c3.4,0,4.7,4.5,4.8,4.7c0.1,0.3,0.3,0.5,0.6,0.5c0.3,0,0.5-0.2,0.6-0.4c0-0.1,1.9-5.5,6-4.7
			c1.7,0.3,2.8,1.5,3.2,3.2C45.7,30.7,43.5,36.6,35.2,42.8z M54,23.5c0,4.7-3.7,8.6-8.4,8.8c0.8-2.1,0.9-3.9,0.6-5.3
			c-0.2-1.1-0.7-2-1.4-2.7l9.2-9.2V23.5z M41.7,12.9c1.7,1.7,2.6,3.9,2.6,6.3c0,1.4-0.3,2.8-1,4.1c-0.4-0.2-0.8-0.3-1.3-0.4
			c-2.9-0.6-5,1.3-6.3,3.2V6.9L41.7,12.9z M25.4,14.1c4.9,0,9,4,9,9v2.5c-1.2-1.7-3-3.1-5.6-2.6c-0.8,0.1-1.4,0.4-2,0.8l-9.6-9.6
			H25.4z M15,26.3c2.8-2.8,7.1-3.3,10.5-1.4c-0.5,0.7-0.9,1.5-1.1,2.4c-0.2,0.8-0.4,2.6,0.5,5.1H8.9L15,26.3z M16.1,42.5
			c0-4.8,3.9-8.7,8.7-8.7h0.5c0.7,1.5,1.7,3.1,3.2,4.8L16.1,51.1V42.5z M28.5,53.2c-3.5-3.5-3.5-9.1,0-12.6l1.1-1.1
			c1.3,1.3,2.9,2.8,4.9,4.2v15.4L28.5,53.2z M53.1,52h-8.4c-4.6,0-8.5-3.6-8.9-8.1c1.9-1.4,3.6-2.9,4.9-4.2l1,1c0,0,0.1,0.1,0.1,0.1
			L53.1,52z M55.2,39.7c-1.7,1.7-3.9,2.6-6.3,2.6c-2.3,0-4.5-0.9-6.2-2.5l-1.1-1.1c1.5-1.7,2.7-3.4,3.4-4.9h16.1L55.2,39.7z"/>
	</g>
</g>
</svg>
