<?xml version="1.0" encoding="utf-8"?>
<!-- Generator: Adobe Illustrator 22.1.0, SVG Export Plug-In . SVG Version: 6.00 Build 0)  -->
<svg version="1.1" id="Capa_1" xmlns="http://www.w3.org/2000/svg" xmlns:xlink="http://www.w3.org/1999/xlink" x="0px" y="0px"
	 viewBox="0 0 250 78.2" style="enable-background:new 0 0 250 78.2;" xml:space="preserve">
<style type="text/css">
	.st0{fill:#E5CD49;}
	.st1{fill:#FFFFFF;}
</style>
<g>
	<path class="st0" d="M73.7,34.9c-1.6-1.4-4.7-3.6-8.5-5.2c2.5-4.7,3.1-9.1,3.3-11.4c0.1-1.8,0.1-4.1-0.5-4.8v0
		c-0.7-0.8-4.3-1-7.3-0.9c-2.2,0.1-6.2,0.5-10.3,2.1c-1.8-4.9-4.5-8.2-6.1-9.8c-1.2-1.3-3-2.9-3.8-2.9c-1,0-3.7,2.4-5.6,4.7
		c-1.3,1.6-3.6,4.6-5.2,8.4c-4.4-1.9-8.3-2.3-10.5-2.3c-1.8-0.1-4.1,0.1-4.7,0.7c-0.7,0.7-0.9,4.3-0.6,7.3c0.2,1.9,0.6,5.2,1.9,8.6
		c-5.1,1.8-8.6,4.6-10.3,6.2c-1.3,1.2-2.9,3-2.9,3.8c0,1,2.4,3.7,4.7,5.6c1.6,1.4,4.7,3.6,8.5,5.2c-2.5,4.7-3.1,9.1-3.3,11.4
		c-0.1,1.8-0.1,4.1,0.5,4.8c0.6,0.6,3.2,0.9,5.8,0.9c0.5,0,1,0,1.4,0c2.2-0.1,6.1-0.5,10.2-2c1.7,3.8,3.9,6.5,5.3,7.9
		c1.2,1.3,3,2.9,3.8,2.9c1,0,3.7-2.4,5.6-4.7c1.2-1.4,3.1-4,4.6-7.2c5,2.5,9.6,3,12,3c0.2,0,0.5,0,0.7,0c1.7,0,3.5-0.2,4-0.7
		c0.7-0.7,0.9-4.3,0.6-7.3c-0.2-1.9-0.6-5.2-1.9-8.7c5.1-1.8,8.6-4.6,10.3-6.2c1.3-1.2,2.9-3,2.9-3.8C78.4,39.5,76,36.9,73.7,34.9z
		 M62.3,14c2.4,0,4.2,0.3,4.7,0.5c0.4,1.3,1.1,14.3-10.3,23.5c-0.5,0.4-0.9,0.7-1.4,0.9c-0.5-0.2-1.1-0.4-1.6-0.5
		c1.2-3,1.4-5.6,1-7.7c-0.4-1.7-1.2-3.1-2.5-4.1c0.2-4-0.4-7.6-1.4-10.6C54.9,14.5,59.2,14,62.3,14z M39.8,52.3
		c-11.3-8.3-14.2-16.3-13.2-21c0.6-2.6,2.3-4.3,4.7-4.8c0.4-0.1,0.8-0.1,1.1-0.1c4.8,0,6.6,6.3,6.7,6.5c0.1,0.3,0.3,0.5,0.6,0.5
		c0.3,0,0.6-0.2,0.7-0.5c0-0.1,2.7-7.7,8.4-6.6c2.3,0.4,4,2.1,4.5,4.5C54.4,35.8,51.4,43.8,39.8,52.3z M40.5,3.4
		c1.2,0.5,10.7,8.4,10.4,22.4c-0.6-0.3-1.2-0.5-1.8-0.6c-5-1-8,3.4-9.2,5.9c-1.3-3-4.2-6.6-8.8-5.8c-0.6,0.1-1.2,0.3-1.7,0.6
		C27.8,14.4,38.9,4.1,40.5,3.4z M15.5,14.5c0.9-0.3,6.9-1,13.8,1.9c-1.1,3.1-1.7,6.5-1.1,10.2c-1.4,1-2.4,2.6-2.8,4.5
		c-0.3,1.3-0.6,4.2,1.2,8.3c-0.2,0.1-0.4,0.2-0.7,0.3c-0.6-0.3-1.2-0.6-1.8-1C14.3,31.7,14.8,16,15.5,14.5z M4,39.5
		c0.4-0.9,4.7-6.1,12.3-8.8c1.4,3.3,3.5,6.6,6.9,9c0.4,0.3,0.8,0.5,1.2,0.7c-0.3,0.2-0.6,0.4-0.8,0.6c-3.1,2.6-5.4,5.4-7,8.1
		C9.6,46.3,4.5,40.6,4,39.5z M14.1,65.6c-0.4-1.3-1.1-14.2,10.3-23.5c0.9-0.7,1.7-1.2,2.6-1.5c0.8,1.5,1.8,3.1,3.2,4.7
		c-1.3,1.5-2.1,3.5-2.3,5.9c-0.3,5.1,0.7,9.4,2.1,12.9C22.9,66.8,15.2,66.1,14.1,65.6z M39.6,74.8c-1.3-0.6-11.2-8.8-10.4-23.5
		c0.1-2,0.8-3.6,1.8-4.9c2,2.3,4.7,4.8,8.3,7.4c0.1,0.1,0.3,0.1,0.4,0.1c0.1,0,0.3,0,0.4-0.1c3.3-2.4,6-4.8,8.1-7.2
		c1.1,1.3,2,3,2.3,5.1C52.7,63.4,41.2,74.1,39.6,74.8z M65.6,65.6c-0.9,0.4-7.8,1.1-15.2-2.6c1.4-3.4,2.3-7.3,1.6-11.5
		c-0.4-2.4-1.4-4.4-2.8-5.9c1.7-2,3-4,3.9-5.9c1.3,0.3,2.7,0.9,4,1.8C66.8,48.3,66.3,64,65.6,65.6z M64.8,49.4
		c-1.4-3.3-3.5-6.6-6.9-9c-0.4-0.3-0.8-0.5-1.2-0.7c0.3-0.2,0.5-0.4,0.8-0.6c3.1-2.6,5.4-5.4,7-8.1c7,2.8,12.1,8.6,12.6,9.6
		C76.7,41.4,72.4,46.7,64.8,49.4z"/>
	<g>
		<g>
			<path class="st1" d="M106.5,37.1H93.6c-0.2,0.6-0.5,1.3-0.7,2.1c-0.3,0.8-0.5,1.5-0.7,2.2c-0.2,0.7-0.5,1.4-0.7,2
				c-0.2,0.6-0.4,1.1-0.5,1.6c-0.5,0.2-1,0.3-1.6,0.3c-0.5,0-1-0.1-1.4-0.4c-0.4-0.3-0.6-0.7-0.6-1.3c0-0.3,0-0.6,0.1-0.9
				c0.1-0.3,0.2-0.6,0.3-1c0.5-1.3,1.1-3.1,1.9-5.2c0.8-2.1,1.6-4.4,2.5-6.8c0.9-2.4,1.8-4.8,2.7-7.2c0.9-2.4,1.8-4.6,2.5-6.5
				c0.3-0.1,0.6-0.3,1.2-0.4c0.5-0.1,1-0.2,1.6-0.2c0.6,0,1.3,0.1,1.9,0.3c0.6,0.2,1,0.5,1.1,1c0.8,1.9,1.6,4,2.5,6.4
				c0.9,2.4,1.8,4.8,2.7,7.3c0.9,2.5,1.8,5,2.6,7.4c0.8,2.4,1.5,4.6,2.2,6.6c-0.3,0.3-0.6,0.5-0.9,0.7c-0.4,0.2-0.8,0.3-1.2,0.3
				c-0.6,0-1.1-0.1-1.4-0.4c-0.3-0.3-0.6-0.7-0.8-1.4L106.5,37.1z M100,18.7c-0.4,1-0.8,2.1-1.2,3.3c-0.5,1.2-0.9,2.5-1.4,3.9
				c-0.5,1.3-1,2.7-1.4,4.1c-0.5,1.4-0.9,2.7-1.3,3.9h10.8c-0.5-1.4-1-2.9-1.5-4.4c-0.5-1.5-1-2.9-1.5-4.2c-0.5-1.3-0.9-2.6-1.3-3.7
				c-0.4-1.1-0.7-2.1-1-2.9H100z"/>
			<path class="st1" d="M119.3,44.3c-0.4-0.4-0.6-0.9-0.6-1.5V15.7c0.2-0.1,0.4-0.1,0.7-0.2c0.3-0.1,0.7-0.1,1.1-0.1
				c1.4,0,2.1,0.6,2.1,1.8v24.4h13.8c0.4,0.4,0.5,0.9,0.5,1.6c0,0.5-0.1,1-0.4,1.3c-0.3,0.3-0.7,0.5-1.2,0.5h-14.6
				C120.2,44.9,119.7,44.7,119.3,44.3z"/>
			<path class="st1" d="M162.7,18.9c0,0.5-0.1,0.8-0.4,1.2c-0.3,0.3-0.6,0.6-0.9,0.7c-0.8-0.6-1.8-1.1-2.9-1.6
				c-1.1-0.5-2.6-0.8-4.4-0.8c-1.5,0-2.8,0.3-4.1,0.8c-1.3,0.5-2.3,1.3-3.3,2.3c-0.9,1-1.7,2.2-2.2,3.8c-0.5,1.5-0.8,3.2-0.8,5.2
				c0,2,0.3,3.7,0.8,5.2c0.5,1.5,1.2,2.7,2.1,3.7c0.9,1,2,1.7,3.3,2.2c1.3,0.5,2.7,0.7,4.3,0.7c1.7,0,3.1-0.2,4.4-0.7
				c1.2-0.5,2.3-1,3.1-1.7c0.3,0.1,0.6,0.4,0.9,0.7c0.3,0.3,0.4,0.7,0.4,1.2c0,0.7-0.4,1.3-1.2,1.8c-0.7,0.5-1.7,1-3,1.4
				c-1.3,0.4-2.9,0.6-4.9,0.6c-2,0-3.9-0.3-5.6-1c-1.7-0.6-3.2-1.6-4.5-2.9c-1.3-1.3-2.3-2.8-3-4.7c-0.7-1.9-1.1-4.1-1.1-6.6
				c0-2.5,0.4-4.8,1.1-6.7c0.8-1.9,1.8-3.5,3.1-4.8c1.3-1.3,2.8-2.2,4.5-2.9c1.7-0.6,3.5-1,5.4-1c1.3,0,2.5,0.1,3.6,0.3
				c1.1,0.2,2.1,0.5,2.8,0.9c0.8,0.4,1.4,0.8,1.8,1.3C162.5,18,162.7,18.4,162.7,18.9z"/>
			<path class="st1" d="M186.9,37.1H174c-0.2,0.6-0.5,1.3-0.7,2.1c-0.3,0.8-0.5,1.5-0.7,2.2c-0.2,0.7-0.5,1.4-0.7,2
				c-0.2,0.6-0.4,1.1-0.5,1.6c-0.5,0.2-1,0.3-1.6,0.3c-0.5,0-1-0.1-1.4-0.4c-0.4-0.3-0.6-0.7-0.6-1.3c0-0.3,0-0.6,0.1-0.9
				c0.1-0.3,0.2-0.6,0.3-1c0.5-1.3,1.1-3.1,1.9-5.2c0.8-2.1,1.6-4.4,2.5-6.8c0.9-2.4,1.8-4.8,2.7-7.2c0.9-2.4,1.8-4.6,2.5-6.5
				c0.3-0.1,0.6-0.3,1.2-0.4c0.5-0.1,1-0.2,1.6-0.2c0.6,0,1.3,0.1,1.9,0.3c0.6,0.2,1,0.5,1.1,1c0.8,1.9,1.6,4,2.5,6.4
				c0.9,2.4,1.8,4.8,2.7,7.3c0.9,2.5,1.8,5,2.6,7.4c0.8,2.4,1.5,4.6,2.2,6.6c-0.3,0.3-0.6,0.5-0.9,0.7c-0.4,0.2-0.8,0.3-1.2,0.3
				c-0.6,0-1.1-0.1-1.4-0.4c-0.3-0.3-0.6-0.7-0.8-1.4L186.9,37.1z M180.5,18.7c-0.4,1-0.8,2.1-1.2,3.3c-0.5,1.2-0.9,2.5-1.4,3.9
				c-0.5,1.3-1,2.7-1.4,4.1c-0.5,1.4-0.9,2.7-1.3,3.9h10.8c-0.5-1.4-1-2.9-1.5-4.4c-0.5-1.5-1-2.9-1.5-4.2c-0.5-1.3-0.9-2.6-1.3-3.7
				c-0.4-1.1-0.7-2.1-1-2.9H180.5z"/>
			<path class="st1" d="M216.9,37.1H204c-0.2,0.6-0.5,1.3-0.7,2.1c-0.3,0.8-0.5,1.5-0.7,2.2c-0.2,0.7-0.5,1.4-0.7,2
				c-0.2,0.6-0.4,1.1-0.5,1.6c-0.5,0.2-1,0.3-1.6,0.3c-0.5,0-1-0.1-1.4-0.4c-0.4-0.3-0.6-0.7-0.6-1.3c0-0.3,0-0.6,0.1-0.9
				c0.1-0.3,0.2-0.6,0.3-1c0.5-1.3,1.1-3.1,1.9-5.2c0.8-2.1,1.6-4.4,2.5-6.8c0.9-2.4,1.8-4.8,2.7-7.2c0.9-2.4,1.8-4.6,2.5-6.5
				c0.3-0.1,0.6-0.3,1.2-0.4c0.5-0.1,1-0.2,1.6-0.2c0.6,0,1.3,0.1,1.9,0.3c0.6,0.2,1,0.5,1.1,1c0.8,1.9,1.6,4,2.5,6.4
				c0.9,2.4,1.8,4.8,2.7,7.3c0.9,2.5,1.8,5,2.6,7.4c0.8,2.4,1.5,4.6,2.2,6.6c-0.3,0.3-0.6,0.5-0.9,0.7c-0.4,0.2-0.8,0.3-1.2,0.3
				c-0.6,0-1.1-0.1-1.4-0.4c-0.3-0.3-0.6-0.7-0.8-1.4L216.9,37.1z M210.4,18.7c-0.4,1-0.8,2.1-1.2,3.3c-0.5,1.2-0.9,2.5-1.4,3.9
				c-0.5,1.3-1,2.7-1.4,4.1c-0.5,1.4-0.9,2.7-1.3,3.9h10.8c-0.5-1.4-1-2.9-1.5-4.4c-0.5-1.5-1-2.9-1.5-4.2c-0.5-1.3-0.9-2.6-1.3-3.7
				c-0.4-1.1-0.7-2.1-1-2.9H210.4z"/>
			<path class="st1" d="M229.7,44.3c-0.4-0.4-0.6-0.9-0.6-1.5V15.7c0.2-0.1,0.4-0.1,0.7-0.2c0.3-0.1,0.7-0.1,1.1-0.1
				c1.4,0,2.1,0.6,2.1,1.8v24.4h13.8c0.4,0.4,0.5,0.9,0.5,1.6c0,0.5-0.1,1-0.4,1.3c-0.3,0.3-0.7,0.5-1.2,0.5h-14.6
				C230.6,44.9,230.1,44.7,229.7,44.3z"/>
		</g>
	</g>
	<g>
		<g>
			<path class="st1" d="M174.5,49.9c1.6,0,2.9,0.6,3.9,1.5c0.1,0.1,0.1,0.2,0,0.3c-0.1,0.1-0.2,0.2-0.3,0.3c-0.1,0.1-0.2,0.1-0.3,0
				c-0.9-0.8-2.1-1.4-3.4-1.4c-2.8,0-5.1,2.3-5.1,5.1c0,2.8,2.2,5.1,5.1,5.1c2,0,3.2-0.8,3.4-0.9V57h-2.8c-0.2,0-0.2-0.1-0.2-0.2
				v-0.3c0-0.1,0-0.2,0.2-0.2h3.3c0.1,0,0.2,0.1,0.2,0.2v3.8c0,0.2-0.1,0.3-0.2,0.4c-0.3,0.2-1.8,1-3.9,1c-3.3,0-5.9-2.6-5.9-5.9
				C168.6,52.6,171.2,49.9,174.5,49.9z"/>
			<path class="st1" d="M186.6,50.3c0-0.1,0.1-0.2,0.2-0.2h4c2,0,3.6,1.5,3.6,3.5c0,1.6-1.1,3-2.7,3.4l2.4,4.2
				c0.1,0.1,0,0.3-0.1,0.3h-0.5c-0.1,0-0.2,0-0.2-0.1l-2.4-4.3c-0.2,0-0.4,0-0.6,0h-3v4.2c0,0.1-0.1,0.2-0.3,0.2h-0.3
				c-0.1,0-0.2-0.1-0.2-0.2V50.3z M190.8,56.4c1.6,0,2.9-1.2,2.9-2.8c0-1.5-1.3-2.7-2.9-2.7h-3.4v5.6H190.8z"/>
			<path class="st1" d="M208.3,49.9c3.3,0,5.9,2.6,5.9,5.9c0,3.3-2.6,5.9-5.9,5.9c-3.3,0-5.9-2.6-5.9-5.9
				C202.5,52.6,205.1,49.9,208.3,49.9z M208.3,61c2.9,0,5.2-2.3,5.2-5.1c0-2.9-2.3-5.2-5.2-5.2s-5.2,2.3-5.2,5.2
				C203.2,58.7,205.5,61,208.3,61z"/>
			<path class="st1" d="M222.2,50.3c0-0.1,0.1-0.2,0.2-0.2h0.3c0.1,0,0.2,0.1,0.2,0.2v7c0,2.1,1.3,3.7,3.5,3.7
				c2.2,0,3.5-1.5,3.5-3.6v-7c0-0.1,0.1-0.2,0.2-0.2h0.3c0.1,0,0.2,0.1,0.2,0.2v7c0,2.5-1.7,4.3-4.3,4.3c-2.6,0-4.3-1.8-4.3-4.3
				V50.3z"/>
			<path class="st1" d="M238.7,50.3c0-0.1,0.1-0.2,0.2-0.2h3.5c2,0,3.7,1.6,3.7,3.7c0,2-1.7,3.7-3.7,3.7h-3v3.8
				c0,0.1-0.1,0.2-0.3,0.2h-0.3c-0.1,0-0.2-0.1-0.2-0.2V50.3z M242.4,56.7c1.6,0,3-1.3,3-3c0-1.6-1.4-2.9-3-2.9h-2.9v5.8H242.4z"/>
		</g>
	</g>
</g>
</svg>
