<svg viewBox="0 0 250 78.2" xmlns="http://www.w3.org/2000/svg" xmlns:xlink="http://www.w3.org/1999/xlink" id="Capa_1" overflow="hidden"><g><path d="M73.7 34.9C72.1 33.5 69 31.3 65.2 29.7 67.7 25 68.3 20.6 68.5 18.3 68.6 16.5 68.6 14.2 68 13.5L68 13.5C67.3 12.7 63.7 12.5 60.7 12.6 58.5 12.7 54.5 13.1 50.4 14.7 48.6 9.8 45.9 6.5 44.3 4.9 43.1 3.6 41.3 2 40.5 2 39.5 2 36.8 4.4 34.9 6.7 33.6 8.3 31.3 11.3 29.7 15.1 25.3 13.2 21.4 12.8 19.2 12.8 17.4 12.7 15.1 12.9 14.5 13.5 13.8 14.2 13.6 17.8 13.9 20.8 14.1 22.7 14.5 26 15.8 29.4 10.7 31.2 7.2 34 5.5 35.6 4.2 36.8 2.6 38.6 2.6 39.4 2.6 40.4 5 43.1 7.3 45 8.9 46.4 12 48.6 15.8 50.2 13.3 54.9 12.7 59.3 12.5 61.6 12.4 63.4 12.4 65.7 13 66.4 13.6 67 16.2 67.3 18.8 67.3 19.3 67.3 19.8 67.3 20.2 67.3 22.4 67.2 26.3 66.8 30.4 65.3 32.1 69.1 34.3 71.8 35.7 73.2 36.9 74.5 38.7 76.1 39.5 76.1 40.5 76.1 43.2 73.7 45.1 71.4 46.3 70 48.2 67.4 49.7 64.2 54.7 66.7 59.3 67.2 61.7 67.2 61.9 67.2 62.2 67.2 62.4 67.2 64.1 67.2 65.9 67 66.4 66.5 67.1 65.8 67.3 62.2 67 59.2 66.8 57.3 66.4 54 65.1 50.5 70.2 48.7 73.7 45.9 75.4 44.3 76.7 43.1 78.3 41.3 78.3 40.5 78.4 39.5 76 36.9 73.7 34.9ZM62.3 14C64.7 14 66.5 14.3 67 14.5 67.4 15.8 68.1 28.8 56.7 38 56.2 38.4 55.8 38.7 55.3 38.9 54.8 38.7 54.2 38.5 53.7 38.4 54.9 35.4 55.1 32.8 54.7 30.7 54.3 29 53.5 27.6 52.2 26.6 52.4 22.6 51.8 19 50.8 16 54.9 14.5 59.2 14 62.3 14ZM39.8 52.3C28.5 44 25.6 36 26.6 31.3 27.2 28.7 28.9 27 31.3 26.5 31.7 26.4 32.1 26.4 32.4 26.4 37.2 26.4 39 32.7 39.1 32.9 39.2 33.2 39.4 33.4 39.7 33.4 40 33.4 40.3 33.2 40.4 32.9 40.4 32.8 43.1 25.2 48.8 26.3 51.1 26.7 52.8 28.4 53.3 30.8 54.4 35.8 51.4 43.8 39.8 52.3ZM40.5 3.4C41.7 3.9 51.2 11.8 50.9 25.8 50.3 25.5 49.7 25.3 49.1 25.2 44.1 24.2 41.1 28.6 39.9 31.1 38.6 28.1 35.7 24.5 31.1 25.3 30.5 25.4 29.9 25.6 29.4 25.9 27.8 14.4 38.9 4.1 40.5 3.4ZM15.5 14.5C16.4 14.2 22.4 13.5 29.3 16.4 28.2 19.5 27.6 22.9 28.2 26.6 26.8 27.6 25.8 29.2 25.4 31.1 25.1 32.4 24.8 35.3 26.6 39.4 26.4 39.5 26.2 39.6 25.9 39.7 25.3 39.4 24.7 39.1 24.1 38.7 14.3 31.7 14.8 16 15.5 14.5ZM4 39.5C4.4 38.6 8.7 33.4 16.3 30.7 17.7 34 19.8 37.3 23.2 39.7 23.6 40 24 40.2 24.4 40.4 24.1 40.6 23.8 40.8 23.6 41 20.5 43.6 18.2 46.4 16.6 49.1 9.6 46.3 4.5 40.6 4 39.5ZM14.1 65.6C13.7 64.3 13 51.4 24.4 42.1 25.3 41.4 26.1 40.9 27 40.6 27.8 42.1 28.8 43.7 30.2 45.3 28.9 46.8 28.1 48.8 27.9 51.2 27.6 56.3 28.6 60.6 30 64.1 22.9 66.8 15.2 66.1 14.1 65.6ZM39.6 74.8C38.3 74.2 28.4 66 29.2 51.3 29.3 49.3 30 47.7 31 46.4 33 48.7 35.7 51.2 39.3 53.8 39.4 53.9 39.6 53.9 39.7 53.9 39.8 53.9 40 53.9 40.1 53.8 43.4 51.4 46.1 49 48.2 46.6 49.3 47.9 50.2 49.6 50.5 51.7 52.7 63.4 41.2 74.1 39.6 74.8ZM65.6 65.6C64.7 66 57.8 66.7 50.4 63 51.8 59.6 52.7 55.7 52 51.5 51.6 49.1 50.6 47.1 49.2 45.6 50.9 43.6 52.2 41.6 53.1 39.7 54.4 40 55.8 40.6 57.1 41.5 66.8 48.3 66.3 64 65.6 65.6ZM64.8 49.4C63.4 46.1 61.3 42.8 57.9 40.4 57.5 40.1 57.1 39.9 56.7 39.7 57 39.5 57.2 39.3 57.5 39.1 60.6 36.5 62.9 33.7 64.5 31 71.5 33.8 76.6 39.6 77.1 40.6 76.7 41.4 72.4 46.7 64.8 49.4Z" fill="#E5CD49"/><g><g><path d="M106.5 37.1 93.6 37.1C93.4 37.7 93.1 38.4 92.9 39.2 92.6 40 92.4 40.7 92.2 41.4 92 42.1 91.7 42.8 91.5 43.4 91.3 44 91.1 44.5 91 45 90.5 45.2 90 45.3 89.4 45.3 88.9 45.3 88.4 45.2 88 44.9 87.6 44.6 87.4 44.2 87.4 43.6 87.4 43.3 87.4 43 87.5 42.7 87.6 42.4 87.7 42.1 87.8 41.7 88.3 40.4 88.9 38.6 89.7 36.5 90.5 34.4 91.3 32.1 92.2 29.7 93.1 27.3 94 24.9 94.9 22.5 95.8 20.1 96.7 17.9 97.4 16 97.7 15.9 98 15.7 98.6 15.6 99.1 15.5 99.6 15.4 100.2 15.4 100.8 15.4 101.5 15.5 102.1 15.7 102.7 15.9 103.1 16.2 103.2 16.7 104 18.6 104.8 20.7 105.7 23.1 106.6 25.5 107.5 27.9 108.4 30.4 109.3 32.9 110.2 35.4 111 37.8 111.8 40.2 112.5 42.4 113.2 44.4 112.9 44.7 112.6 44.9 112.3 45.1 111.9 45.3 111.5 45.4 111.1 45.4 110.5 45.4 110 45.3 109.7 45 109.4 44.7 109.1 44.3 108.9 43.6L106.5 37.1ZM100 18.7C99.6 19.7 99.2 20.8 98.8 22 98.3 23.2 97.9 24.5 97.4 25.9 96.9 27.2 96.4 28.6 96 30 95.5 31.4 95.1 32.7 94.7 33.9L105.5 33.9C105 32.5 104.5 31 104 29.5 103.5 28 103 26.6 102.5 25.3 102 24 101.6 22.7 101.2 21.6 100.8 20.5 100.5 19.5 100.2 18.7L100 18.7Z" fill="#FFFFFF"/><path d="M119.3 44.3C118.9 43.9 118.7 43.4 118.7 42.8L118.7 15.7C118.9 15.6 119.1 15.6 119.4 15.5 119.7 15.4 120.1 15.4 120.5 15.4 121.9 15.4 122.6 16 122.6 17.2L122.6 41.6 136.4 41.6C136.8 42 136.9 42.5 136.9 43.2 136.9 43.7 136.8 44.2 136.5 44.5 136.2 44.8 135.8 45 135.3 45L120.7 45C120.2 44.9 119.7 44.7 119.3 44.3Z" fill="#FFFFFF"/><path d="M162.7 18.9C162.7 19.4 162.6 19.7 162.3 20.1 162 20.4 161.7 20.7 161.4 20.8 160.6 20.2 159.6 19.7 158.5 19.2 157.4 18.7 155.9 18.4 154.1 18.4 152.6 18.4 151.3 18.7 150 19.2 148.7 19.7 147.7 20.5 146.7 21.5 145.8 22.5 145 23.7 144.5 25.3 144 26.8 143.7 28.5 143.7 30.5 143.7 32.5 144 34.2 144.5 35.7 145 37.2 145.7 38.4 146.6 39.4 147.5 40.4 148.6 41.1 149.9 41.6 151.2 42.1 152.6 42.3 154.2 42.3 155.9 42.3 157.3 42.1 158.6 41.6 159.8 41.1 160.9 40.6 161.7 39.9 162 40 162.3 40.3 162.6 40.6 162.9 40.9 163 41.3 163 41.8 163 42.5 162.6 43.1 161.8 43.6 161.1 44.1 160.1 44.6 158.8 45 157.5 45.4 155.9 45.6 153.9 45.6 151.9 45.6 150 45.3 148.3 44.6 146.6 44 145.1 43 143.8 41.7 142.5 40.4 141.5 38.9 140.8 37 140.1 35.1 139.7 32.9 139.7 30.4 139.7 27.9 140.1 25.6 140.8 23.7 141.6 21.8 142.6 20.2 143.9 18.9 145.2 17.6 146.7 16.7 148.4 16 150.1 15.4 151.9 15 153.8 15 155.1 15 156.3 15.1 157.4 15.3 158.5 15.5 159.5 15.8 160.2 16.2 161 16.6 161.6 17 162 17.5 162.5 18 162.7 18.4 162.7 18.9Z" fill="#FFFFFF"/><path d="M186.9 37.1 174 37.1C173.8 37.7 173.5 38.4 173.3 39.2 173 40 172.8 40.7 172.6 41.4 172.4 42.1 172.1 42.8 171.9 43.4 171.7 44 171.5 44.5 171.4 45 170.9 45.2 170.4 45.3 169.8 45.3 169.3 45.3 168.8 45.2 168.4 44.9 168 44.6 167.8 44.2 167.8 43.6 167.8 43.3 167.8 43 167.9 42.7 168 42.4 168.1 42.1 168.2 41.7 168.7 40.4 169.3 38.6 170.1 36.5 170.9 34.4 171.7 32.1 172.6 29.7 173.5 27.3 174.4 24.9 175.3 22.5 176.2 20.1 177.1 17.9 177.8 16 178.1 15.9 178.4 15.7 179 15.6 179.5 15.5 180 15.4 180.6 15.4 181.2 15.4 181.9 15.5 182.5 15.7 183.1 15.9 183.5 16.2 183.6 16.7 184.4 18.6 185.2 20.7 186.1 23.1 187 25.5 187.9 27.9 188.8 30.4 189.7 32.9 190.6 35.4 191.4 37.8 192.2 40.2 192.9 42.4 193.6 44.4 193.3 44.7 193 44.9 192.7 45.1 192.3 45.3 191.9 45.4 191.5 45.4 190.9 45.4 190.4 45.3 190.1 45 189.8 44.7 189.5 44.3 189.3 43.6L186.9 37.1ZM180.5 18.7C180.1 19.7 179.7 20.8 179.3 22 178.8 23.2 178.4 24.5 177.9 25.9 177.4 27.2 176.9 28.6 176.5 30 176 31.4 175.6 32.7 175.2 33.9L186 33.9C185.5 32.5 185 31 184.5 29.5 184 28 183.5 26.6 183 25.3 182.5 24 182.1 22.7 181.7 21.6 181.3 20.5 181 19.5 180.7 18.7L180.5 18.7Z" fill="#FFFFFF"/><path d="M216.9 37.1 204 37.1C203.8 37.7 203.5 38.4 203.3 39.2 203 40 202.8 40.7 202.6 41.4 202.4 42.1 202.1 42.8 201.9 43.4 201.7 44 201.5 44.5 201.4 45 200.9 45.2 200.4 45.3 199.8 45.3 199.3 45.3 198.8 45.2 198.4 44.9 198 44.6 197.8 44.2 197.8 43.6 197.8 43.3 197.8 43 197.9 42.7 198 42.4 198.1 42.1 198.2 41.7 198.7 40.4 199.3 38.6 200.1 36.5 200.9 34.4 201.7 32.1 202.6 29.7 203.5 27.3 204.4 24.9 205.3 22.5 206.2 20.1 207.1 17.9 207.8 16 208.1 15.9 208.4 15.7 209 15.6 209.5 15.5 210 15.4 210.6 15.4 211.2 15.4 211.9 15.5 212.5 15.7 213.1 15.9 213.5 16.2 213.6 16.7 214.4 18.6 215.2 20.7 216.1 23.1 217 25.5 217.9 27.9 218.8 30.4 219.7 32.9 220.6 35.4 221.4 37.8 222.2 40.2 222.9 42.4 223.6 44.4 223.3 44.7 223 44.9 222.7 45.1 222.3 45.3 221.9 45.4 221.5 45.4 220.9 45.4 220.4 45.3 220.1 45 219.8 44.7 219.5 44.3 219.3 43.6L216.9 37.1ZM210.4 18.7C210 19.7 209.6 20.8 209.2 22 208.7 23.2 208.3 24.5 207.8 25.9 207.3 27.2 206.8 28.6 206.4 30 205.9 31.4 205.5 32.7 205.1 33.9L215.9 33.9C215.4 32.5 214.9 31 214.4 29.5 213.9 28 213.4 26.6 212.9 25.3 212.4 24 212 22.7 211.6 21.6 211.2 20.5 210.9 19.5 210.6 18.7L210.4 18.7Z" fill="#FFFFFF"/><path d="M229.7 44.3C229.3 43.9 229.1 43.4 229.1 42.8L229.1 15.7C229.3 15.6 229.5 15.6 229.8 15.5 230.1 15.4 230.5 15.4 230.9 15.4 232.3 15.4 233 16 233 17.2L233 41.6 246.8 41.6C247.2 42 247.3 42.5 247.3 43.2 247.3 43.7 247.2 44.2 246.9 44.5 246.6 44.8 246.2 45 245.7 45L231.1 45C230.6 44.9 230.1 44.7 229.7 44.3Z" fill="#FFFFFF"/></g></g><g><g><path d="M174.5 49.9C176.1 49.9 177.4 50.5 178.4 51.4 178.5 51.5 178.5 51.6 178.4 51.7 178.3 51.8 178.2 51.9 178.1 52 178 52.1 177.9 52.1 177.8 52 176.9 51.2 175.7 50.6 174.4 50.6 171.6 50.6 169.3 52.9 169.3 55.7 169.3 58.5 171.5 60.8 174.4 60.8 176.4 60.8 177.6 60 177.8 59.9L177.8 57 175 57C174.8 57 174.8 56.9 174.8 56.8L174.8 56.5C174.8 56.4 174.8 56.3 175 56.3L178.3 56.3C178.4 56.3 178.5 56.4 178.5 56.5L178.5 60.3C178.5 60.5 178.4 60.6 178.3 60.7 178 60.9 176.5 61.7 174.4 61.7 171.1 61.7 168.5 59.1 168.5 55.8 168.6 52.6 171.2 49.9 174.5 49.9Z" fill="#FFFFFF"/><path d="M186.6 50.3C186.6 50.2 186.7 50.1 186.8 50.1L190.8 50.1C192.8 50.1 194.4 51.6 194.4 53.6 194.4 55.2 193.3 56.6 191.7 57L194.1 61.2C194.2 61.3 194.1 61.5 194 61.5L193.5 61.5C193.4 61.5 193.3 61.5 193.3 61.4L190.9 57.1C190.7 57.1 190.5 57.1 190.3 57.1L187.3 57.1 187.3 61.3C187.3 61.4 187.2 61.5 187 61.5L186.7 61.5C186.6 61.5 186.5 61.4 186.5 61.3L186.5 50.3ZM190.8 56.4C192.4 56.4 193.7 55.2 193.7 53.6 193.7 52.1 192.4 50.9 190.8 50.9L187.4 50.9 187.4 56.5 190.8 56.5Z" fill="#FFFFFF"/><path d="M208.3 49.9C211.6 49.9 214.2 52.5 214.2 55.8 214.2 59.1 211.6 61.7 208.3 61.7 205 61.7 202.4 59.1 202.4 55.8 202.5 52.6 205.1 49.9 208.3 49.9ZM208.3 61C211.2 61 213.5 58.7 213.5 55.9 213.5 53 211.2 50.7 208.3 50.7 205.4 50.7 203.1 53 203.1 55.9 203.2 58.7 205.5 61 208.3 61Z" fill="#FFFFFF"/><path d="M222.2 50.3C222.2 50.2 222.3 50.1 222.4 50.1L222.7 50.1C222.8 50.1 222.9 50.2 222.9 50.3L222.9 57.3C222.9 59.4 224.2 61 226.4 61 228.6 61 229.9 59.5 229.9 57.4L229.9 50.4C229.9 50.3 230 50.2 230.1 50.2L230.4 50.2C230.5 50.2 230.6 50.3 230.6 50.4L230.6 57.4C230.6 59.9 228.9 61.7 226.3 61.7 223.7 61.7 222 59.9 222 57.4L222 50.3Z" fill="#FFFFFF"/><path d="M238.7 50.3C238.7 50.2 238.8 50.1 238.9 50.1L242.4 50.1C244.4 50.1 246.1 51.7 246.1 53.8 246.1 55.8 244.4 57.5 242.4 57.5L239.4 57.5 239.4 61.3C239.4 61.4 239.3 61.5 239.1 61.5L238.8 61.5C238.7 61.5 238.6 61.4 238.6 61.3L238.6 50.3ZM242.4 56.7C244 56.7 245.4 55.4 245.4 53.7 245.4 52.1 244 50.8 242.4 50.8L239.5 50.8 239.5 56.6 242.4 56.6Z" fill="#FFFFFF"/></g></g></g></svg>
